# Created by CloudCompare v2.13.alpha
# Created 2024-07-06T13:50:43
v 478808.409973144531 6772359.089996337891 395.190002441406
v 478804.030029296875 6772357.700012207031 395.579986572266
v 478799.640014648438 6772356.299987792969 396.019989013672
v 478795.260009765625 6772354.910003662109 396.859985351563
v 478790.880004882813 6772353.519989013672 397.410003662109
v 478786.489990234375 6772352.130004882813 397.920013427734
v 478782.109985351563 6772350.730010986328 398.470001220703
v 478777.719970703125 6772349.339996337891 399.269989013672
v 478773.340026855469 6772347.950012207031 400.350006103516
v 478768.960021972656 6772346.549987792969 401.290008544922
v 478764.570007324219 6772345.160003662109 402.059997558594
v 478809.409973144531 6772355.089996337891 395.190002441406
v 478805.030029296875 6772353.700012207031 395.579986572266
v 478800.640014648438 6772352.299987792969 396.019989013672
v 478796.260009765625 6772350.910003662109 396.859985351563
v 478791.880004882813 6772349.519989013672 397.410003662109
v 478787.489990234375 6772348.130004882813 397.920013427734
v 478783.109985351563 6772346.730010986328 398.470001220703
v 478778.719970703125 6772345.339996337891 399.269989013672
v 478774.340026855469 6772343.950012207031 400.350006103516
v 478769.960021972656 6772342.549987792969 401.290008544922
v 478765.570007324219 6772341.160003662109 402.059997558594
vn 0.082584425807 0.020377974957 0.996375739574
vn 0.085252396762 0.024820318446 0.996050179005
vn 0.130369409919 -0.001095541287 0.991464912891
vn 0.153901889920 0.045129127800 0.987055003643
vn 0.112079307437 0.032181188464 0.993178069592
vn 0.122792191803 -0.016593540087 0.992293715477
vn 0.139530912042 0.014511214569 0.990111351013
vn 0.208833068609 -0.034606624395 0.977338790894
vn 0.227262914181 0.005887640174 0.973815679550
vn 0.179732993245 0.058323949575 0.981984913349
vn 0.153635382652 0.059812247753 0.986315727234
vn 0.080786556005 0.026928853244 0.996367573738
vn 0.087766684592 0.027088483796 0.995772659779
vn 0.167514353991 -0.028881784528 0.985446512699
vn 0.158461779356 -0.038169626147 0.986627042294
vn 0.109418854117 0.027631023899 0.993611633778
vn 0.112079307437 0.032181188464 0.993178069592
vn 0.160218581557 0.001120409695 0.987080872059
vn 0.196077585220 0.071854524314 0.977952241898
vn 0.206995412707 0.039484672248 0.977544784546
vn 0.164625972509 0.065139777958 0.984202802181
vn 0.161068424582 0.040556799620 0.986109614372
g 22Holes - Cloud.mesh
f 16//16 6//6 17//17
f 15//15 18//18 14//14
f 8//8 19//19 18//18
f 18//18 19//19 21//21
f 13//13 3//3 14//14
f 8//8 9//9 19//19
f 21//21 20//20 10//10
f 9//9 20//20 19//19
f 21//21 19//19 20//20
f 22//22 21//21 11//11
f 9//9 10//10 20//20
f 11//11 21//21 10//10
f 17//17 6//6 7//7
f 11//11 10//10 9//9
f 7//7 8//8 18//18
f 6//6 9//9 8//8
f 17//17 7//7 18//18
f 6//6 8//8 7//7
f 13//13 2//2 3//3
f 12//12 1//1 2//2
f 14//14 3//3 4//4
f 2//2 6//6 4//4
f 12//12 13//13 14//14
f 12//12 2//2 13//13
f 14//14 4//4 15//15
f 3//3 2//2 4//4
f 16//16 17//17 18//18
f 16//16 5//5 6//6
f 4//4 5//5 15//15
f 4//4 6//6 5//5
f 15//15 16//16 18//18
f 15//15 5//5 16//16
#32 faces
