999
********************************
999
*   DXF File - Entities Only   *
999
*        3D Data Format        *
999
*     Output from ENVISAGE     *
999
*     28-May-2024 11:30:26     *
999
********************************
  0
SECTION 
  2
HEADER
  9
$ACADVER
  1
AC1009
  9
$EXTMIN
 10
476000.000
 20
6770000.000
 30
0.000
  9
$EXTMAX
 10
482000.000
 20
6774000.000
 30
600.000
  0
ENDSEC
  0
SECTION
  2
TABLES
  0
TABLE
  2
APPID
  2
ACAD
 70
     0
  0
APPID
  2
MAPTEK_VULCAN
 70
     0
  0
ENDTAB
  0
ENDSEC
  0
SECTION
  2
ENTITIES
  0
POLYLINE
  8
S4_274RL_BM_V08
 62
7
 66
     1
 70
     9
1001
MAPTEK_VULCAN
1000
VulcanName=LINE_12
1000
VulcanGroup=
1000
VulcanValue=0
1000
VulcanDescription=LINE digitising 08-Feb-2024 08:31:37
1000
VulcanPrimitive=
1000
VulcanLine=30
1000
VulcanPattern=3
1000
VulcanFeature=
  0
VERTEX
  8
S4_274RL_BM_V08
 62
7
 10
477822.604
 20
6771919.770
 30
286.000
 70
    32
  0
VERTEX
  8
S4_274RL_BM_V08
 62
7
 10
477848.784
 20
6771981.211
 30
286.000
 70
    32
  0
VERTEX
  8
S4_274RL_BM_V08
 62
7
 10
477888.351
 20
6771965.856
 30
274.000
 70
    32
  0
VERTEX
  8
S4_274RL_BM_V08
 62
7
 10
477864.647
 20
6771903.308
 30
286.000
 70
    32
  0
SEQEND
  8
S4_274RL_BM_V08
  0
TEXT
  8
S4_274RL_BM_V08
 62
27
 10
477788.513
 20
6772065.450
 30
286.000
 40
10.000
  1
Preconditioning
 41
 1.0 
1001
MAPTEK_VULCAN
1000
VulcanName=TEXT$1
1000
VulcanGroup=
1000
VulcanValue=0
1000
VulcanDescription=Unnamed TEXT 08-Feb-2024 09:04:48
1000
VulcanPrimitive=
1000
VulcanLine=0
1000
VulcanPattern=0
1000
VulcanFeature=
  0
TEXT
  8
S4_274RL_BM_V08
 62
27
 10
477788.513
 20
6772050.450
 30
286.000
 40
10.000
  1
to the 268RL
 41
 1.0 
1001
MAPTEK_VULCAN
1000
VulcanName=TEXT$1
1000
VulcanGroup=
1000
VulcanValue=0
1000
VulcanDescription=Unnamed TEXT 08-Feb-2024 09:04:48
1000
VulcanPrimitive=
1000
VulcanLine=0
1000
VulcanPattern=0
1000
VulcanFeature=
  0
POLYLINE
  8
S4_274RL_BM_V08
 62
6
 66
     1
 70
     9
1001
MAPTEK_VULCAN
1000
VulcanName=RAMP_PRECON_2
1000
VulcanGroup=
1000
VulcanValue=0
1000
VulcanDescription=LINE digitising 10-Feb-2024 06:38:41
1000
VulcanPrimitive=
1000
VulcanLine=0
1000
VulcanPattern=2
1000
VulcanFeature=
  0
VERTEX
  8
S4_274RL_BM_V08
 62
6
 10
478263.794
 20
6771898.200
 30
280.699
 70
    32
  0
VERTEX
  8
S4_274RL_BM_V08
 62
6
 10
478245.659
 20
6771861.389
 30
276.600
 70
    32
  0
VERTEX
  8
S4_274RL_BM_V08
 62
6
 10
478233.916
 20
6771838.195
 30
274.000
 70
    32
  0
VERTEX
  8
S4_274RL_BM_V08
 62
6
 10
478267.646
 20
6771822.859
 30
274.000
 70
    32
  0
VERTEX
  8
S4_274RL_BM_V08
 62
6
 10
478288.447
 20
6771859.464
 30
278.000
 70
    32
  0
VERTEX
  8
S4_274RL_BM_V08
 62
6
 10
478302.314
 20
6771883.868
 30
280.667
 70
    32
  0
SEQEND
  8
S4_274RL_BM_V08
  0
POLYLINE
  8
S4_274RL_BM_V08
 62
24
 66
     1
 70
     9
1001
MAPTEK_VULCAN
1000
VulcanName=REGRADE_POTENTIAL
1000
VulcanGroup=
1000
VulcanValue=0
1000
VulcanDescription=LINE digitising 08-Feb-2024 08:47:36
1000
VulcanPrimitive=
1000
VulcanLine=0
1000
VulcanPattern=10
1000
VulcanFeature=
  0
VERTEX
  8
S4_274RL_BM_V08
 62
24
 10
478193.063
 20
6771684.066
 30
268.000
 70
    32
  0
VERTEX
  8
S4_274RL_BM_V08
 62
24
 10
478202.822
 20
6771684.962
 30
268.000
 70
    32
  0
VERTEX
  8
S4_274RL_BM_V08
 62
24
 10
478239.870
 20
6771680.195
 30
268.000
 70
    32
  0
VERTEX
  8
S4_274RL_BM_V08
 62
24
 10
478248.101
 20
6771738.172
 30
268.000
 70
    32
  0
VERTEX
  8
S4_274RL_BM_V08
 62
24
 10
478239.080
 20
6771741.781
 30
268.000
 70
    32
  0
VERTEX
  8
S4_274RL_BM_V08
 62
24
 10
478188.080
 20
6771764.781
 30
268.000
 70
    32
  0
VERTEX
  8
S4_274RL_BM_V08
 62
24
 10
478172.580
 20
6771773.781
 30
268.000
 70
    32
  0
VERTEX
  8
S4_274RL_BM_V08
 62
24
 10
478166.412
 20
6771778.454
 30
268.000
 70
    32
  0
VERTEX
  8
S4_274RL_BM_V08
 62
24
 10
478174.580
 20
6771766.826
 30
268.000
 70
    32
  0
VERTEX
  8
S4_274RL_BM_V08
 62
24
 10
478188.861
 20
6771758.281
 30
268.000
 70
    32
  0
VERTEX
  8
S4_274RL_BM_V08
 62
24
 10
478192.519
 20
6771744.281
 30
268.000
 70
    32
  0
VERTEX
  8
S4_274RL_BM_V08
 62
24
 10
478187.308
 20
6771732.509
 30
268.000
 70
    32
  0
VERTEX
  8
S4_274RL_BM_V08
 62
24
 10
478190.080
 20
6771718.361
 30
268.000
 70
    32
  0
VERTEX
  8
S4_274RL_BM_V08
 62
24
 10
478195.080
 20
6771702.835
 30
268.000
 70
    32
  0
VERTEX
  8
S4_274RL_BM_V08
 62
24
 10
478199.134
 20
6771698.335
 30
268.000
 70
    32
  0
SEQEND
  8
S4_274RL_BM_V08
  0
TEXT
  8
S4_274RL_BM_V08
 62
24
 10
478259.778
 20
6771707.661
 30
286.000
 40
10.000
  1
Re-Grade
 41
 1.0 
1001
MAPTEK_VULCAN
1000
VulcanName=TEXT$1
1000
VulcanGroup=
1000
VulcanValue=0
1000
VulcanDescription=Unnamed TEXT 08-Feb-2024 09:04:48
1000
VulcanPrimitive=
1000
VulcanLine=0
1000
VulcanPattern=0
1000
VulcanFeature=
  0
TEXT
  8
S4_274RL_BM_V08
 62
24
 10
478259.778
 20
6771692.661
 30
286.000
 40
10.000
  1
to the 268RL
 41
 1.0 
1001
MAPTEK_VULCAN
1000
VulcanName=TEXT$1
1000
VulcanGroup=
1000
VulcanValue=0
1000
VulcanDescription=Unnamed TEXT 08-Feb-2024 09:04:48
1000
VulcanPrimitive=
1000
VulcanLine=0
1000
VulcanPattern=0
1000
VulcanFeature=
  0
TEXT
  8
S4_274RL_BM_V08
 62
6
 10
478292.138
 20
6771845.306
 30
286.000
 40
10.000
  1
Preconditioning
 41
 1.0 
1001
MAPTEK_VULCAN
1000
VulcanName=TEXT$1
1000
VulcanGroup=
1000
VulcanValue=0
1000
VulcanDescription=Unnamed TEXT 08-Feb-2024 09:04:48
1000
VulcanPrimitive=
1000
VulcanLine=0
1000
VulcanPattern=0
1000
VulcanFeature=
  0
TEXT
  8
S4_274RL_BM_V08
 62
6
 10
478292.138
 20
6771830.306
 30
286.000
 40
10.000
  1
Ramp Grade
 41
 1.0 
1001
MAPTEK_VULCAN
1000
VulcanName=TEXT$1
1000
VulcanGroup=
1000
VulcanValue=0
1000
VulcanDescription=Unnamed TEXT 08-Feb-2024 09:04:48
1000
VulcanPrimitive=
1000
VulcanLine=0
1000
VulcanPattern=0
1000
VulcanFeature=
  0
POLYLINE
  8
S4_274RL_BM_V08
 62
27
 66
     1
 70
     9
1001
MAPTEK_VULCAN
1000
VulcanName=RAMP_PRECON1
1000
VulcanGroup=
1000
VulcanValue=0
1000
VulcanDescription=LINE digitising 05-Jan-2024 12:21:17
1000
VulcanPrimitive=
1000
VulcanLine=30
1000
VulcanPattern=10
1000
VulcanFeature=
  0
VERTEX
  8
S4_274RL_BM_V08
 62
27
 10
477905.389
 20
6772084.319
 30
268.000
 70
    32
  0
VERTEX
  8
S4_274RL_BM_V08
 62
27
 10
477940.388
 20
6772068.649
 30
268.000
 70
    32
  0
VERTEX
  8
S4_274RL_BM_V08
 62
27
 10
477938.542
 20
6772065.281
 30
268.386
 70
    32
  0
VERTEX
  8
S4_274RL_BM_V08
 62
27
 10
477931.883
 20
6772053.130
 30
269.778
 70
    32
  0
VERTEX
  8
S4_274RL_BM_V08
 62
27
 10
477924.749
 20
6772040.113
 30
271.269
 70
    32
  0
VERTEX
  8
S4_274RL_BM_V08
 62
27
 10
477911.687
 20
6772016.277
 30
274.000
 70
    32
  0
VERTEX
  8
S4_274RL_BM_V08
 62
27
 10
477908.298
 20
6772017.792
 30
274.000
 70
    32
  0
VERTEX
  8
S4_274RL_BM_V08
 62
27
 10
477907.314
 20
6772015.895
 30
274.000
 70
    32
  0
VERTEX
  8
S4_274RL_BM_V08
 62
27
 10
477892.277
 20
6771976.218
 30
274.000
 70
    32
  0
VERTEX
  8
S4_274RL_BM_V08
 62
27
 10
477888.351
 20
6771965.856
 30
274.000
 70
    32
  0
VERTEX
  8
S4_274RL_BM_V08
 62
27
 10
477848.784
 20
6771981.211
 30
274.000
 70
    32
  0
VERTEX
  8
S4_274RL_BM_V08
 62
27
 10
477874.260
 20
6772033.022
 30
274.000
 70
    32
  0
VERTEX
  8
S4_274RL_BM_V08
 62
27
 10
477888.208
 20
6772056.007
 30
271.312
 70
    32
  0
VERTEX
  8
S4_274RL_BM_V08
 62
27
 10
477895.738
 20
6772068.416
 30
269.860
 70
    32
  0
VERTEX
  8
S4_274RL_BM_V08
 62
27
 10
477903.268
 20
6772080.824
 30
268.409
 70
    32
  0
SEQEND
  8
S4_274RL_BM_V08
  0
POLYLINE
  8
S4_274RL_BM_V08
 62
27
 66
     1
 70
     9
1001
MAPTEK_VULCAN
1000
VulcanName=RAMP_PRECON_3
1000
VulcanGroup=
1000
VulcanValue=0
1000
VulcanDescription=LINE digitising 08-Feb-2024 08:47:36
1000
VulcanPrimitive=
1000
VulcanLine=0
1000
VulcanPattern=10
1000
VulcanFeature=
  0
VERTEX
  8
S4_274RL_BM_V08
 62
27
 10
478252.181
 20
6771766.909
 30
268.000
 70
    32
  0
VERTEX
  8
S4_274RL_BM_V08
 62
27
 10
478259.435
 20
6771794.122
 30
268.000
 70
    32
  0
VERTEX
  8
S4_274RL_BM_V08
 62
27
 10
478263.128
 20
6771808.035
 30
268.000
 70
    32
  0
VERTEX
  8
S4_274RL_BM_V08
 62
27
 10
478265.141
 20
6771815.859
 30
268.000
 70
    32
  0
VERTEX
  8
S4_274RL_BM_V08
 62
27
 10
478266.208
 20
6771819.990
 30
268.000
 70
    32
  0
VERTEX
  8
S4_274RL_BM_V08
 62
27
 10
478266.424
 20
6771820.522
 30
268.000
 70
    32
  0
VERTEX
  8
S4_274RL_BM_V08
 62
27
 10
478266.982
 20
6771821.498
 30
268.000
 70
    32
  0
VERTEX
  8
S4_274RL_BM_V08
 62
27
 10
478267.646
 20
6771822.859
 30
268.000
 70
    32
  0
VERTEX
  8
S4_274RL_BM_V08
 62
27
 10
478233.916
 20
6771838.195
 30
268.000
 70
    32
  0
VERTEX
  8
S4_274RL_BM_V08
 62
27
 10
478231.084
 20
6771839.482
 30
268.000
 70
    32
  0
VERTEX
  8
S4_274RL_BM_V08
 62
27
 10
478227.551
 20
6771831.203
 30
268.000
 70
    32
  0
VERTEX
  8
S4_274RL_BM_V08
 62
27
 10
478205.921
 20
6771775.188
 30
268.000
 70
    32
  0
VERTEX
  8
S4_274RL_BM_V08
 62
27
 10
478205.921
 20
6771775.188
 30
268.000
 70
    32
  0
VERTEX
  8
S4_274RL_BM_V08
 62
27
 10
478200.699
 20
6771757.984
 30
268.000
 70
    32
  0
VERTEX
  8
S4_274RL_BM_V08
 62
27
 10
478239.080
 20
6771741.781
 30
268.000
 70
    32
  0
VERTEX
  8
S4_274RL_BM_V08
 62
27
 10
478248.101
 20
6771738.172
 30
268.000
 70
    32
  0
SEQEND
  8
S4_274RL_BM_V08
  0
TEXT
  8
S4_274RL_BM_V08
 62
27
 10
478266.615
 20
6771764.405
 30
286.000
 40
10.000
  1
Preconditioning
 41
 1.0 
1001
MAPTEK_VULCAN
1000
VulcanName=TEXT$1
1000
VulcanGroup=
1000
VulcanValue=0
1000
VulcanDescription=Unnamed TEXT 08-Feb-2024 09:04:48
1000
VulcanPrimitive=
1000
VulcanLine=0
1000
VulcanPattern=0
1000
VulcanFeature=
  0
TEXT
  8
S4_274RL_BM_V08
 62
27
 10
478266.615
 20
6771749.405
 30
286.000
 40
10.000
  1
ramp to 268RL
 41
 1.0 
1001
MAPTEK_VULCAN
1000
VulcanName=TEXT$1
1000
VulcanGroup=
1000
VulcanValue=0
1000
VulcanDescription=Unnamed TEXT 08-Feb-2024 09:04:48
1000
VulcanPrimitive=
1000
VulcanLine=0
1000
VulcanPattern=0
1000
VulcanFeature=
  0
POLYLINE
  8
S4_274RL_BM_V08
 62
4
 66
     1
 70
     9
1001
MAPTEK_VULCAN
1000
VulcanName=HAZ_ZONE_POLYGON
1000
VulcanGroup=
1000
VulcanValue=0
1000
VulcanDescription=LINE digitising 23-Apr-2024 05:29:21
1000
VulcanPrimitive=
1000
VulcanLine=20
1000
VulcanPattern=0
1000
VulcanFeature=
  0
VERTEX
  8
S4_274RL_BM_V08
 62
4
 10
477855.366
 20
6771754.084
 30
300.000
 70
    32
  0
VERTEX
  8
S4_274RL_BM_V08
 62
4
 10
477842.963
 20
6771752.034
 30
300.000
 70
    32
  0
VERTEX
  8
S4_274RL_BM_V08
 62
4
 10
477832.416
 20
6771718.634
 30
300.000
 70
    32
  0
VERTEX
  8
S4_274RL_BM_V08
 62
4
 10
477913.962
 20
6771739.142
 30
300.000
 70
    32
  0
VERTEX
  8
S4_274RL_BM_V08
 62
4
 10
477968.066
 20
6771743.928
 30
300.000
 70
    32
  0
VERTEX
  8
S4_274RL_BM_V08
 62
4
 10
477968.163
 20
6771767.073
 30
300.000
 70
    32
  0
VERTEX
  8
S4_274RL_BM_V08
 62
4
 10
477915.231
 20
6771764.339
 30
300.000
 70
    32
  0
VERTEX
  8
S4_274RL_BM_V08
 62
4
 10
477898.141
 20
6771762.190
 30
300.000
 70
    32
  0
SEQEND
  8
S4_274RL_BM_V08
  0
TEXT
  8
S4_274RL_BM_V08
 62
4
 10
477875.484
 20
6771747.605
 30
300.000
 40
2.500
  1
BLOCK MOVEMENT
 41
 1.0 
1001
MAPTEK_VULCAN
1000
VulcanName=TEXT$5
1000
VulcanGroup=
1000
VulcanValue=0
1000
VulcanDescription=Unnamed TEXT 23-Apr-2024 05:31:59
1000
VulcanPrimitive=
1000
VulcanLine=0
1000
VulcanPattern=0
1000
VulcanFeature=
  0
POLYLINE
  8
S4_274RL_BM_V08
 62
116
 66
     1
 70
     8
1001
MAPTEK_VULCAN
1000
VulcanName=LINE$28
1000
VulcanGroup=
1000
VulcanValue=0
1000
VulcanDescription=POLYLINE transferred from DXF
1000
VulcanPrimitive=
1000
VulcanLine=30
1000
VulcanPattern=0
1000
VulcanFeature=
  0
VERTEX
  8
S4_274RL_BM_V08
 62
116
 10
478272.567
 20
6771831.518
 30
274.946
 70
    32
  0
VERTEX
  8
S4_274RL_BM_V08
 62
116
 10
478267.646
 20
6771822.859
 30
274.000
 70
    32
  0
VERTEX
  8
S4_274RL_BM_V08
 62
116
 10
478266.982
 20
6771821.498
 30
273.922
 70
    32
  0
VERTEX
  8
S4_274RL_BM_V08
 62
116
 10
478266.424
 20
6771820.522
 30
273.810
 70
    32
  0
VERTEX
  8
S4_274RL_BM_V08
 62
116
 10
478266.208
 20
6771819.990
 30
273.754
 70
    32
  0
VERTEX
  8
S4_274RL_BM_V08
 62
116
 10
478265.141
 20
6771815.859
 30
273.326
 70
    32
  0
VERTEX
  8
S4_274RL_BM_V08
 62
116
 10
478263.128
 20
6771808.035
 30
272.532
 70
    32
  0
VERTEX
  8
S4_274RL_BM_V08
 62
116
 10
478259.435
 20
6771794.122
 30
271.106
 70
    32
  0
VERTEX
  8
S4_274RL_BM_V08
 62
116
 10
478255.769
 20
6771780.339
 30
269.680
 70
    32
  0
VERTEX
  8
S4_274RL_BM_V08
 62
116
 10
478252.181
 20
6771766.909
 30
268.145
 70
    32
  0
VERTEX
  8
S4_274RL_BM_V08
 62
116
 10
478214.947
 20
6771771.371
 30
268.000
 70
    32
  0
VERTEX
  8
S4_274RL_BM_V08
 62
116
 10
478215.836
 20
6771774.131
 30
268.290
 70
    32
  0
VERTEX
  8
S4_274RL_BM_V08
 62
116
 10
478219.506
 20
6771787.946
 30
269.680
 70
    32
  0
VERTEX
  8
S4_274RL_BM_V08
 62
116
 10
478223.172
 20
6771801.729
 30
271.106
 70
    32
  0
VERTEX
  8
S4_274RL_BM_V08
 62
116
 10
478226.837
 20
6771815.509
 30
272.532
 70
    32
  0
VERTEX
  8
S4_274RL_BM_V08
 62
116
 10
478228.823
 20
6771823.200
 30
273.326
 70
    32
  0
VERTEX
  8
S4_274RL_BM_V08
 62
116
 10
478230.381
 20
6771829.760
 30
273.754
 70
    32
  0
VERTEX
  8
S4_274RL_BM_V08
 62
116
 10
478232.217
 20
6771834.977
 30
273.810
 70
    32
  0
VERTEX
  8
S4_274RL_BM_V08
 62
116
 10
478233.558
 20
6771837.506
 30
273.922
 70
    32
  0
VERTEX
  8
S4_274RL_BM_V08
 62
116
 10
478233.916
 20
6771838.195
 30
274.000
 70
    32
  0
VERTEX
  8
S4_274RL_BM_V08
 62
116
 10
478238.369
 20
6771846.654
 30
274.956
 70
    32
  0
SEQEND
  8
S4_274RL_BM_V08
  0
TEXT
  8
S4_274RL_BM_V08
 62
4
 10
477865.067
 20
6771722.400
 30
300.000
 40
2.500
  1
When designing 152 shot add hazard poly to Drill files
 41
 1.0 
1001
MAPTEK_VULCAN
1000
VulcanName=HAZ_ZONE_POLYGON
1000
VulcanGroup=
1000
VulcanValue=0
1000
VulcanDescription=Unnamed TEXT 23-Apr-2024 05:31:00
1000
VulcanPrimitive=
1000
VulcanLine=0
1000
VulcanPattern=0
1000
VulcanFeature=
  0
POLYLINE
  8
S4_274RL_BM_V08
 62
16
 66
     1
 70
     9
1001
MAPTEK_VULCAN
1000
VulcanName=PRESPLITS_262RL_1
1000
VulcanGroup=
1000
VulcanValue=0
1000
VulcanDescription=LINE digitising 20-May-2024 15:47:28
1000
VulcanPrimitive=
1000
VulcanLine=4
1000
VulcanPattern=10
1000
VulcanFeature=
  0
VERTEX
  8
S4_274RL_BM_V08
 62
16
 10
478362.620
 20
6772310.233
 30
262.000
 70
    32
  0
VERTEX
  8
S4_274RL_BM_V08
 62
16
 10
478354.262
 20
6772321.960
 30
262.000
 70
    32
  0
VERTEX
  8
S4_274RL_BM_V08
 62
16
 10
478352.425
 20
6772322.488
 30
262.000
 70
    32
  0
VERTEX
  8
S4_274RL_BM_V08
 62
16
 10
478339.008
 20
6772313.409
 30
262.000
 70
    32
  0
VERTEX
  8
S4_274RL_BM_V08
 62
16
 10
478337.491
 20
6772312.461
 30
262.000
 70
    32
  0
VERTEX
  8
S4_274RL_BM_V08
 62
16
 10
478335.872
 20
6772311.676
 30
262.000
 70
    32
  0
VERTEX
  8
S4_274RL_BM_V08
 62
16
 10
478327.632
 20
6772308.075
 30
262.000
 70
    32
  0
VERTEX
  8
S4_274RL_BM_V08
 62
16
 10
478325.984
 20
6772307.351
 30
262.000
 70
    32
  0
VERTEX
  8
S4_274RL_BM_V08
 62
16
 10
478305.595
 20
6772300.218
 30
262.000
 70
    32
  0
VERTEX
  8
S4_274RL_BM_V08
 62
16
 10
478283.663
 20
6772292.058
 30
262.000
 70
    32
  0
VERTEX
  8
S4_274RL_BM_V08
 62
16
 10
478282.285
 20
6772291.546
 30
262.000
 70
    32
  0
VERTEX
  8
S4_274RL_BM_V08
 62
16
 10
478280.297
 20
6772290.815
 30
262.000
 70
    32
  0
VERTEX
  8
S4_274RL_BM_V08
 62
16
 10
478278.536
 20
6772290.445
 30
262.000
 70
    32
  0
VERTEX
  8
S4_274RL_BM_V08
 62
16
 10
478222.164
 20
6772278.614
 30
262.000
 70
    32
  0
VERTEX
  8
S4_274RL_BM_V08
 62
16
 10
478178.194
 20
6772269.039
 30
262.000
 70
    32
  0
VERTEX
  8
S4_274RL_BM_V08
 62
16
 10
478176.435
 20
6772268.655
 30
262.000
 70
    32
  0
VERTEX
  8
S4_274RL_BM_V08
 62
16
 10
478174.668
 20
6772268.341
 30
262.000
 70
    32
  0
VERTEX
  8
S4_274RL_BM_V08
 62
16
 10
478172.889
 20
6772268.065
 30
262.000
 70
    32
  0
VERTEX
  8
S4_274RL_BM_V08
 62
16
 10
478108.743
 20
6772258.907
 30
262.000
 70
    32
  0
VERTEX
  8
S4_274RL_BM_V08
 62
16
 10
478106.979
 20
6772258.491
 30
262.000
 70
    32
  0
VERTEX
  8
S4_274RL_BM_V08
 62
16
 10
478105.258
 20
6772257.963
 30
262.000
 70
    32
  0
VERTEX
  8
S4_274RL_BM_V08
 62
16
 10
478065.683
 20
6772245.815
 30
262.000
 70
    32
  0
VERTEX
  8
S4_274RL_BM_V08
 62
16
 10
478062.262
 20
6772244.693
 30
262.000
 70
    32
  0
VERTEX
  8
S4_274RL_BM_V08
 62
16
 10
478060.579
 20
6772244.003
 30
262.000
 70
    32
  0
VERTEX
  8
S4_274RL_BM_V08
 62
16
 10
478059.050
 20
6772243.052
 30
262.000
 70
    32
  0
VERTEX
  8
S4_274RL_BM_V08
 62
16
 10
478000.721
 20
6772204.011
 30
262.000
 70
    32
  0
VERTEX
  8
S4_274RL_BM_V08
 62
16
 10
477999.296
 20
6772202.902
 30
262.000
 70
    32
  0
VERTEX
  8
S4_274RL_BM_V08
 62
16
 10
477997.999
 20
6772201.654
 30
262.000
 70
    32
  0
VERTEX
  8
S4_274RL_BM_V08
 62
16
 10
477985.163
 20
6772189.033
 30
262.000
 70
    32
  0
VERTEX
  8
S4_274RL_BM_V08
 62
16
 10
477977.656
 20
6772181.268
 30
262.000
 70
    32
  0
VERTEX
  8
S4_274RL_BM_V08
 62
16
 10
477962.551
 20
6772165.830
 30
262.000
 70
    32
  0
VERTEX
  8
S4_274RL_BM_V08
 62
16
 10
477961.445
 20
6772164.392
 30
262.000
 70
    32
  0
VERTEX
  8
S4_274RL_BM_V08
 62
16
 10
477945.029
 20
6772140.729
 30
262.000
 70
    32
  0
VERTEX
  8
S4_274RL_BM_V08
 62
16
 10
477943.519
 20
6772138.699
 30
262.000
 70
    32
  0
VERTEX
  8
S4_274RL_BM_V08
 62
16
 10
477920.050
 20
6772109.067
 30
262.000
 70
    32
  0
VERTEX
  8
S4_274RL_BM_V08
 62
16
 10
477919.003
 20
6772107.603
 30
262.000
 70
    32
  0
VERTEX
  8
S4_274RL_BM_V08
 62
16
 10
477906.296
 20
6772085.843
 30
262.000
 70
    32
  0
VERTEX
  8
S4_274RL_BM_V08
 62
16
 10
477905.375
 20
6772084.296
 30
262.000
 70
    32
  0
VERTEX
  8
S4_274RL_BM_V08
 62
16
 10
477874.559
 20
6772033.515
 30
262.000
 70
    32
  0
VERTEX
  8
S4_274RL_BM_V08
 62
16
 10
477873.784
 20
6772031.890
 30
262.000
 70
    32
  0
VERTEX
  8
S4_274RL_BM_V08
 62
16
 10
477855.907
 20
6771992.564
 30
262.000
 70
    32
  0
VERTEX
  8
S4_274RL_BM_V08
 62
16
 10
477853.992
 20
6771993.440
 30
262.000
 70
    32
  0
VERTEX
  8
S4_274RL_BM_V08
 62
16
 10
477865.282
 20
6772019.946
 30
262.000
 70
    32
  0
VERTEX
  8
S4_274RL_BM_V08
 62
16
 10
477870.834
 20
6772033.130
 30
262.000
 70
    32
  0
VERTEX
  8
S4_274RL_BM_V08
 62
16
 10
477871.797
 20
6772035.191
 30
262.000
 70
    32
  0
VERTEX
  8
S4_274RL_BM_V08
 62
16
 10
477889.648
 20
6772066.468
 30
262.000
 70
    32
  0
VERTEX
  8
S4_274RL_BM_V08
 62
16
 10
477914.268
 20
6772110.306
 30
262.000
 70
    32
  0
VERTEX
  8
S4_274RL_BM_V08
 62
16
 10
477915.744
 20
6772112.478
 30
262.000
 70
    32
  0
VERTEX
  8
S4_274RL_BM_V08
 62
16
 10
477916.828
 20
6772113.916
 30
262.000
 70
    32
  0
VERTEX
  8
S4_274RL_BM_V08
 62
16
 10
477938.503
 20
6772142.672
 30
262.000
 70
    32
  0
VERTEX
  8
S4_274RL_BM_V08
 62
16
 10
477939.746
 20
6772144.394
 30
262.000
 70
    32
  0
VERTEX
  8
S4_274RL_BM_V08
 62
16
 10
477956.161
 20
6772168.058
 30
262.000
 70
    32
  0
VERTEX
  8
S4_274RL_BM_V08
 62
16
 10
477957.972
 20
6772170.345
 30
262.000
 70
    32
  0
VERTEX
  8
S4_274RL_BM_V08
 62
16
 10
477994.837
 20
6772207.536
 30
262.000
 70
    32
  0
VERTEX
  8
S4_274RL_BM_V08
 62
16
 10
477997.002
 20
6772209.356
 30
262.000
 70
    32
  0
VERTEX
  8
S4_274RL_BM_V08
 62
16
 10
478023.742
 20
6772227.825
 30
262.000
 70
    32
  0
VERTEX
  8
S4_274RL_BM_V08
 62
16
 10
478057.182
 20
6772249.464
 30
262.000
 70
    32
  0
VERTEX
  8
S4_274RL_BM_V08
 62
16
 10
478060.259
 20
6772250.804
 30
262.000
 70
    32
  0
VERTEX
  8
S4_274RL_BM_V08
 62
16
 10
478105.094
 20
6772264.639
 30
262.000
 70
    32
  0
VERTEX
  8
S4_274RL_BM_V08
 62
16
 10
478107.786
 20
6772265.266
 30
262.000
 70
    32
  0
VERTEX
  8
S4_274RL_BM_V08
 62
16
 10
478173.680
 20
6772274.696
 30
262.000
 70
    32
  0
VERTEX
  8
S4_274RL_BM_V08
 62
16
 10
478175.062
 20
6772274.937
 30
262.000
 70
    32
  0
VERTEX
  8
S4_274RL_BM_V08
 62
16
 10
478220.843
 20
6772284.908
 30
262.000
 70
    32
  0
VERTEX
  8
S4_274RL_BM_V08
 62
16
 10
478277.215
 20
6772296.739
 30
262.000
 70
    32
  0
VERTEX
  8
S4_274RL_BM_V08
 62
16
 10
478278.976
 20
6772297.109
 30
262.000
 70
    32
  0
VERTEX
  8
S4_274RL_BM_V08
 62
16
 10
478280.040
 20
6772297.572
 30
262.000
 70
    32
  0
VERTEX
  8
S4_274RL_BM_V08
 62
16
 10
478303.429
 20
6772306.273
 30
262.000
 70
    32
  0
VERTEX
  8
S4_274RL_BM_V08
 62
16
 10
478322.128
 20
6772312.898
 30
262.000
 70
    32
  0
VERTEX
  8
S4_274RL_BM_V08
 62
16
 10
478323.827
 20
6772313.494
 30
262.000
 70
    32
  0
VERTEX
  8
S4_274RL_BM_V08
 62
16
 10
478325.170
 20
6772314.016
 30
262.000
 70
    32
  0
VERTEX
  8
S4_274RL_BM_V08
 62
16
 10
478334.685
 20
6772318.247
 30
262.000
 70
    32
  0
VERTEX
  8
S4_274RL_BM_V08
 62
16
 10
478335.405
 20
6772318.735
 30
262.000
 70
    32
  0
VERTEX
  8
S4_274RL_BM_V08
 62
16
 10
478353.293
 20
6772330.840
 30
262.000
 70
    32
  0
VERTEX
  8
S4_274RL_BM_V08
 62
16
 10
478355.006
 20
6772332.000
 30
262.000
 70
    32
  0
VERTEX
  8
S4_274RL_BM_V08
 62
16
 10
478367.857
 20
6772313.965
 30
262.000
 70
    32
  0
SEQEND
  8
S4_274RL_BM_V08
  0
TEXT
  8
S4_274RL_BM_V08
 62
16
 10
478006.200
 20
6772342.134
 30
262.000
 40
10.000
  1
PRESPLITS on 262RL
 41
 1.0 
1001
MAPTEK_VULCAN
1000
VulcanName=TEXT$2
1000
VulcanGroup=
1000
VulcanValue=0
1000
VulcanDescription=Unnamed TEXT 20-May-2024 18:29:20
1000
VulcanPrimitive=
1000
VulcanLine=0
1000
VulcanPattern=0
1000
VulcanFeature=
  0
TEXT
  8
S4_274RL_BM_V08
 62
16
 10
478006.200
 20
6772327.134
 30
262.000
 40
10.000
  1
CONSIDER the position and
 41
 1.0 
1001
MAPTEK_VULCAN
1000
VulcanName=TEXT$2
1000
VulcanGroup=
1000
VulcanValue=0
1000
VulcanDescription=Unnamed TEXT 20-May-2024 18:29:20
1000
VulcanPrimitive=
1000
VulcanLine=0
1000
VulcanPattern=0
1000
VulcanFeature=
  0
TEXT
  8
S4_274RL_BM_V08
 62
16
 10
478006.200
 20
6772312.134
 30
262.000
 40
10.000
  1
sequencing of blast adjacent blasts
 41
 1.0 
1001
MAPTEK_VULCAN
1000
VulcanName=TEXT$2
1000
VulcanGroup=
1000
VulcanValue=0
1000
VulcanDescription=Unnamed TEXT 20-May-2024 18:29:20
1000
VulcanPrimitive=
1000
VulcanLine=0
1000
VulcanPattern=0
1000
VulcanFeature=
  0
TEXT
  8
S4_274RL_BM_V08
 62
16
 10
478006.200
 20
6772297.134
 30
262.000
 40
10.000
  1
and the area that require presplit
 41
 1.0 
1001
MAPTEK_VULCAN
1000
VulcanName=TEXT$2
1000
VulcanGroup=
1000
VulcanValue=0
1000
VulcanDescription=Unnamed TEXT 20-May-2024 18:29:20
1000
VulcanPrimitive=
1000
VulcanLine=0
1000
VulcanPattern=0
1000
VulcanFeature=
  0
TEXT
  8
S4_274RL_BM_V08
 62
16
 10
478006.200
 20
6772282.134
 30
262.000
 40
10.000
  1
blasting before trims can be fired.
 41
 1.0 
1001
MAPTEK_VULCAN
1000
VulcanName=TEXT$2
1000
VulcanGroup=
1000
VulcanValue=0
1000
VulcanDescription=Unnamed TEXT 20-May-2024 18:29:20
1000
VulcanPrimitive=
1000
VulcanLine=0
1000
VulcanPattern=0
1000
VulcanFeature=
  0
POLYLINE
  8
S4_274RL_BM_V08
 62
1
 66
     1
 70
     9
1001
MAPTEK_VULCAN
1000
VulcanName=S4_274_173
1000
VulcanGroup=
1000
VulcanValue=0
1000
VulcanDescription=35709.7 BCM, 279HOLES - 2511 METERS, BxS = 4m x 4m @ stem = 2.8m
1000
VulcanPrimitive=
1000
VulcanLine=40
1000
VulcanPattern=0
1000
VulcanFeature=
  0
VERTEX
  8
S4_274RL_BM_V08
 62
1
 10
478006.105
 20
6771802.121
 30
274.000
 70
    32
  0
VERTEX
  8
S4_274RL_BM_V08
 62
1
 10
477996.217
 20
6771782.241
 30
274.000
 70
    32
  0
VERTEX
  8
S4_274RL_BM_V08
 62
1
 10
477997.522
 20
6771753.716
 30
274.000
 70
    32
  0
VERTEX
  8
S4_274RL_BM_V08
 62
1
 10
478020.931
 20
6771754.133
 30
274.000
 70
    32
  0
VERTEX
  8
S4_274RL_BM_V08
 62
1
 10
478088.948
 20
6771752.149
 30
274.000
 70
    32
  0
VERTEX
  8
S4_274RL_BM_V08
 62
1
 10
478097.580
 20
6771753.634
 30
274.000
 70
    32
  0
VERTEX
  8
S4_274RL_BM_V08
 62
1
 10
478100.080
 20
6771763.774
 30
274.000
 70
    32
  0
VERTEX
  8
S4_274RL_BM_V08
 62
1
 10
478098.323
 20
6771785.281
 30
274.000
 70
    32
  0
VERTEX
  8
S4_274RL_BM_V08
 62
1
 10
478042.910
 20
6771802.476
 30
274.000
 70
    32
  0
VERTEX
  8
S4_274RL_BM_V08
 62
1
 10
478040.560
 20
6771803.700
 30
274.000
 70
    32
  0
SEQEND
  8
S4_274RL_BM_V08
  0
POLYLINE
  8
S4_274RL_BM_V08
 62
1
 66
     1
 70
     9
1001
MAPTEK_VULCAN
1000
VulcanName=S4_274_151
1000
VulcanGroup=
1000
VulcanValue=0
1000
VulcanDescription=133269.5 BCM, 438HOLES - 5951 METERS, BxS = 4.7m x 5.4m @ stem = 3.1m
1000
VulcanPrimitive=
1000
VulcanLine=40
1000
VulcanPattern=0
1000
VulcanFeature=
  0
VERTEX
  8
S4_274RL_BM_V08
 62
1
 10
478168.739
 20
6771792.730
 30
274.000
 70
    32
  0
VERTEX
  8
S4_274RL_BM_V08
 62
1
 10
478187.127
 20
6771859.469
 30
274.000
 70
    32
  0
VERTEX
  8
S4_274RL_BM_V08
 62
1
 10
478096.157
 20
6771905.838
 30
274.000
 70
    32
  0
VERTEX
  8
S4_274RL_BM_V08
 62
1
 10
478075.187
 20
6771865.126
 30
274.000
 70
    32
  0
VERTEX
  8
S4_274RL_BM_V08
 62
1
 10
478042.910
 20
6771802.476
 30
274.000
 70
    32
  0
VERTEX
  8
S4_274RL_BM_V08
 62
1
 10
478098.323
 20
6771785.281
 30
274.000
 70
    32
  0
VERTEX
  8
S4_274RL_BM_V08
 62
1
 10
478103.080
 20
6771787.928
 30
274.000
 70
    32
  0
VERTEX
  8
S4_274RL_BM_V08
 62
1
 10
478118.580
 20
6771790.128
 30
274.000
 70
    32
  0
VERTEX
  8
S4_274RL_BM_V08
 62
1
 10
478135.080
 20
6771790.382
 30
274.000
 70
    32
  0
VERTEX
  8
S4_274RL_BM_V08
 62
1
 10
478154.580
 20
6771785.962
 30
274.000
 70
    32
  0
VERTEX
  8
S4_274RL_BM_V08
 62
1
 10
478163.963
 20
6771780.855
 30
274.000
 70
    32
  0
SEQEND
  8
S4_274RL_BM_V08
  0
POLYLINE
  8
S4_274RL_BM_V08
 62
1
 66
     1
 70
     9
1001
MAPTEK_VULCAN
1000
VulcanName=S4_274_152
1000
VulcanGroup=
1000
VulcanValue=0
1000
VulcanDescription=181767.4 BCM, 597HOLES - 8117 METERS, BxS = 4.7m x 5.4m @ stem = 3.1m
1000
VulcanPrimitive=
1000
VulcanLine=40
1000
VulcanPattern=0
1000
VulcanFeature=
  0
VERTEX
  8
S4_274RL_BM_V08
 62
1
 10
478067.183
 20
6771855.381
 30
274.000
 70
    32
  0
VERTEX
  8
S4_274RL_BM_V08
 62
1
 10
478069.534
 20
6771854.157
 30
274.000
 70
    32
  0
VERTEX
  8
S4_274RL_BM_V08
 62
1
 10
478042.910
 20
6771802.476
 30
274.000
 70
    32
  0
VERTEX
  8
S4_274RL_BM_V08
 62
1
 10
478040.560
 20
6771803.700
 30
274.000
 70
    32
  0
VERTEX
  8
S4_274RL_BM_V08
 62
1
 10
478006.105
 20
6771802.121
 30
274.000
 70
    32
  0
VERTEX
  8
S4_274RL_BM_V08
 62
1
 10
477996.217
 20
6771782.241
 30
274.000
 70
    32
  0
VERTEX
  8
S4_274RL_BM_V08
 62
1
 10
477997.522
 20
6771753.716
 30
274.000
 70
    32
  0
VERTEX
  8
S4_274RL_BM_V08
 62
1
 10
477980.266
 20
6771753.410
 30
274.000
 70
    32
  0
VERTEX
  8
S4_274RL_BM_V08
 62
1
 10
477980.266
 20
6771753.410
 30
274.000
 70
    32
  0
VERTEX
  8
S4_274RL_BM_V08
 62
1
 10
477931.080
 20
6771751.687
 30
274.000
 70
    32
  0
VERTEX
  8
S4_274RL_BM_V08
 62
1
 10
477852.300
 20
6771733.016
 30
274.000
 70
    32
  0
VERTEX
  8
S4_274RL_BM_V08
 62
1
 10
477846.102
 20
6771731.391
 30
274.000
 70
    32
  0
VERTEX
  8
S4_274RL_BM_V08
 62
1
 10
477887.561
 20
6771811.871
 30
274.000
 70
    32
  0
VERTEX
  8
S4_274RL_BM_V08
 62
1
 10
477903.703
 20
6771847.888
 30
274.000
 70
    32
  0
SEQEND
  8
S4_274RL_BM_V08
  0
POLYLINE
  8
S4_274RL_BM_V08
 62
1
 66
     1
 70
     9
1001
MAPTEK_VULCAN
1000
VulcanName=S4_274_153
1000
VulcanGroup=
1000
VulcanValue=0
1000
VulcanDescription=101166.9 BCM, 332HOLES - 4518 METERS, BxS = 4.7m x 5.4m @ stem = 3.1m
1000
VulcanPrimitive=
1000
VulcanLine=40
1000
VulcanPattern=0
1000
VulcanFeature=
  0
VERTEX
  8
S4_274RL_BM_V08
 62
1
 10
478093.806
 20
6771907.062
 30
274.000
 70
    32
  0
VERTEX
  8
S4_274RL_BM_V08
 62
1
 10
478096.157
 20
6771905.838
 30
274.000
 70
    32
  0
VERTEX
  8
S4_274RL_BM_V08
 62
1
 10
478069.534
 20
6771854.157
 30
274.000
 70
    32
  0
VERTEX
  8
S4_274RL_BM_V08
 62
1
 10
478067.183
 20
6771855.381
 30
274.000
 70
    32
  0
VERTEX
  8
S4_274RL_BM_V08
 62
1
 10
477903.703
 20
6771847.888
 30
274.000
 70
    32
  0
VERTEX
  8
S4_274RL_BM_V08
 62
1
 10
477908.604
 20
6771858.824
 30
274.000
 70
    32
  0
VERTEX
  8
S4_274RL_BM_V08
 62
1
 10
477929.918
 20
6771899.552
 30
274.000
 70
    32
  0
SEQEND
  8
S4_274RL_BM_V08
  0
POLYLINE
  8
S4_274RL_BM_V08
 62
1
 66
     1
 70
     9
1001
MAPTEK_VULCAN
1000
VulcanName=S4_274_156
1000
VulcanGroup=
1000
VulcanValue=0
1000
VulcanDescription=128104.5 BCM, 421HOLES - 5720 METERS, BxS = 4.7m x 5.4m @ stem = 3.1m
1000
VulcanPrimitive=
1000
VulcanLine=40
1000
VulcanPattern=0
1000
VulcanFeature=
  0
VERTEX
  8
S4_274RL_BM_V08
 62
1
 10
478126.081
 20
6771969.713
 30
274.000
 70
    32
  0
VERTEX
  8
S4_274RL_BM_V08
 62
1
 10
478128.432
 20
6771968.490
 30
274.000
 70
    32
  0
VERTEX
  8
S4_274RL_BM_V08
 62
1
 10
478096.157
 20
6771905.838
 30
274.000
 70
    32
  0
VERTEX
  8
S4_274RL_BM_V08
 62
1
 10
478093.806
 20
6771907.062
 30
274.000
 70
    32
  0
VERTEX
  8
S4_274RL_BM_V08
 62
1
 10
477929.918
 20
6771899.552
 30
274.000
 70
    32
  0
VERTEX
  8
S4_274RL_BM_V08
 62
1
 10
477927.206
 20
6771903.787
 30
274.000
 70
    32
  0
VERTEX
  8
S4_274RL_BM_V08
 62
1
 10
477951.290
 20
6771961.705
 30
274.000
 70
    32
  0
SEQEND
  8
S4_274RL_BM_V08
  0
POLYLINE
  8
S4_274RL_BM_V08
 62
1
 66
     1
 70
     9
1001
MAPTEK_VULCAN
1000
VulcanName=S4_274_157
1000
VulcanGroup=
1000
VulcanValue=0
1000
VulcanDescription=132274.5 BCM, 434HOLES - 5907 METERS, BxS = 4.7m x 5.4m @ stem = 3.1m
1000
VulcanPrimitive=
1000
VulcanLine=40
1000
VulcanPattern=0
1000
VulcanFeature=
  0
VERTEX
  8
S4_274RL_BM_V08
 62
1
 10
478158.361
 20
6772032.362
 30
274.000
 70
    32
  0
VERTEX
  8
S4_274RL_BM_V08
 62
1
 10
478160.711
 20
6772031.138
 30
274.000
 70
    32
  0
VERTEX
  8
S4_274RL_BM_V08
 62
1
 10
478128.437
 20
6771968.487
 30
274.000
 70
    32
  0
VERTEX
  8
S4_274RL_BM_V08
 62
1
 10
478126.086
 20
6771969.711
 30
274.000
 70
    32
  0
VERTEX
  8
S4_274RL_BM_V08
 62
1
 10
477951.290
 20
6771961.705
 30
274.000
 70
    32
  0
VERTEX
  8
S4_274RL_BM_V08
 62
1
 10
477964.140
 20
6771992.608
 30
274.000
 70
    32
  0
VERTEX
  8
S4_274RL_BM_V08
 62
1
 10
477977.573
 20
6772018.685
 30
274.000
 70
    32
  0
VERTEX
  8
S4_274RL_BM_V08
 62
1
 10
477981.081
 20
6772024.248
 30
274.000
 70
    32
  0
SEQEND
  8
S4_274RL_BM_V08
  0
POLYLINE
  8
S4_274RL_BM_V08
 62
1
 66
     1
 70
     9
1001
MAPTEK_VULCAN
1000
VulcanName=S4_274_158
1000
VulcanGroup=
1000
VulcanValue=0
1000
VulcanDescription=156671.5 BCM, 514HOLES - 6996 METERS, BxS = 4.7m x 5.4m @ stem = 3.1m
1000
VulcanPrimitive=
1000
VulcanLine=40
1000
VulcanPattern=0
1000
VulcanFeature=
  0
VERTEX
  8
S4_274RL_BM_V08
 62
1
 10
478250.696
 20
6772158.904
 30
274.000
 70
    32
  0
VERTEX
  8
S4_274RL_BM_V08
 62
1
 10
478225.945
 20
6772157.771
 30
274.000
 70
    32
  0
VERTEX
  8
S4_274RL_BM_V08
 62
1
 10
478204.276
 20
6772115.711
 30
274.000
 70
    32
  0
VERTEX
  8
S4_274RL_BM_V08
 62
1
 10
478172.009
 20
6772053.081
 30
274.000
 70
    32
  0
VERTEX
  8
S4_274RL_BM_V08
 62
1
 10
478160.711
 20
6772031.138
 30
274.000
 70
    32
  0
VERTEX
  8
S4_274RL_BM_V08
 62
1
 10
478244.719
 20
6771987.857
 30
274.000
 70
    32
  0
VERTEX
  8
S4_274RL_BM_V08
 62
1
 10
478256.017
 20
6772009.800
 30
274.000
 70
    32
  0
VERTEX
  8
S4_274RL_BM_V08
 62
1
 10
478265.488
 20
6772029.872
 30
274.000
 70
    32
  0
VERTEX
  8
S4_274RL_BM_V08
 62
1
 10
478285.728
 20
6772064.202
 30
274.000
 70
    32
  0
VERTEX
  8
S4_274RL_BM_V08
 62
1
 10
478299.686
 20
6772083.080
 30
274.000
 70
    32
  0
SEQEND
  8
S4_274RL_BM_V08
  0
POLYLINE
  8
S4_274RL_BM_V08
 62
1
 66
     1
 70
     9
1001
MAPTEK_VULCAN
1000
VulcanName=S4_274_159
1000
VulcanGroup=
1000
VulcanValue=0
1000
VulcanDescription=129620.9 BCM, 426HOLES - 5788 METERS, BxS = 4.7m x 5.4m @ stem = 3.1m
1000
VulcanPrimitive=
1000
VulcanLine=40
1000
VulcanPattern=0
1000
VulcanFeature=
  0
VERTEX
  8
S4_274RL_BM_V08
 62
1
 10
478190.630
 20
6772095.003
 30
274.000
 70
    32
  0
VERTEX
  8
S4_274RL_BM_V08
 62
1
 10
478192.986
 20
6772093.790
 30
274.000
 70
    32
  0
VERTEX
  8
S4_274RL_BM_V08
 62
1
 10
478160.711
 20
6772031.138
 30
274.000
 70
    32
  0
VERTEX
  8
S4_274RL_BM_V08
 62
1
 10
478158.361
 20
6772032.362
 30
274.000
 70
    32
  0
VERTEX
  8
S4_274RL_BM_V08
 62
1
 10
477981.081
 20
6772024.248
 30
274.000
 70
    32
  0
VERTEX
  8
S4_274RL_BM_V08
 62
1
 10
478020.810
 20
6772087.230
 30
274.000
 70
    32
  0
SEQEND
  8
S4_274RL_BM_V08
  0
POLYLINE
  8
S4_274RL_BM_V08
 62
1
 66
     1
 70
     9
1001
MAPTEK_VULCAN
1000
VulcanName=S4_274_161
1000
VulcanGroup=
1000
VulcanValue=0
1000
VulcanDescription=166556.8 BCM, 547HOLES - 7438 METERS, BxS = 4.7m x 5.4m @ stem = 3.1m
1000
VulcanPrimitive=
1000
VulcanLine=40
1000
VulcanPattern=0
1000
VulcanFeature=
  0
VERTEX
  8
S4_274RL_BM_V08
 62
1
 10
478225.952
 20
6772157.771
 30
274.000
 70
    32
  0
VERTEX
  8
S4_274RL_BM_V08
 62
1
 10
478225.255
 20
6772156.418
 30
274.000
 70
    32
  0
VERTEX
  8
S4_274RL_BM_V08
 62
1
 10
478192.980
 20
6772093.767
 30
274.000
 70
    32
  0
VERTEX
  8
S4_274RL_BM_V08
 62
1
 10
478190.630
 20
6772095.003
 30
274.000
 70
    32
  0
VERTEX
  8
S4_274RL_BM_V08
 62
1
 10
477959.936
 20
6772084.444
 30
274.000
 70
    32
  0
VERTEX
  8
S4_274RL_BM_V08
 62
1
 10
477973.853
 20
6772106.507
 30
274.000
 70
    32
  0
VERTEX
  8
S4_274RL_BM_V08
 62
1
 10
478009.153
 20
6772147.848
 30
274.000
 70
    32
  0
SEQEND
  8
S4_274RL_BM_V08
  0
POLYLINE
  8
S4_274RL_BM_V08
 62
1
 66
     1
 70
     9
1001
MAPTEK_VULCAN
1000
VulcanName=S4_274_162
1000
VulcanGroup=
1000
VulcanValue=0
1000
VulcanDescription=143275.3 BCM, 470HOLES - 6398 METERS, BxS = 4.7m x 5.4m @ stem = 3.1m
1000
VulcanPrimitive=
1000
VulcanLine=40
1000
VulcanPattern=0
1000
VulcanFeature=
  0
VERTEX
  8
S4_274RL_BM_V08
 62
1
 10
478237.250
 20
6772179.714
 30
274.000
 70
    32
  0
VERTEX
  8
S4_274RL_BM_V08
 62
1
 10
478250.696
 20
6772158.904
 30
274.000
 70
    32
  0
VERTEX
  8
S4_274RL_BM_V08
 62
1
 10
478009.153
 20
6772147.848
 30
274.000
 70
    32
  0
VERTEX
  8
S4_274RL_BM_V08
 62
1
 10
478028.191
 20
6772170.145
 30
274.000
 70
    32
  0
VERTEX
  8
S4_274RL_BM_V08
 62
1
 10
478079.606
 20
6772204.529
 30
274.000
 70
    32
  0
VERTEX
  8
S4_274RL_BM_V08
 62
1
 10
478117.618
 20
6772216.182
 30
274.000
 70
    32
  0
VERTEX
  8
S4_274RL_BM_V08
 62
1
 10
478183.828
 20
6772225.672
 30
274.000
 70
    32
  0
VERTEX
  8
S4_274RL_BM_V08
 62
1
 10
478204.620
 20
6772230.217
 30
274.000
 70
    32
  0
SEQEND
  8
S4_274RL_BM_V08
  0
POLYLINE
  8
S4_274RL_BM_V08
 62
1
 66
     1
 70
     9
1001
MAPTEK_VULCAN
1000
VulcanName=S4_274_163
1000
VulcanGroup=
1000
VulcanValue=0
1000
VulcanDescription=143403.3 BCM, 471HOLES - 6404 METERS, BxS = 4.7m x 5.4m @ stem = 3.1m
1000
VulcanPrimitive=
1000
VulcanLine=40
1000
VulcanPattern=0
1000
VulcanFeature=
  0
VERTEX
  8
S4_274RL_BM_V08
 62
1
 10
478287.449
 20
6772247.798
 30
274.000
 70
    32
  0
VERTEX
  8
S4_274RL_BM_V08
 62
1
 10
478204.620
 20
6772230.217
 30
274.000
 70
    32
  0
VERTEX
  8
S4_274RL_BM_V08
 62
1
 10
478299.686
 20
6772083.080
 30
274.000
 70
    32
  0
VERTEX
  8
S4_274RL_BM_V08
 62
1
 10
478356.335
 20
6772141.179
 30
274.000
 70
    32
  0
SEQEND
  8
S4_274RL_BM_V08
  0
POLYLINE
  8
S4_274RL_BM_V08
 62
1
 66
     1
 70
     9
1001
MAPTEK_VULCAN
1000
VulcanName=S4_274_169
1000
VulcanGroup=
1000
VulcanValue=0
1000
VulcanDescription=107403.0 BCM, 353HOLES - 4796 METERS, BxS = 4.7m x 5.4m @ stem = 3.1m
1000
VulcanPrimitive=
1000
VulcanLine=40
1000
VulcanPattern=0
1000
VulcanFeature=
  0
VERTEX
  8
S4_274RL_BM_V08
 62
1
 10
478434.668
 20
6772222.323
 30
274.000
 70
    32
  0
VERTEX
  8
S4_274RL_BM_V08
 62
1
 10
478356.335
 20
6772141.179
 30
274.000
 70
    32
  0
VERTEX
  8
S4_274RL_BM_V08
 62
1
 10
478299.686
 20
6772083.080
 30
274.000
 70
    32
  0
VERTEX
  8
S4_274RL_BM_V08
 62
1
 10
478339.479
 20
6772052.798
 30
274.000
 70
    32
  0
VERTEX
  8
S4_274RL_BM_V08
 62
1
 10
478342.180
 20
6772056.452
 30
274.000
 70
    32
  0
VERTEX
  8
S4_274RL_BM_V08
 62
1
 10
478345.107
 20
6772060.410
 30
274.000
 70
    32
  0
VERTEX
  8
S4_274RL_BM_V08
 62
1
 10
478357.750
 20
6772073.380
 30
274.000
 70
    32
  0
VERTEX
  8
S4_274RL_BM_V08
 62
1
 10
478360.741
 20
6772076.472
 30
274.000
 70
    32
  0
VERTEX
  8
S4_274RL_BM_V08
 62
1
 10
478376.976
 20
6772092.232
 30
274.000
 70
    32
  0
VERTEX
  8
S4_274RL_BM_V08
 62
1
 10
478393.050
 20
6772107.015
 30
274.000
 70
    32
  0
VERTEX
  8
S4_274RL_BM_V08
 62
1
 10
478403.022
 20
6772116.233
 30
274.000
 70
    32
  0
VERTEX
  8
S4_274RL_BM_V08
 62
1
 10
478411.328
 20
6772124.527
 30
274.000
 70
    32
  0
VERTEX
  8
S4_274RL_BM_V08
 62
1
 10
478417.476
 20
6772131.749
 30
274.000
 70
    32
  0
VERTEX
  8
S4_274RL_BM_V08
 62
1
 10
478423.624
 20
6772138.971
 30
274.000
 70
    32
  0
VERTEX
  8
S4_274RL_BM_V08
 62
1
 10
478440.991
 20
6772156.849
 30
274.000
 70
    32
  0
VERTEX
  8
S4_274RL_BM_V08
 62
1
 10
478443.367
 20
6772160.722
 30
274.000
 70
    32
  0
VERTEX
  8
S4_274RL_BM_V08
 62
1
 10
478447.231
 20
6772169.544
 30
274.000
 70
    32
  0
VERTEX
  8
S4_274RL_BM_V08
 62
1
 10
478448.609
 20
6772174.372
 30
274.000
 70
    32
  0
VERTEX
  8
S4_274RL_BM_V08
 62
1
 10
478450.092
 20
6772184.657
 30
274.000
 70
    32
  0
VERTEX
  8
S4_274RL_BM_V08
 62
1
 10
478448.981
 20
6772196.859
 30
274.000
 70
    32
  0
VERTEX
  8
S4_274RL_BM_V08
 62
1
 10
478445.070
 20
6772208.471
 30
274.000
 70
    32
  0
VERTEX
  8
S4_274RL_BM_V08
 62
1
 10
478440.239
 20
6772214.806
 30
274.000
 70
    32
  0
VERTEX
  8
S4_274RL_BM_V08
 62
1
 10
478437.615
 20
6772218.246
 30
274.000
 70
    32
  0
VERTEX
  8
S4_274RL_BM_V08
 62
1
 10
478437.615
 20
6772218.246
 30
274.000
 70
    32
  0
VERTEX
  8
S4_274RL_BM_V08
 62
1
 10
478435.407
 20
6772221.141
 30
274.000
 70
    32
  0
SEQEND
  8
S4_274RL_BM_V08
  0
POLYLINE
  8
S4_274RL_BM_V08
 62
1
 66
     1
 70
     9
1001
MAPTEK_VULCAN
1000
VulcanName=S4_274_164
1000
VulcanGroup=
1000
VulcanValue=0
1000
VulcanDescription=82429.5 BCM, 271HOLES - 3681 METERS, BxS = 4.7m x 5.4m @ stem = 3.1m
1000
VulcanPrimitive=
1000
VulcanLine=40
1000
VulcanPattern=0
1000
VulcanFeature=
  0
VERTEX
  8
S4_274RL_BM_V08
 62
1
 10
478346.777
 20
6772268.561
 30
274.000
 70
    32
  0
VERTEX
  8
S4_274RL_BM_V08
 62
1
 10
478287.449
 20
6772247.798
 30
274.000
 70
    32
  0
VERTEX
  8
S4_274RL_BM_V08
 62
1
 10
478356.335
 20
6772141.179
 30
274.000
 70
    32
  0
VERTEX
  8
S4_274RL_BM_V08
 62
1
 10
478399.913
 20
6772186.321
 30
274.000
 70
    32
  0
SEQEND
  8
S4_274RL_BM_V08
  0
POLYLINE
  8
S4_274RL_BM_V08
 62
1
 66
     1
 70
     9
1001
MAPTEK_VULCAN
1000
VulcanName=S4_274_168
1000
VulcanGroup=
1000
VulcanValue=0
1000
VulcanDescription=50997.2 BCM, 167HOLES - 2277 METERS, BxS = 4.7m x 5.4m @ stem = 3.1m
1000
VulcanPrimitive=
1000
VulcanLine=40
1000
VulcanPattern=0
1000
VulcanFeature=
  0
VERTEX
  8
S4_274RL_BM_V08
 62
1
 10
478346.777
 20
6772268.561
 30
274.000
 70
    32
  0
VERTEX
  8
S4_274RL_BM_V08
 62
1
 10
478399.913
 20
6772186.321
 30
274.000
 70
    32
  0
VERTEX
  8
S4_274RL_BM_V08
 62
1
 10
478434.668
 20
6772222.323
 30
274.000
 70
    32
  0
VERTEX
  8
S4_274RL_BM_V08
 62
1
 10
478411.693
 20
6772259.059
 30
274.000
 70
    32
  0
VERTEX
  8
S4_274RL_BM_V08
 62
1
 10
478395.130
 20
6772285.542
 30
274.000
 70
    32
  0
SEQEND
  8
S4_274RL_BM_V08
  0
POLYLINE
  8
S4_274RL_BM_V08
 62
1
 66
     1
 70
     9
1001
MAPTEK_VULCAN
1000
VulcanName=S4_274_172 (122BL)
1000
VulcanGroup=
1000
VulcanValue=0
1000
VulcanDescription=100329.3 BCM, 329HOLES - 4480 METERS, BxS = 4.7m x 5.4m @ stem = 3.1m
1000
VulcanPrimitive=
1000
VulcanLine=40
1000
VulcanPattern=0
1000
VulcanFeature=
  0
VERTEX
  8
S4_274RL_BM_V08
 62
1
 10
478273.953
 20
6771819.991
 30
274.000
 70
    32
  0
VERTEX
  8
S4_274RL_BM_V08
 62
1
 10
478272.996
 20
6771817.946
 30
274.000
 70
    32
  0
VERTEX
  8
S4_274RL_BM_V08
 62
1
 10
478270.679
 20
6771806.480
 30
274.000
 70
    32
  0
VERTEX
  8
S4_274RL_BM_V08
 62
1
 10
478267.786
 20
6771792.692
 30
274.000
 70
    32
  0
VERTEX
  8
S4_274RL_BM_V08
 62
1
 10
478264.894
 20
6771778.904
 30
274.000
 70
    32
  0
VERTEX
  8
S4_274RL_BM_V08
 62
1
 10
478262.002
 20
6771765.115
 30
274.000
 70
    32
  0
VERTEX
  8
S4_274RL_BM_V08
 62
1
 10
478259.027
 20
6771744.133
 30
274.000
 70
    32
  0
VERTEX
  8
S4_274RL_BM_V08
 62
1
 10
478257.954
 20
6771736.568
 30
274.000
 70
    32
  0
VERTEX
  8
S4_274RL_BM_V08
 62
1
 10
478251.580
 20
6771736.781
 30
274.000
 70
    32
  0
VERTEX
  8
S4_274RL_BM_V08
 62
1
 10
478239.080
 20
6771741.781
 30
274.000
 70
    32
  0
VERTEX
  8
S4_274RL_BM_V08
 62
1
 10
478188.080
 20
6771764.781
 30
274.000
 70
    32
  0
VERTEX
  8
S4_274RL_BM_V08
 62
1
 10
478172.580
 20
6771773.781
 30
274.000
 70
    32
  0
VERTEX
  8
S4_274RL_BM_V08
 62
1
 10
478166.412
 20
6771778.454
 30
274.000
 70
    32
  0
VERTEX
  8
S4_274RL_BM_V08
 62
1
 10
478163.963
 20
6771780.855
 30
274.000
 70
    32
  0
VERTEX
  8
S4_274RL_BM_V08
 62
1
 10
478168.739
 20
6771792.730
 30
274.000
 70
    32
  0
VERTEX
  8
S4_274RL_BM_V08
 62
1
 10
478168.739
 20
6771792.730
 30
274.000
 70
    32
  0
VERTEX
  8
S4_274RL_BM_V08
 62
1
 10
478187.127
 20
6771859.469
 30
274.000
 70
    32
  0
SEQEND
  8
S4_274RL_BM_V08
  0
POLYLINE
  8
S4_274RL_BM_V08
 62
1
 66
     1
 70
     9
1001
MAPTEK_VULCAN
1000
VulcanName=S4_274_167
1000
VulcanGroup=
1000
VulcanValue=0
1000
VulcanDescription=115250.2 BCM, 327HOLES - 4409 METERS, BxS = 5.2m x 6m @ stem = 3.6m
1000
VulcanPrimitive=
1000
VulcanLine=40
1000
VulcanPattern=0
1000
VulcanFeature=
  0
VERTEX
  8
S4_274RL_BM_V08
 62
1
 10
478204.620
 20
6772230.217
 30
274.000
 70
    32
  0
VERTEX
  8
S4_274RL_BM_V08
 62
1
 10
478188.606
 20
6772277.897
 30
274.000
 70
    32
  0
VERTEX
  8
S4_274RL_BM_V08
 62
1
 10
478202.761
 20
6772280.991
 30
274.000
 70
    32
  0
VERTEX
  8
S4_274RL_BM_V08
 62
1
 10
478216.942
 20
6772284.089
 30
274.000
 70
    32
  0
VERTEX
  8
S4_274RL_BM_V08
 62
1
 10
478229.383
 20
6772286.701
 30
274.000
 70
    32
  0
VERTEX
  8
S4_274RL_BM_V08
 62
1
 10
478241.798
 20
6772289.306
 30
274.000
 70
    32
  0
VERTEX
  8
S4_274RL_BM_V08
 62
1
 10
478254.213
 20
6772291.912
 30
274.000
 70
    32
  0
VERTEX
  8
S4_274RL_BM_V08
 62
1
 10
478266.628
 20
6772294.517
 30
274.000
 70
    32
  0
VERTEX
  8
S4_274RL_BM_V08
 62
1
 10
478278.571
 20
6772297.024
 30
274.000
 70
    32
  0
VERTEX
  8
S4_274RL_BM_V08
 62
1
 10
478290.505
 20
6772301.467
 30
274.000
 70
    32
  0
VERTEX
  8
S4_274RL_BM_V08
 62
1
 10
478302.929
 20
6772306.094
 30
274.000
 70
    32
  0
VERTEX
  8
S4_274RL_BM_V08
 62
1
 10
478312.343
 20
6772309.461
 30
274.000
 70
    32
  0
VERTEX
  8
S4_274RL_BM_V08
 62
1
 10
478324.370
 20
6772313.685
 30
274.000
 70
    32
  0
VERTEX
  8
S4_274RL_BM_V08
 62
1
 10
478330.602
 20
6772316.267
 30
274.000
 70
    32
  0
VERTEX
  8
S4_274RL_BM_V08
 62
1
 10
478334.679
 20
6772318.245
 30
274.000
 70
    32
  0
VERTEX
  8
S4_274RL_BM_V08
 62
1
 10
478343.922
 20
6772324.498
 30
274.000
 70
    32
  0
VERTEX
  8
S4_274RL_BM_V08
 62
1
 10
478355.006
 20
6772332.000
 30
274.000
 70
    32
  0
VERTEX
  8
S4_274RL_BM_V08
 62
1
 10
478360.065
 20
6772324.898
 30
274.000
 70
    32
  0
VERTEX
  8
S4_274RL_BM_V08
 62
1
 10
478366.924
 20
6772315.274
 30
274.000
 70
    32
  0
VERTEX
  8
S4_274RL_BM_V08
 62
1
 10
478378.087
 20
6772312.404
 30
274.000
 70
    32
  0
VERTEX
  8
S4_274RL_BM_V08
 62
1
 10
478380.073
 20
6772309.617
 30
274.000
 70
    32
  0
VERTEX
  8
S4_274RL_BM_V08
 62
1
 10
478387.978
 20
6772296.978
 30
274.000
 70
    32
  0
VERTEX
  8
S4_274RL_BM_V08
 62
1
 10
478395.130
 20
6772285.542
 30
274.000
 70
    32
  0
VERTEX
  8
S4_274RL_BM_V08
 62
1
 10
478346.777
 20
6772268.561
 30
274.000
 70
    32
  0
VERTEX
  8
S4_274RL_BM_V08
 62
1
 10
478287.449
 20
6772247.798
 30
274.000
 70
    32
  0
SEQEND
  8
S4_274RL_BM_V08
  0
POLYLINE
  8
S4_274RL_BM_V08
 62
1
 66
     1
 70
     9
1001
MAPTEK_VULCAN
1000
VulcanName=S4_274_166
1000
VulcanGroup=
1000
VulcanValue=0
1000
VulcanDescription=119678.7 BCM, 339HOLES - 4578 METERS, BxS = 5.2m x 6m @ stem = 3.6m
1000
VulcanPrimitive=
1000
VulcanLine=40
1000
VulcanPattern=0
1000
VulcanFeature=
  0
VERTEX
  8
S4_274RL_BM_V08
 62
1
 10
478028.191
 20
6772170.145
 30
274.000
 70
    32
  0
VERTEX
  8
S4_274RL_BM_V08
 62
1
 10
477996.016
 20
6772208.670
 30
274.000
 70
    32
  0
VERTEX
  8
S4_274RL_BM_V08
 62
1
 10
478008.630
 20
6772217.447
 30
274.000
 70
    32
  0
VERTEX
  8
S4_274RL_BM_V08
 62
1
 10
478018.657
 20
6772224.400
 30
274.000
 70
    32
  0
VERTEX
  8
S4_274RL_BM_V08
 62
1
 10
478028.767
 20
6772231.210
 30
274.000
 70
    32
  0
VERTEX
  8
S4_274RL_BM_V08
 62
1
 10
478038.944
 20
6772238.080
 30
274.000
 70
    32
  0
VERTEX
  8
S4_274RL_BM_V08
 62
1
 10
478041.752
 20
6772239.867
 30
274.000
 70
    32
  0
VERTEX
  8
S4_274RL_BM_V08
 62
1
 10
478049.718
 20
6772244.821
 30
274.000
 70
    32
  0
VERTEX
  8
S4_274RL_BM_V08
 62
1
 10
478058.311
 20
6772250.166
 30
274.000
 70
    32
  0
VERTEX
  8
S4_274RL_BM_V08
 62
1
 10
478067.278
 20
6772253.105
 30
274.000
 70
    32
  0
VERTEX
  8
S4_274RL_BM_V08
 62
1
 10
478075.599
 20
6772255.832
 30
274.000
 70
    32
  0
VERTEX
  8
S4_274RL_BM_V08
 62
1
 10
478086.488
 20
6772259.055
 30
274.000
 70
    32
  0
VERTEX
  8
S4_274RL_BM_V08
 62
1
 10
478094.561
 20
6772261.410
 30
274.000
 70
    32
  0
VERTEX
  8
S4_274RL_BM_V08
 62
1
 10
478106.513
 20
6772265.074
 30
274.000
 70
    32
  0
VERTEX
  8
S4_274RL_BM_V08
 62
1
 10
478121.976
 20
6772267.399
 30
274.000
 70
    32
  0
VERTEX
  8
S4_274RL_BM_V08
 62
1
 10
478133.242
 20
6772268.831
 30
274.000
 70
    32
  0
VERTEX
  8
S4_274RL_BM_V08
 62
1
 10
478147.302
 20
6772270.772
 30
274.000
 70
    32
  0
VERTEX
  8
S4_274RL_BM_V08
 62
1
 10
478161.519
 20
6772272.806
 30
274.000
 70
    32
  0
VERTEX
  8
S4_274RL_BM_V08
 62
1
 10
478174.643
 20
6772274.845
 30
274.000
 70
    32
  0
VERTEX
  8
S4_274RL_BM_V08
 62
1
 10
478188.606
 20
6772277.897
 30
274.000
 70
    32
  0
VERTEX
  8
S4_274RL_BM_V08
 62
1
 10
478204.620
 20
6772230.217
 30
274.000
 70
    32
  0
VERTEX
  8
S4_274RL_BM_V08
 62
1
 10
478183.828
 20
6772225.672
 30
274.000
 70
    32
  0
VERTEX
  8
S4_274RL_BM_V08
 62
1
 10
478117.618
 20
6772216.182
 30
274.000
 70
    32
  0
VERTEX
  8
S4_274RL_BM_V08
 62
1
 10
478079.606
 20
6772204.529
 30
274.000
 70
    32
  0
SEQEND
  8
S4_274RL_BM_V08
  0
TEXT
  8
S4_274RL_BM_V08
 62
1
 10
478250.434
 20
6772276.820
 30
274.000
 40
2.000
  1
S4_274_167
 41
 1.0 
1001
MAPTEK_VULCAN
1000
VulcanName=Lava Obj
1000
VulcanGroup=
1000
VulcanValue=0
1000
VulcanDescription=Object created by Lava
1000
VulcanPrimitive=
1000
VulcanLine=0
1000
VulcanPattern=0
1000
VulcanFeature=
  0
TEXT
  8
S4_274RL_BM_V08
 62
1
 10
478250.434
 20
6772273.820
 30
274.000
 40
2.000
  1
9604.2 m^2
 41
 1.0 
1001
MAPTEK_VULCAN
1000
VulcanName=Lava Obj
1000
VulcanGroup=
1000
VulcanValue=0
1000
VulcanDescription=Object created by Lava
1000
VulcanPrimitive=
1000
VulcanLine=0
1000
VulcanPattern=0
1000
VulcanFeature=
  0
TEXT
  8
S4_274RL_BM_V08
 62
1
 10
478250.434
 20
6772270.820
 30
274.000
 40
2.000
  1
115250.2 m^3
 41
 1.0 
1001
MAPTEK_VULCAN
1000
VulcanName=Lava Obj
1000
VulcanGroup=
1000
VulcanValue=0
1000
VulcanDescription=Object created by Lava
1000
VulcanPrimitive=
1000
VulcanLine=0
1000
VulcanPattern=0
1000
VulcanFeature=
  0
TEXT
  8
S4_274RL_BM_V08
 62
1
 10
478250.434
 20
6772267.820
 30
274.000
 40
2.000
  1
327 HOLES, 4409 METERS
 41
 1.0 
1001
MAPTEK_VULCAN
1000
VulcanName=Lava Obj
1000
VulcanGroup=
1000
VulcanValue=0
1000
VulcanDescription=Object created by Lava
1000
VulcanPrimitive=
1000
VulcanLine=0
1000
VulcanPattern=0
1000
VulcanFeature=
  0
TEXT
  8
S4_274RL_BM_V08
 62
1
 10
478250.434
 20
6772264.820
 30
274.000
 40
2.000
  1
Burden = 5.2 m x Spacing = 6 m @ Stem Length = 3.6 m
 41
 1.0 
1001
MAPTEK_VULCAN
1000
VulcanName=Lava Obj
1000
VulcanGroup=
1000
VulcanValue=0
1000
VulcanDescription=Object created by Lava
1000
VulcanPrimitive=
1000
VulcanLine=0
1000
VulcanPattern=0
1000
VulcanFeature=
  0
TEXT
  8
S4_274RL_BM_V08
 62
1
 10
478250.434
 20
6772261.820
 30
274.000
 40
2.000
  1
Rig = Platform
 41
 1.0 
1001
MAPTEK_VULCAN
1000
VulcanName=Lava Obj
1000
VulcanGroup=
1000
VulcanValue=0
1000
VulcanDescription=Object created by Lava
1000
VulcanPrimitive=
1000
VulcanLine=0
1000
VulcanPattern=0
1000
VulcanFeature=
  0
TEXT
  8
S4_274RL_BM_V08
 62
1
 10
478075.082
 20
6772239.611
 30
274.000
 40
2.000
  1
S4_274_166
 41
 1.0 
1001
MAPTEK_VULCAN
1000
VulcanName=Lava Obj
1000
VulcanGroup=
1000
VulcanValue=0
1000
VulcanDescription=Object created by Lava
1000
VulcanPrimitive=
1000
VulcanLine=0
1000
VulcanPattern=0
1000
VulcanFeature=
  0
TEXT
  8
S4_274RL_BM_V08
 62
1
 10
478075.082
 20
6772236.611
 30
274.000
 40
2.000
  1
9973.2 m^2
 41
 1.0 
1001
MAPTEK_VULCAN
1000
VulcanName=Lava Obj
1000
VulcanGroup=
1000
VulcanValue=0
1000
VulcanDescription=Object created by Lava
1000
VulcanPrimitive=
1000
VulcanLine=0
1000
VulcanPattern=0
1000
VulcanFeature=
  0
TEXT
  8
S4_274RL_BM_V08
 62
1
 10
478075.082
 20
6772233.611
 30
274.000
 40
2.000
  1
119678.7 m^3
 41
 1.0 
1001
MAPTEK_VULCAN
1000
VulcanName=Lava Obj
1000
VulcanGroup=
1000
VulcanValue=0
1000
VulcanDescription=Object created by Lava
1000
VulcanPrimitive=
1000
VulcanLine=0
1000
VulcanPattern=0
1000
VulcanFeature=
  0
TEXT
  8
S4_274RL_BM_V08
 62
1
 10
478075.082
 20
6772230.611
 30
274.000
 40
2.000
  1
339 HOLES, 4578 METERS
 41
 1.0 
1001
MAPTEK_VULCAN
1000
VulcanName=Lava Obj
1000
VulcanGroup=
1000
VulcanValue=0
1000
VulcanDescription=Object created by Lava
1000
VulcanPrimitive=
1000
VulcanLine=0
1000
VulcanPattern=0
1000
VulcanFeature=
  0
TEXT
  8
S4_274RL_BM_V08
 62
1
 10
478075.082
 20
6772227.611
 30
274.000
 40
2.000
  1
Burden = 5.2 m x Spacing = 6 m @ Stem Length = 3.6 m
 41
 1.0 
1001
MAPTEK_VULCAN
1000
VulcanName=Lava Obj
1000
VulcanGroup=
1000
VulcanValue=0
1000
VulcanDescription=Object created by Lava
1000
VulcanPrimitive=
1000
VulcanLine=0
1000
VulcanPattern=0
1000
VulcanFeature=
  0
TEXT
  8
S4_274RL_BM_V08
 62
1
 10
478075.082
 20
6772224.611
 30
274.000
 40
2.000
  1
Rig = Platform
 41
 1.0 
1001
MAPTEK_VULCAN
1000
VulcanName=Lava Obj
1000
VulcanGroup=
1000
VulcanValue=0
1000
VulcanDescription=Object created by Lava
1000
VulcanPrimitive=
1000
VulcanLine=0
1000
VulcanPattern=0
1000
VulcanFeature=
  0
TEXT
  8
S4_274RL_BM_V08
 62
1
 10
478067.167
 20
6772126.597
 30
274.000
 40
2.000
  1
S4_274_161
 41
 1.0 
1001
MAPTEK_VULCAN
1000
VulcanName=Lava Obj
1000
VulcanGroup=
1000
VulcanValue=0
1000
VulcanDescription=Object created by Lava
1000
VulcanPrimitive=
1000
VulcanLine=0
1000
VulcanPattern=0
1000
VulcanFeature=
  0
TEXT
  8
S4_274RL_BM_V08
 62
1
 10
478067.167
 20
6772123.597
 30
274.000
 40
2.000
  1
13879.7 m^2
 41
 1.0 
1001
MAPTEK_VULCAN
1000
VulcanName=Lava Obj
1000
VulcanGroup=
1000
VulcanValue=0
1000
VulcanDescription=Object created by Lava
1000
VulcanPrimitive=
1000
VulcanLine=0
1000
VulcanPattern=0
1000
VulcanFeature=
  0
TEXT
  8
S4_274RL_BM_V08
 62
1
 10
478067.167
 20
6772120.597
 30
274.000
 40
2.000
  1
166556.8 m^3
 41
 1.0 
1001
MAPTEK_VULCAN
1000
VulcanName=Lava Obj
1000
VulcanGroup=
1000
VulcanValue=0
1000
VulcanDescription=Object created by Lava
1000
VulcanPrimitive=
1000
VulcanLine=0
1000
VulcanPattern=0
1000
VulcanFeature=
  0
TEXT
  8
S4_274RL_BM_V08
 62
1
 10
478067.167
 20
6772117.597
 30
274.000
 40
2.000
  1
547 HOLES, 7438 METERS
 41
 1.0 
1001
MAPTEK_VULCAN
1000
VulcanName=Lava Obj
1000
VulcanGroup=
1000
VulcanValue=0
1000
VulcanDescription=Object created by Lava
1000
VulcanPrimitive=
1000
VulcanLine=0
1000
VulcanPattern=0
1000
VulcanFeature=
  0
TEXT
  8
S4_274RL_BM_V08
 62
1
 10
478067.167
 20
6772114.597
 30
274.000
 40
2.000
  1
Burden = 4.7 m x Spacing = 5.4 m @ Stem Length = 3.1 m
 41
 1.0 
1001
MAPTEK_VULCAN
1000
VulcanName=Lava Obj
1000
VulcanGroup=
1000
VulcanValue=0
1000
VulcanDescription=Object created by Lava
1000
VulcanPrimitive=
1000
VulcanLine=0
1000
VulcanPattern=0
1000
VulcanFeature=
  0
TEXT
  8
S4_274RL_BM_V08
 62
1
 10
478067.167
 20
6772111.597
 30
274.000
 40
2.000
  1
Rig = Platform
 41
 1.0 
1001
MAPTEK_VULCAN
1000
VulcanName=Lava Obj
1000
VulcanGroup=
1000
VulcanValue=0
1000
VulcanDescription=Object created by Lava
1000
VulcanPrimitive=
1000
VulcanLine=0
1000
VulcanPattern=0
1000
VulcanFeature=
  0
TEXT
  8
S4_274RL_BM_V08
 62
1
 10
478111.674
 20
6772196.023
 30
274.000
 40
2.000
  1
S4_274_162
 41
 1.0 
1001
MAPTEK_VULCAN
1000
VulcanName=Lava Obj
1000
VulcanGroup=
1000
VulcanValue=0
1000
VulcanDescription=Object created by Lava
1000
VulcanPrimitive=
1000
VulcanLine=0
1000
VulcanPattern=0
1000
VulcanFeature=
  0
TEXT
  8
S4_274RL_BM_V08
 62
1
 10
478111.674
 20
6772193.023
 30
274.000
 40
2.000
  1
11939.6 m^2
 41
 1.0 
1001
MAPTEK_VULCAN
1000
VulcanName=Lava Obj
1000
VulcanGroup=
1000
VulcanValue=0
1000
VulcanDescription=Object created by Lava
1000
VulcanPrimitive=
1000
VulcanLine=0
1000
VulcanPattern=0
1000
VulcanFeature=
  0
TEXT
  8
S4_274RL_BM_V08
 62
1
 10
478111.674
 20
6772190.023
 30
274.000
 40
2.000
  1
143275.3 m^3
 41
 1.0 
1001
MAPTEK_VULCAN
1000
VulcanName=Lava Obj
1000
VulcanGroup=
1000
VulcanValue=0
1000
VulcanDescription=Object created by Lava
1000
VulcanPrimitive=
1000
VulcanLine=0
1000
VulcanPattern=0
1000
VulcanFeature=
  0
TEXT
  8
S4_274RL_BM_V08
 62
1
 10
478111.674
 20
6772187.023
 30
274.000
 40
2.000
  1
470 HOLES, 6398 METERS
 41
 1.0 
1001
MAPTEK_VULCAN
1000
VulcanName=Lava Obj
1000
VulcanGroup=
1000
VulcanValue=0
1000
VulcanDescription=Object created by Lava
1000
VulcanPrimitive=
1000
VulcanLine=0
1000
VulcanPattern=0
1000
VulcanFeature=
  0
TEXT
  8
S4_274RL_BM_V08
 62
1
 10
478111.674
 20
6772184.023
 30
274.000
 40
2.000
  1
Burden = 4.7 m x Spacing = 5.4 m @ Stem Length = 3.1 m
 41
 1.0 
1001
MAPTEK_VULCAN
1000
VulcanName=Lava Obj
1000
VulcanGroup=
1000
VulcanValue=0
1000
VulcanDescription=Object created by Lava
1000
VulcanPrimitive=
1000
VulcanLine=0
1000
VulcanPattern=0
1000
VulcanFeature=
  0
TEXT
  8
S4_274RL_BM_V08
 62
1
 10
478111.674
 20
6772181.023
 30
274.000
 40
2.000
  1
Rig = Platform
 41
 1.0 
1001
MAPTEK_VULCAN
1000
VulcanName=Lava Obj
1000
VulcanGroup=
1000
VulcanValue=0
1000
VulcanDescription=Object created by Lava
1000
VulcanPrimitive=
1000
VulcanLine=0
1000
VulcanPattern=0
1000
VulcanFeature=
  0
TEXT
  8
S4_274RL_BM_V08
 62
1
 10
478252.511
 20
6772188.240
 30
274.000
 40
2.000
  1
S4_274_163
 41
 1.0 
1001
MAPTEK_VULCAN
1000
VulcanName=Lava Obj
1000
VulcanGroup=
1000
VulcanValue=0
1000
VulcanDescription=Object created by Lava
1000
VulcanPrimitive=
1000
VulcanLine=0
1000
VulcanPattern=0
1000
VulcanFeature=
  0
TEXT
  8
S4_274RL_BM_V08
 62
1
 10
478252.511
 20
6772185.240
 30
274.000
 40
2.000
  1
11950.3 m^2
 41
 1.0 
1001
MAPTEK_VULCAN
1000
VulcanName=Lava Obj
1000
VulcanGroup=
1000
VulcanValue=0
1000
VulcanDescription=Object created by Lava
1000
VulcanPrimitive=
1000
VulcanLine=0
1000
VulcanPattern=0
1000
VulcanFeature=
  0
TEXT
  8
S4_274RL_BM_V08
 62
1
 10
478252.511
 20
6772182.240
 30
274.000
 40
2.000
  1
143403.3 m^3
 41
 1.0 
1001
MAPTEK_VULCAN
1000
VulcanName=Lava Obj
1000
VulcanGroup=
1000
VulcanValue=0
1000
VulcanDescription=Object created by Lava
1000
VulcanPrimitive=
1000
VulcanLine=0
1000
VulcanPattern=0
1000
VulcanFeature=
  0
TEXT
  8
S4_274RL_BM_V08
 62
1
 10
478252.511
 20
6772179.240
 30
274.000
 40
2.000
  1
471 HOLES, 6404 METERS
 41
 1.0 
1001
MAPTEK_VULCAN
1000
VulcanName=Lava Obj
1000
VulcanGroup=
1000
VulcanValue=0
1000
VulcanDescription=Object created by Lava
1000
VulcanPrimitive=
1000
VulcanLine=0
1000
VulcanPattern=0
1000
VulcanFeature=
  0
TEXT
  8
S4_274RL_BM_V08
 62
1
 10
478252.511
 20
6772176.240
 30
274.000
 40
2.000
  1
Burden = 4.7 m x Spacing = 5.4 m @ Stem Length = 3.1 m
 41
 1.0 
1001
MAPTEK_VULCAN
1000
VulcanName=Lava Obj
1000
VulcanGroup=
1000
VulcanValue=0
1000
VulcanDescription=Object created by Lava
1000
VulcanPrimitive=
1000
VulcanLine=0
1000
VulcanPattern=0
1000
VulcanFeature=
  0
TEXT
  8
S4_274RL_BM_V08
 62
1
 10
478252.511
 20
6772173.240
 30
274.000
 40
2.000
  1
Rig = Platform
 41
 1.0 
1001
MAPTEK_VULCAN
1000
VulcanName=Lava Obj
1000
VulcanGroup=
1000
VulcanValue=0
1000
VulcanDescription=Object created by Lava
1000
VulcanPrimitive=
1000
VulcanLine=0
1000
VulcanPattern=0
1000
VulcanFeature=
  0
TEXT
  8
S4_274RL_BM_V08
 62
1
 10
478316.879
 20
6772220.121
 30
274.000
 40
2.000
  1
S4_274_164
 41
 1.0 
1001
MAPTEK_VULCAN
1000
VulcanName=Lava Obj
1000
VulcanGroup=
1000
VulcanValue=0
1000
VulcanDescription=Object created by Lava
1000
VulcanPrimitive=
1000
VulcanLine=0
1000
VulcanPattern=0
1000
VulcanFeature=
  0
TEXT
  8
S4_274RL_BM_V08
 62
1
 10
478316.879
 20
6772217.121
 30
274.000
 40
2.000
  1
6869.1 m^2
 41
 1.0 
1001
MAPTEK_VULCAN
1000
VulcanName=Lava Obj
1000
VulcanGroup=
1000
VulcanValue=0
1000
VulcanDescription=Object created by Lava
1000
VulcanPrimitive=
1000
VulcanLine=0
1000
VulcanPattern=0
1000
VulcanFeature=
  0
TEXT
  8
S4_274RL_BM_V08
 62
1
 10
478316.879
 20
6772214.121
 30
274.000
 40
2.000
  1
82429.5 m^3
 41
 1.0 
1001
MAPTEK_VULCAN
1000
VulcanName=Lava Obj
1000
VulcanGroup=
1000
VulcanValue=0
1000
VulcanDescription=Object created by Lava
1000
VulcanPrimitive=
1000
VulcanLine=0
1000
VulcanPattern=0
1000
VulcanFeature=
  0
TEXT
  8
S4_274RL_BM_V08
 62
1
 10
478316.879
 20
6772211.121
 30
274.000
 40
2.000
  1
271 HOLES, 3681 METERS
 41
 1.0 
1001
MAPTEK_VULCAN
1000
VulcanName=Lava Obj
1000
VulcanGroup=
1000
VulcanValue=0
1000
VulcanDescription=Object created by Lava
1000
VulcanPrimitive=
1000
VulcanLine=0
1000
VulcanPattern=0
1000
VulcanFeature=
  0
TEXT
  8
S4_274RL_BM_V08
 62
1
 10
478316.879
 20
6772208.121
 30
274.000
 40
2.000
  1
Burden = 4.7 m x Spacing = 5.4 m @ Stem Length = 3.1 m
 41
 1.0 
1001
MAPTEK_VULCAN
1000
VulcanName=Lava Obj
1000
VulcanGroup=
1000
VulcanValue=0
1000
VulcanDescription=Object created by Lava
1000
VulcanPrimitive=
1000
VulcanLine=0
1000
VulcanPattern=0
1000
VulcanFeature=
  0
TEXT
  8
S4_274RL_BM_V08
 62
1
 10
478316.879
 20
6772205.121
 30
274.000
 40
2.000
  1
Rig = Platform
 41
 1.0 
1001
MAPTEK_VULCAN
1000
VulcanName=Lava Obj
1000
VulcanGroup=
1000
VulcanValue=0
1000
VulcanDescription=Object created by Lava
1000
VulcanPrimitive=
1000
VulcanLine=0
1000
VulcanPattern=0
1000
VulcanFeature=
  0
TEXT
  8
S4_274RL_BM_V08
 62
1
 10
478372.827
 20
6772246.967
 30
274.000
 40
2.000
  1
S4_274_168
 41
 1.0 
1001
MAPTEK_VULCAN
1000
VulcanName=Lava Obj
1000
VulcanGroup=
1000
VulcanValue=0
1000
VulcanDescription=Object created by Lava
1000
VulcanPrimitive=
1000
VulcanLine=0
1000
VulcanPattern=0
1000
VulcanFeature=
  0
TEXT
  8
S4_274RL_BM_V08
 62
1
 10
478372.827
 20
6772243.967
 30
274.000
 40
2.000
  1
4249.8 m^2
 41
 1.0 
1001
MAPTEK_VULCAN
1000
VulcanName=Lava Obj
1000
VulcanGroup=
1000
VulcanValue=0
1000
VulcanDescription=Object created by Lava
1000
VulcanPrimitive=
1000
VulcanLine=0
1000
VulcanPattern=0
1000
VulcanFeature=
  0
TEXT
  8
S4_274RL_BM_V08
 62
1
 10
478372.827
 20
6772240.967
 30
274.000
 40
2.000
  1
50997.2 m^3
 41
 1.0 
1001
MAPTEK_VULCAN
1000
VulcanName=Lava Obj
1000
VulcanGroup=
1000
VulcanValue=0
1000
VulcanDescription=Object created by Lava
1000
VulcanPrimitive=
1000
VulcanLine=0
1000
VulcanPattern=0
1000
VulcanFeature=
  0
TEXT
  8
S4_274RL_BM_V08
 62
1
 10
478372.827
 20
6772237.967
 30
274.000
 40
2.000
  1
167 HOLES, 2277 METERS
 41
 1.0 
1001
MAPTEK_VULCAN
1000
VulcanName=Lava Obj
1000
VulcanGroup=
1000
VulcanValue=0
1000
VulcanDescription=Object created by Lava
1000
VulcanPrimitive=
1000
VulcanLine=0
1000
VulcanPattern=0
1000
VulcanFeature=
  0
TEXT
  8
S4_274RL_BM_V08
 62
1
 10
478372.827
 20
6772234.967
 30
274.000
 40
2.000
  1
Burden = 4.7 m x Spacing = 5.4 m @ Stem Length = 3.1 m
 41
 1.0 
1001
MAPTEK_VULCAN
1000
VulcanName=Lava Obj
1000
VulcanGroup=
1000
VulcanValue=0
1000
VulcanDescription=Object created by Lava
1000
VulcanPrimitive=
1000
VulcanLine=0
1000
VulcanPattern=0
1000
VulcanFeature=
  0
TEXT
  8
S4_274RL_BM_V08
 62
1
 10
478372.827
 20
6772231.967
 30
274.000
 40
2.000
  1
Rig = Platform
 41
 1.0 
1001
MAPTEK_VULCAN
1000
VulcanName=Lava Obj
1000
VulcanGroup=
1000
VulcanValue=0
1000
VulcanDescription=Object created by Lava
1000
VulcanPrimitive=
1000
VulcanLine=0
1000
VulcanPattern=0
1000
VulcanFeature=
  0
TEXT
  8
S4_274RL_BM_V08
 62
1
 10
478357.693
 20
6772136.295
 30
274.000
 40
2.000
  1
S4_274_169
 41
 1.0 
1001
MAPTEK_VULCAN
1000
VulcanName=Lava Obj
1000
VulcanGroup=
1000
VulcanValue=0
1000
VulcanDescription=Object created by Lava
1000
VulcanPrimitive=
1000
VulcanLine=0
1000
VulcanPattern=0
1000
VulcanFeature=
  0
TEXT
  8
S4_274RL_BM_V08
 62
1
 10
478357.693
 20
6772133.295
 30
274.000
 40
2.000
  1
8950.2 m^2
 41
 1.0 
1001
MAPTEK_VULCAN
1000
VulcanName=Lava Obj
1000
VulcanGroup=
1000
VulcanValue=0
1000
VulcanDescription=Object created by Lava
1000
VulcanPrimitive=
1000
VulcanLine=0
1000
VulcanPattern=0
1000
VulcanFeature=
  0
TEXT
  8
S4_274RL_BM_V08
 62
1
 10
478357.693
 20
6772130.295
 30
274.000
 40
2.000
  1
107403.0 m^3
 41
 1.0 
1001
MAPTEK_VULCAN
1000
VulcanName=Lava Obj
1000
VulcanGroup=
1000
VulcanValue=0
1000
VulcanDescription=Object created by Lava
1000
VulcanPrimitive=
1000
VulcanLine=0
1000
VulcanPattern=0
1000
VulcanFeature=
  0
TEXT
  8
S4_274RL_BM_V08
 62
1
 10
478357.693
 20
6772127.295
 30
274.000
 40
2.000
  1
353 HOLES, 4796 METERS
 41
 1.0 
1001
MAPTEK_VULCAN
1000
VulcanName=Lava Obj
1000
VulcanGroup=
1000
VulcanValue=0
1000
VulcanDescription=Object created by Lava
1000
VulcanPrimitive=
1000
VulcanLine=0
1000
VulcanPattern=0
1000
VulcanFeature=
  0
TEXT
  8
S4_274RL_BM_V08
 62
1
 10
478357.693
 20
6772124.295
 30
274.000
 40
2.000
  1
Burden = 4.7 m x Spacing = 5.4 m @ Stem Length = 3.1 m
 41
 1.0 
1001
MAPTEK_VULCAN
1000
VulcanName=Lava Obj
1000
VulcanGroup=
1000
VulcanValue=0
1000
VulcanDescription=Object created by Lava
1000
VulcanPrimitive=
1000
VulcanLine=0
1000
VulcanPattern=0
1000
VulcanFeature=
  0
TEXT
  8
S4_274RL_BM_V08
 62
1
 10
478357.693
 20
6772121.295
 30
274.000
 40
2.000
  1
Rig = Platform
 41
 1.0 
1001
MAPTEK_VULCAN
1000
VulcanName=Lava Obj
1000
VulcanGroup=
1000
VulcanValue=0
1000
VulcanDescription=Object created by Lava
1000
VulcanPrimitive=
1000
VulcanLine=0
1000
VulcanPattern=0
1000
VulcanFeature=
  0
TEXT
  8
S4_274RL_BM_V08
 62
1
 10
478200.653
 20
6772073.309
 30
274.000
 40
2.000
  1
S4_274_158
 41
 1.0 
1001
MAPTEK_VULCAN
1000
VulcanName=Lava Obj
1000
VulcanGroup=
1000
VulcanValue=0
1000
VulcanDescription=Object created by Lava
1000
VulcanPrimitive=
1000
VulcanLine=0
1000
VulcanPattern=0
1000
VulcanFeature=
  0
TEXT
  8
S4_274RL_BM_V08
 62
1
 10
478200.653
 20
6772070.309
 30
274.000
 40
2.000
  1
13056.0 m^2
 41
 1.0 
1001
MAPTEK_VULCAN
1000
VulcanName=Lava Obj
1000
VulcanGroup=
1000
VulcanValue=0
1000
VulcanDescription=Object created by Lava
1000
VulcanPrimitive=
1000
VulcanLine=0
1000
VulcanPattern=0
1000
VulcanFeature=
  0
TEXT
  8
S4_274RL_BM_V08
 62
1
 10
478200.653
 20
6772067.309
 30
274.000
 40
2.000
  1
156671.5 m^3
 41
 1.0 
1001
MAPTEK_VULCAN
1000
VulcanName=Lava Obj
1000
VulcanGroup=
1000
VulcanValue=0
1000
VulcanDescription=Object created by Lava
1000
VulcanPrimitive=
1000
VulcanLine=0
1000
VulcanPattern=0
1000
VulcanFeature=
  0
TEXT
  8
S4_274RL_BM_V08
 62
1
 10
478200.653
 20
6772064.309
 30
274.000
 40
2.000
  1
514 HOLES, 6996 METERS
 41
 1.0 
1001
MAPTEK_VULCAN
1000
VulcanName=Lava Obj
1000
VulcanGroup=
1000
VulcanValue=0
1000
VulcanDescription=Object created by Lava
1000
VulcanPrimitive=
1000
VulcanLine=0
1000
VulcanPattern=0
1000
VulcanFeature=
  0
TEXT
  8
S4_274RL_BM_V08
 62
1
 10
478200.653
 20
6772061.309
 30
274.000
 40
2.000
  1
Burden = 4.7 m x Spacing = 5.4 m @ Stem Length = 3.1 m
 41
 1.0 
1001
MAPTEK_VULCAN
1000
VulcanName=Lava Obj
1000
VulcanGroup=
1000
VulcanValue=0
1000
VulcanDescription=Object created by Lava
1000
VulcanPrimitive=
1000
VulcanLine=0
1000
VulcanPattern=0
1000
VulcanFeature=
  0
TEXT
  8
S4_274RL_BM_V08
 62
1
 10
478200.653
 20
6772058.309
 30
274.000
 40
2.000
  1
Rig = Platform
 41
 1.0 
1001
MAPTEK_VULCAN
1000
VulcanName=Lava Obj
1000
VulcanGroup=
1000
VulcanValue=0
1000
VulcanDescription=Object created by Lava
1000
VulcanPrimitive=
1000
VulcanLine=0
1000
VulcanPattern=0
1000
VulcanFeature=
  0
TEXT
  8
S4_274RL_BM_V08
 62
1
 10
478062.770
 20
6772064.977
 30
274.000
 40
2.000
  1
S4_274_159
 41
 1.0 
1001
MAPTEK_VULCAN
1000
VulcanName=Lava Obj
1000
VulcanGroup=
1000
VulcanValue=0
1000
VulcanDescription=Object created by Lava
1000
VulcanPrimitive=
1000
VulcanLine=0
1000
VulcanPattern=0
1000
VulcanFeature=
  0
TEXT
  8
S4_274RL_BM_V08
 62
1
 10
478062.770
 20
6772061.977
 30
274.000
 40
2.000
  1
10801.7 m^2
 41
 1.0 
1001
MAPTEK_VULCAN
1000
VulcanName=Lava Obj
1000
VulcanGroup=
1000
VulcanValue=0
1000
VulcanDescription=Object created by Lava
1000
VulcanPrimitive=
1000
VulcanLine=0
1000
VulcanPattern=0
1000
VulcanFeature=
  0
TEXT
  8
S4_274RL_BM_V08
 62
1
 10
478062.770
 20
6772058.977
 30
274.000
 40
2.000
  1
129620.9 m^3
 41
 1.0 
1001
MAPTEK_VULCAN
1000
VulcanName=Lava Obj
1000
VulcanGroup=
1000
VulcanValue=0
1000
VulcanDescription=Object created by Lava
1000
VulcanPrimitive=
1000
VulcanLine=0
1000
VulcanPattern=0
1000
VulcanFeature=
  0
TEXT
  8
S4_274RL_BM_V08
 62
1
 10
478062.770
 20
6772055.977
 30
274.000
 40
2.000
  1
426 HOLES, 5788 METERS
 41
 1.0 
1001
MAPTEK_VULCAN
1000
VulcanName=Lava Obj
1000
VulcanGroup=
1000
VulcanValue=0
1000
VulcanDescription=Object created by Lava
1000
VulcanPrimitive=
1000
VulcanLine=0
1000
VulcanPattern=0
1000
VulcanFeature=
  0
TEXT
  8
S4_274RL_BM_V08
 62
1
 10
478062.770
 20
6772052.977
 30
274.000
 40
2.000
  1
Burden = 4.7 m x Spacing = 5.4 m @ Stem Length = 3.1 m
 41
 1.0 
1001
MAPTEK_VULCAN
1000
VulcanName=Lava Obj
1000
VulcanGroup=
1000
VulcanValue=0
1000
VulcanDescription=Object created by Lava
1000
VulcanPrimitive=
1000
VulcanLine=0
1000
VulcanPattern=0
1000
VulcanFeature=
  0
TEXT
  8
S4_274RL_BM_V08
 62
1
 10
478062.770
 20
6772049.977
 30
274.000
 40
2.000
  1
Rig = Platform
 41
 1.0 
1001
MAPTEK_VULCAN
1000
VulcanName=Lava Obj
1000
VulcanGroup=
1000
VulcanValue=0
1000
VulcanDescription=Object created by Lava
1000
VulcanPrimitive=
1000
VulcanLine=0
1000
VulcanPattern=0
1000
VulcanFeature=
  0
TEXT
  8
S4_274RL_BM_V08
 62
1
 10
478020.097
 20
6772004.032
 30
274.000
 40
2.000
  1
S4_274_157
 41
 1.0 
1001
MAPTEK_VULCAN
1000
VulcanName=Lava Obj
1000
VulcanGroup=
1000
VulcanValue=0
1000
VulcanDescription=Object created by Lava
1000
VulcanPrimitive=
1000
VulcanLine=0
1000
VulcanPattern=0
1000
VulcanFeature=
  0
TEXT
  8
S4_274RL_BM_V08
 62
1
 10
478020.097
 20
6772001.032
 30
274.000
 40
2.000
  1
11022.9 m^2
 41
 1.0 
1001
MAPTEK_VULCAN
1000
VulcanName=Lava Obj
1000
VulcanGroup=
1000
VulcanValue=0
1000
VulcanDescription=Object created by Lava
1000
VulcanPrimitive=
1000
VulcanLine=0
1000
VulcanPattern=0
1000
VulcanFeature=
  0
TEXT
  8
S4_274RL_BM_V08
 62
1
 10
478020.097
 20
6771998.032
 30
274.000
 40
2.000
  1
132274.5 m^3
 41
 1.0 
1001
MAPTEK_VULCAN
1000
VulcanName=Lava Obj
1000
VulcanGroup=
1000
VulcanValue=0
1000
VulcanDescription=Object created by Lava
1000
VulcanPrimitive=
1000
VulcanLine=0
1000
VulcanPattern=0
1000
VulcanFeature=
  0
TEXT
  8
S4_274RL_BM_V08
 62
1
 10
478020.097
 20
6771995.032
 30
274.000
 40
2.000
  1
434 HOLES, 5907 METERS
 41
 1.0 
1001
MAPTEK_VULCAN
1000
VulcanName=Lava Obj
1000
VulcanGroup=
1000
VulcanValue=0
1000
VulcanDescription=Object created by Lava
1000
VulcanPrimitive=
1000
VulcanLine=0
1000
VulcanPattern=0
1000
VulcanFeature=
  0
TEXT
  8
S4_274RL_BM_V08
 62
1
 10
478020.097
 20
6771992.032
 30
274.000
 40
2.000
  1
Burden = 4.7 m x Spacing = 5.4 m @ Stem Length = 3.1 m
 41
 1.0 
1001
MAPTEK_VULCAN
1000
VulcanName=Lava Obj
1000
VulcanGroup=
1000
VulcanValue=0
1000
VulcanDescription=Object created by Lava
1000
VulcanPrimitive=
1000
VulcanLine=0
1000
VulcanPattern=0
1000
VulcanFeature=
  0
TEXT
  8
S4_274RL_BM_V08
 62
1
 10
478020.097
 20
6771989.032
 30
274.000
 40
2.000
  1
Rig = Platform
 41
 1.0 
1001
MAPTEK_VULCAN
1000
VulcanName=Lava Obj
1000
VulcanGroup=
1000
VulcanValue=0
1000
VulcanDescription=Object created by Lava
1000
VulcanPrimitive=
1000
VulcanLine=0
1000
VulcanPattern=0
1000
VulcanFeature=
  0
TEXT
  8
S4_274RL_BM_V08
 62
1
 10
477998.040
 20
6771936.862
 30
274.000
 40
2.000
  1
S4_274_156
 41
 1.0 
1001
MAPTEK_VULCAN
1000
VulcanName=Lava Obj
1000
VulcanGroup=
1000
VulcanValue=0
1000
VulcanDescription=Object created by Lava
1000
VulcanPrimitive=
1000
VulcanLine=0
1000
VulcanPattern=0
1000
VulcanFeature=
  0
TEXT
  8
S4_274RL_BM_V08
 62
1
 10
477998.040
 20
6771933.862
 30
274.000
 40
2.000
  1
10675.4 m^2
 41
 1.0 
1001
MAPTEK_VULCAN
1000
VulcanName=Lava Obj
1000
VulcanGroup=
1000
VulcanValue=0
1000
VulcanDescription=Object created by Lava
1000
VulcanPrimitive=
1000
VulcanLine=0
1000
VulcanPattern=0
1000
VulcanFeature=
  0
TEXT
  8
S4_274RL_BM_V08
 62
1
 10
477998.040
 20
6771930.862
 30
274.000
 40
2.000
  1
128104.5 m^3
 41
 1.0 
1001
MAPTEK_VULCAN
1000
VulcanName=Lava Obj
1000
VulcanGroup=
1000
VulcanValue=0
1000
VulcanDescription=Object created by Lava
1000
VulcanPrimitive=
1000
VulcanLine=0
1000
VulcanPattern=0
1000
VulcanFeature=
  0
TEXT
  8
S4_274RL_BM_V08
 62
1
 10
477998.040
 20
6771927.862
 30
274.000
 40
2.000
  1
421 HOLES, 5720 METERS
 41
 1.0 
1001
MAPTEK_VULCAN
1000
VulcanName=Lava Obj
1000
VulcanGroup=
1000
VulcanValue=0
1000
VulcanDescription=Object created by Lava
1000
VulcanPrimitive=
1000
VulcanLine=0
1000
VulcanPattern=0
1000
VulcanFeature=
  0
TEXT
  8
S4_274RL_BM_V08
 62
1
 10
477998.040
 20
6771924.862
 30
274.000
 40
2.000
  1
Burden = 4.7 m x Spacing = 5.4 m @ Stem Length = 3.1 m
 41
 1.0 
1001
MAPTEK_VULCAN
1000
VulcanName=Lava Obj
1000
VulcanGroup=
1000
VulcanValue=0
1000
VulcanDescription=Object created by Lava
1000
VulcanPrimitive=
1000
VulcanLine=0
1000
VulcanPattern=0
1000
VulcanFeature=
  0
TEXT
  8
S4_274RL_BM_V08
 62
1
 10
477998.040
 20
6771921.862
 30
274.000
 40
2.000
  1
Rig = Platform
 41
 1.0 
1001
MAPTEK_VULCAN
1000
VulcanName=Lava Obj
1000
VulcanGroup=
1000
VulcanValue=0
1000
VulcanDescription=Object created by Lava
1000
VulcanPrimitive=
1000
VulcanLine=0
1000
VulcanPattern=0
1000
VulcanFeature=
  0
TEXT
  8
S4_274RL_BM_V08
 62
1
 10
477971.037
 20
6771885.996
 30
274.000
 40
2.000
  1
S4_274_153
 41
 1.0 
1001
MAPTEK_VULCAN
1000
VulcanName=Lava Obj
1000
VulcanGroup=
1000
VulcanValue=0
1000
VulcanDescription=Object created by Lava
1000
VulcanPrimitive=
1000
VulcanLine=0
1000
VulcanPattern=0
1000
VulcanFeature=
  0
TEXT
  8
S4_274RL_BM_V08
 62
1
 10
477971.037
 20
6771882.996
 30
274.000
 40
2.000
  1
8430.6 m^2
 41
 1.0 
1001
MAPTEK_VULCAN
1000
VulcanName=Lava Obj
1000
VulcanGroup=
1000
VulcanValue=0
1000
VulcanDescription=Object created by Lava
1000
VulcanPrimitive=
1000
VulcanLine=0
1000
VulcanPattern=0
1000
VulcanFeature=
  0
TEXT
  8
S4_274RL_BM_V08
 62
1
 10
477971.037
 20
6771879.996
 30
274.000
 40
2.000
  1
101166.9 m^3
 41
 1.0 
1001
MAPTEK_VULCAN
1000
VulcanName=Lava Obj
1000
VulcanGroup=
1000
VulcanValue=0
1000
VulcanDescription=Object created by Lava
1000
VulcanPrimitive=
1000
VulcanLine=0
1000
VulcanPattern=0
1000
VulcanFeature=
  0
TEXT
  8
S4_274RL_BM_V08
 62
1
 10
477971.037
 20
6771876.996
 30
274.000
 40
2.000
  1
332 HOLES, 4518 METERS
 41
 1.0 
1001
MAPTEK_VULCAN
1000
VulcanName=Lava Obj
1000
VulcanGroup=
1000
VulcanValue=0
1000
VulcanDescription=Object created by Lava
1000
VulcanPrimitive=
1000
VulcanLine=0
1000
VulcanPattern=0
1000
VulcanFeature=
  0
TEXT
  8
S4_274RL_BM_V08
 62
1
 10
477971.037
 20
6771873.996
 30
274.000
 40
2.000
  1
Burden = 4.7 m x Spacing = 5.4 m @ Stem Length = 3.1 m
 41
 1.0 
1001
MAPTEK_VULCAN
1000
VulcanName=Lava Obj
1000
VulcanGroup=
1000
VulcanValue=0
1000
VulcanDescription=Object created by Lava
1000
VulcanPrimitive=
1000
VulcanLine=0
1000
VulcanPattern=0
1000
VulcanFeature=
  0
TEXT
  8
S4_274RL_BM_V08
 62
1
 10
477971.037
 20
6771870.996
 30
274.000
 40
2.000
  1
Rig = Platform
 41
 1.0 
1001
MAPTEK_VULCAN
1000
VulcanName=Lava Obj
1000
VulcanGroup=
1000
VulcanValue=0
1000
VulcanDescription=Object created by Lava
1000
VulcanPrimitive=
1000
VulcanLine=0
1000
VulcanPattern=0
1000
VulcanFeature=
  0
TEXT
  8
S4_274RL_BM_V08
 62
1
 10
477918.962
 20
6771802.282
 30
274.000
 40
2.000
  1
S4_274_152
 41
 1.0 
1001
MAPTEK_VULCAN
1000
VulcanName=Lava Obj
1000
VulcanGroup=
1000
VulcanValue=0
1000
VulcanDescription=Object created by Lava
1000
VulcanPrimitive=
1000
VulcanLine=0
1000
VulcanPattern=0
1000
VulcanFeature=
  0
TEXT
  8
S4_274RL_BM_V08
 62
1
 10
477918.962
 20
6771799.282
 30
274.000
 40
2.000
  1
15147.3 m^2
 41
 1.0 
1001
MAPTEK_VULCAN
1000
VulcanName=Lava Obj
1000
VulcanGroup=
1000
VulcanValue=0
1000
VulcanDescription=Object created by Lava
1000
VulcanPrimitive=
1000
VulcanLine=0
1000
VulcanPattern=0
1000
VulcanFeature=
  0
TEXT
  8
S4_274RL_BM_V08
 62
1
 10
477918.962
 20
6771796.282
 30
274.000
 40
2.000
  1
181767.4 m^3
 41
 1.0 
1001
MAPTEK_VULCAN
1000
VulcanName=Lava Obj
1000
VulcanGroup=
1000
VulcanValue=0
1000
VulcanDescription=Object created by Lava
1000
VulcanPrimitive=
1000
VulcanLine=0
1000
VulcanPattern=0
1000
VulcanFeature=
  0
TEXT
  8
S4_274RL_BM_V08
 62
1
 10
477918.962
 20
6771793.282
 30
274.000
 40
2.000
  1
597 HOLES, 8117 METERS
 41
 1.0 
1001
MAPTEK_VULCAN
1000
VulcanName=Lava Obj
1000
VulcanGroup=
1000
VulcanValue=0
1000
VulcanDescription=Object created by Lava
1000
VulcanPrimitive=
1000
VulcanLine=0
1000
VulcanPattern=0
1000
VulcanFeature=
  0
TEXT
  8
S4_274RL_BM_V08
 62
1
 10
477918.962
 20
6771790.282
 30
274.000
 40
2.000
  1
Burden = 4.7 m x Spacing = 5.4 m @ Stem Length = 3.1 m
 41
 1.0 
1001
MAPTEK_VULCAN
1000
VulcanName=Lava Obj
1000
VulcanGroup=
1000
VulcanValue=0
1000
VulcanDescription=Object created by Lava
1000
VulcanPrimitive=
1000
VulcanLine=0
1000
VulcanPattern=0
1000
VulcanFeature=
  0
TEXT
  8
S4_274RL_BM_V08
 62
1
 10
477918.962
 20
6771787.282
 30
274.000
 40
2.000
  1
Rig = Platform
 41
 1.0 
1001
MAPTEK_VULCAN
1000
VulcanName=Lava Obj
1000
VulcanGroup=
1000
VulcanValue=0
1000
VulcanDescription=Object created by Lava
1000
VulcanPrimitive=
1000
VulcanLine=0
1000
VulcanPattern=0
1000
VulcanFeature=
  0
TEXT
  8
S4_274RL_BM_V08
 62
1
 10
478019.349
 20
6771784.845
 30
274.000
 40
2.000
  1
S4_274_173
 41
 1.0 
1001
MAPTEK_VULCAN
1000
VulcanName=Lava Obj
1000
VulcanGroup=
1000
VulcanValue=0
1000
VulcanDescription=Object created by Lava
1000
VulcanPrimitive=
1000
VulcanLine=0
1000
VulcanPattern=0
1000
VulcanFeature=
  0
TEXT
  8
S4_274RL_BM_V08
 62
1
 10
478019.349
 20
6771781.845
 30
274.000
 40
2.000
  1
4463.7 m^2
 41
 1.0 
1001
MAPTEK_VULCAN
1000
VulcanName=Lava Obj
1000
VulcanGroup=
1000
VulcanValue=0
1000
VulcanDescription=Object created by Lava
1000
VulcanPrimitive=
1000
VulcanLine=0
1000
VulcanPattern=0
1000
VulcanFeature=
  0
TEXT
  8
S4_274RL_BM_V08
 62
1
 10
478019.349
 20
6771778.845
 30
274.000
 40
2.000
  1
35709.7 m^3
 41
 1.0 
1001
MAPTEK_VULCAN
1000
VulcanName=Lava Obj
1000
VulcanGroup=
1000
VulcanValue=0
1000
VulcanDescription=Object created by Lava
1000
VulcanPrimitive=
1000
VulcanLine=0
1000
VulcanPattern=0
1000
VulcanFeature=
  0
TEXT
  8
S4_274RL_BM_V08
 62
1
 10
478019.349
 20
6771775.845
 30
274.000
 40
2.000
  1
279 HOLES, 2511 METERS
 41
 1.0 
1001
MAPTEK_VULCAN
1000
VulcanName=Lava Obj
1000
VulcanGroup=
1000
VulcanValue=0
1000
VulcanDescription=Object created by Lava
1000
VulcanPrimitive=
1000
VulcanLine=0
1000
VulcanPattern=0
1000
VulcanFeature=
  0
TEXT
  8
S4_274RL_BM_V08
 62
1
 10
478019.349
 20
6771772.845
 30
274.000
 40
2.000
  1
Burden = 4 m x Spacing = 4 m @ Stem Length = 2.8 m
 41
 1.0 
1001
MAPTEK_VULCAN
1000
VulcanName=Lava Obj
1000
VulcanGroup=
1000
VulcanValue=0
1000
VulcanDescription=Object created by Lava
1000
VulcanPrimitive=
1000
VulcanLine=0
1000
VulcanPattern=0
1000
VulcanFeature=
  0
TEXT
  8
S4_274RL_BM_V08
 62
1
 10
478019.349
 20
6771769.845
 30
274.000
 40
2.000
  1
Rig = Combination
 41
 1.0 
1001
MAPTEK_VULCAN
1000
VulcanName=Lava Obj
1000
VulcanGroup=
1000
VulcanValue=0
1000
VulcanDescription=Object created by Lava
1000
VulcanPrimitive=
1000
VulcanLine=0
1000
VulcanPattern=0
1000
VulcanFeature=
  0
TEXT
  8
S4_274RL_BM_V08
 62
1
 10
478088.414
 20
6771832.159
 30
274.000
 40
2.000
  1
S4_274_151
 41
 1.0 
1001
MAPTEK_VULCAN
1000
VulcanName=Lava Obj
1000
VulcanGroup=
1000
VulcanValue=0
1000
VulcanDescription=Object created by Lava
1000
VulcanPrimitive=
1000
VulcanLine=0
1000
VulcanPattern=0
1000
VulcanFeature=
  0
TEXT
  8
S4_274RL_BM_V08
 62
1
 10
478088.414
 20
6771829.159
 30
274.000
 40
2.000
  1
11105.8 m^2
 41
 1.0 
1001
MAPTEK_VULCAN
1000
VulcanName=Lava Obj
1000
VulcanGroup=
1000
VulcanValue=0
1000
VulcanDescription=Object created by Lava
1000
VulcanPrimitive=
1000
VulcanLine=0
1000
VulcanPattern=0
1000
VulcanFeature=
  0
TEXT
  8
S4_274RL_BM_V08
 62
1
 10
478088.414
 20
6771826.159
 30
274.000
 40
2.000
  1
133269.5 m^3
 41
 1.0 
1001
MAPTEK_VULCAN
1000
VulcanName=Lava Obj
1000
VulcanGroup=
1000
VulcanValue=0
1000
VulcanDescription=Object created by Lava
1000
VulcanPrimitive=
1000
VulcanLine=0
1000
VulcanPattern=0
1000
VulcanFeature=
  0
TEXT
  8
S4_274RL_BM_V08
 62
1
 10
478088.414
 20
6771823.159
 30
274.000
 40
2.000
  1
438 HOLES, 5951 METERS
 41
 1.0 
1001
MAPTEK_VULCAN
1000
VulcanName=Lava Obj
1000
VulcanGroup=
1000
VulcanValue=0
1000
VulcanDescription=Object created by Lava
1000
VulcanPrimitive=
1000
VulcanLine=0
1000
VulcanPattern=0
1000
VulcanFeature=
  0
TEXT
  8
S4_274RL_BM_V08
 62
1
 10
478088.414
 20
6771820.159
 30
274.000
 40
2.000
  1
Burden = 4.7 m x Spacing = 5.4 m @ Stem Length = 3.1 m
 41
 1.0 
1001
MAPTEK_VULCAN
1000
VulcanName=Lava Obj
1000
VulcanGroup=
1000
VulcanValue=0
1000
VulcanDescription=Object created by Lava
1000
VulcanPrimitive=
1000
VulcanLine=0
1000
VulcanPattern=0
1000
VulcanFeature=
  0
TEXT
  8
S4_274RL_BM_V08
 62
1
 10
478088.414
 20
6771817.159
 30
274.000
 40
2.000
  1
Rig = Platform
 41
 1.0 
1001
MAPTEK_VULCAN
1000
VulcanName=Lava Obj
1000
VulcanGroup=
1000
VulcanValue=0
1000
VulcanDescription=Object created by Lava
1000
VulcanPrimitive=
1000
VulcanLine=0
1000
VulcanPattern=0
1000
VulcanFeature=
  0
TEXT
  8
S4_274RL_BM_V08
 62
1
 10
478186.565
 20
6771812.369
 30
274.000
 40
2.000
  1
S4_274_172 (122BL)
 41
 1.0 
1001
MAPTEK_VULCAN
1000
VulcanName=Lava Obj
1000
VulcanGroup=
1000
VulcanValue=0
1000
VulcanDescription=Object created by Lava
1000
VulcanPrimitive=
1000
VulcanLine=0
1000
VulcanPattern=0
1000
VulcanFeature=
  0
TEXT
  8
S4_274RL_BM_V08
 62
1
 10
478186.565
 20
6771809.369
 30
274.000
 40
2.000
  1
8360.8 m^2
 41
 1.0 
1001
MAPTEK_VULCAN
1000
VulcanName=Lava Obj
1000
VulcanGroup=
1000
VulcanValue=0
1000
VulcanDescription=Object created by Lava
1000
VulcanPrimitive=
1000
VulcanLine=0
1000
VulcanPattern=0
1000
VulcanFeature=
  0
TEXT
  8
S4_274RL_BM_V08
 62
1
 10
478186.565
 20
6771806.369
 30
274.000
 40
2.000
  1
100329.3 m^3
 41
 1.0 
1001
MAPTEK_VULCAN
1000
VulcanName=Lava Obj
1000
VulcanGroup=
1000
VulcanValue=0
1000
VulcanDescription=Object created by Lava
1000
VulcanPrimitive=
1000
VulcanLine=0
1000
VulcanPattern=0
1000
VulcanFeature=
  0
TEXT
  8
S4_274RL_BM_V08
 62
1
 10
478186.565
 20
6771803.369
 30
274.000
 40
2.000
  1
329 HOLES, 4480 METERS
 41
 1.0 
1001
MAPTEK_VULCAN
1000
VulcanName=Lava Obj
1000
VulcanGroup=
1000
VulcanValue=0
1000
VulcanDescription=Object created by Lava
1000
VulcanPrimitive=
1000
VulcanLine=0
1000
VulcanPattern=0
1000
VulcanFeature=
  0
TEXT
  8
S4_274RL_BM_V08
 62
1
 10
478186.565
 20
6771800.369
 30
274.000
 40
2.000
  1
Burden = 4.7 m x Spacing = 5.4 m @ Stem Length = 3.1 m
 41
 1.0 
1001
MAPTEK_VULCAN
1000
VulcanName=Lava Obj
1000
VulcanGroup=
1000
VulcanValue=0
1000
VulcanDescription=Object created by Lava
1000
VulcanPrimitive=
1000
VulcanLine=0
1000
VulcanPattern=0
1000
VulcanFeature=
  0
TEXT
  8
S4_274RL_BM_V08
 62
1
 10
478186.565
 20
6771797.369
 30
274.000
 40
2.000
  1
Rig = Platform
 41
 1.0 
1001
MAPTEK_VULCAN
1000
VulcanName=Lava Obj
1000
VulcanGroup=
1000
VulcanValue=0
1000
VulcanDescription=Object created by Lava
1000
VulcanPrimitive=
1000
VulcanLine=0
1000
VulcanPattern=0
1000
VulcanFeature=
  0
POLYLINE
  8
S4_274RL_BM_V08
 62
16
 66
     1
 70
     9
1001
MAPTEK_VULCAN
1000
VulcanName=PRESPLITS_262RL_2
1000
VulcanGroup=
1000
VulcanValue=0
1000
VulcanDescription=LINE digitising 20-May-2024 15:41:55
1000
VulcanPrimitive=
1000
VulcanLine=4
1000
VulcanPattern=10
1000
VulcanFeature=
  0
VERTEX
  8
S4_274RL_BM_V08
 62
16
 10
477870.638
 20
6771889.631
 30
262.000
 70
    32
  0
VERTEX
  8
S4_274RL_BM_V08
 62
16
 10
477867.307
 20
6771889.963
 30
262.000
 70
    32
  0
VERTEX
  8
S4_274RL_BM_V08
 62
16
 10
477861.176
 20
6771875.048
 30
262.000
 70
    32
  0
VERTEX
  8
S4_274RL_BM_V08
 62
16
 10
477860.439
 20
6771873.406
 30
262.000
 70
    32
  0
VERTEX
  8
S4_274RL_BM_V08
 62
16
 10
477859.702
 20
6771871.764
 30
262.000
 70
    32
  0
VERTEX
  8
S4_274RL_BM_V08
 62
16
 10
477843.468
 20
6771835.654
 30
262.000
 70
    32
  0
VERTEX
  8
S4_274RL_BM_V08
 62
16
 10
477837.556
 20
6771822.523
 30
262.000
 70
    32
  0
VERTEX
  8
S4_274RL_BM_V08
 62
16
 10
477827.948
 20
6771801.187
 30
262.000
 70
    32
  0
VERTEX
  8
S4_274RL_BM_V08
 62
16
 10
477809.611
 20
6771760.063
 30
262.000
 70
    32
  0
VERTEX
  8
S4_274RL_BM_V08
 62
16
 10
477802.288
 20
6771743.620
 30
262.000
 70
    32
  0
VERTEX
  8
S4_274RL_BM_V08
 62
16
 10
477801.362
 20
6771741.435
 30
262.000
 70
    32
  0
VERTEX
  8
S4_274RL_BM_V08
 62
16
 10
477800.777
 20
6771739.732
 30
262.000
 70
    32
  0
VERTEX
  8
S4_274RL_BM_V08
 62
16
 10
477792.591
 20
6771715.899
 30
262.000
 70
    32
  0
VERTEX
  8
S4_274RL_BM_V08
 62
16
 10
477798.673
 20
6771713.810
 30
262.000
 70
    32
  0
VERTEX
  8
S4_274RL_BM_V08
 62
16
 10
477807.520
 20
6771739.320
 30
262.000
 70
    32
  0
VERTEX
  8
S4_274RL_BM_V08
 62
16
 10
477808.163
 20
6771741.004
 30
262.000
 70
    32
  0
VERTEX
  8
S4_274RL_BM_V08
 62
16
 10
477845.637
 20
6771824.807
 30
262.000
 70
    32
  0
VERTEX
  8
S4_274RL_BM_V08
 62
16
 10
477854.506
 20
6771844.502
 30
262.000
 70
    32
  0
VERTEX
  8
S4_274RL_BM_V08
 62
16
 10
477861.885
 20
6771860.920
 30
262.000
 70
    32
  0
VERTEX
  8
S4_274RL_BM_V08
 62
16
 10
477866.306
 20
6771870.773
 30
262.000
 70
    32
  0
VERTEX
  8
S4_274RL_BM_V08
 62
16
 10
477873.833
 20
6771889.313
 30
262.000
 70
    32
  0
SEQEND
  8
S4_274RL_BM_V08
  0
POLYLINE
  8
S4_274RL_BM_V08
 62
1
 66
     1
 70
     8
1001
MAPTEK_VULCAN
1000
VulcanName=LINE_1
1000
VulcanGroup=
1000
VulcanValue=0
1000
VulcanDescription=LINE digitising 21-May-2024 12:29:04
1000
VulcanPrimitive=
1000
VulcanLine=1
1000
VulcanPattern=0
1000
VulcanFeature=
  0
VERTEX
  8
S4_274RL_BM_V08
 62
1
 10
477791.285
 20
6771725.007
 30
286.000
 70
    32
  0
VERTEX
  8
S4_274RL_BM_V08
 62
1
 10
477814.580
 20
6771733.281
 30
286.000
 70
    32
  0
VERTEX
  8
S4_274RL_BM_V08
 62
1
 10
477849.580
 20
6771740.281
 30
286.000
 70
    32
  0
VERTEX
  8
S4_274RL_BM_V08
 62
1
 10
477875.080
 20
6771749.281
 30
286.000
 70
    32
  0
VERTEX
  8
S4_274RL_BM_V08
 62
1
 10
477892.080
 20
6771754.281
 30
286.000
 70
    32
  0
VERTEX
  8
S4_274RL_BM_V08
 62
1
 10
477910.580
 20
6771757.781
 30
286.000
 70
    32
  0
VERTEX
  8
S4_274RL_BM_V08
 62
1
 10
477922.580
 20
6771758.281
 30
286.000
 70
    32
  0
VERTEX
  8
S4_274RL_BM_V08
 62
1
 10
477931.080
 20
6771761.781
 30
286.000
 70
    32
  0
VERTEX
  8
S4_274RL_BM_V08
 62
1
 10
477937.080
 20
6771762.781
 30
286.000
 70
    32
  0
VERTEX
  8
S4_274RL_BM_V08
 62
1
 10
477950.080
 20
6771762.281
 30
286.000
 70
    32
  0
VERTEX
  8
S4_274RL_BM_V08
 62
1
 10
477973.580
 20
6771762.281
 30
286.000
 70
    32
  0
VERTEX
  8
S4_274RL_BM_V08
 62
1
 10
477983.080
 20
6771761.781
 30
286.000
 70
    32
  0
VERTEX
  8
S4_274RL_BM_V08
 62
1
 10
477985.080
 20
6771807.281
 30
286.000
 70
    32
  0
VERTEX
  8
S4_274RL_BM_V08
 62
1
 10
478007.080
 20
6771806.781
 30
286.000
 70
    32
  0
VERTEX
  8
S4_274RL_BM_V08
 62
1
 10
478023.080
 20
6771805.281
 30
286.000
 70
    32
  0
VERTEX
  8
S4_274RL_BM_V08
 62
1
 10
478035.080
 20
6771804.781
 30
286.000
 70
    32
  0
VERTEX
  8
S4_274RL_BM_V08
 62
1
 10
478060.080
 20
6771804.781
 30
286.000
 70
    32
  0
VERTEX
  8
S4_274RL_BM_V08
 62
1
 10
478080.080
 20
6771801.281
 30
286.000
 70
    32
  0
VERTEX
  8
S4_274RL_BM_V08
 62
1
 10
478108.080
 20
6771799.781
 30
286.000
 70
    32
  0
VERTEX
  8
S4_274RL_BM_V08
 62
1
 10
478126.080
 20
6771800.781
 30
286.000
 70
    32
  0
VERTEX
  8
S4_274RL_BM_V08
 62
1
 10
478146.080
 20
6771798.281
 30
286.000
 70
    32
  0
VERTEX
  8
S4_274RL_BM_V08
 62
1
 10
478169.580
 20
6771789.281
 30
286.000
 70
    32
  0
VERTEX
  8
S4_274RL_BM_V08
 62
1
 10
478192.580
 20
6771776.281
 30
286.000
 70
    32
  0
VERTEX
  8
S4_274RL_BM_V08
 62
1
 10
478215.580
 20
6771764.281
 30
286.000
 70
    32
  0
VERTEX
  8
S4_274RL_BM_V08
 62
1
 10
478243.080
 20
6771754.781
 30
286.000
 70
    32
  0
VERTEX
  8
S4_274RL_BM_V08
 62
1
 10
478254.580
 20
6771747.781
 30
286.000
 70
    32
  0
VERTEX
  8
S4_274RL_BM_V08
 62
1
 10
478258.580
 20
6771739.281
 30
286.000
 70
    32
  0
VERTEX
  8
S4_274RL_BM_V08
 62
1
 10
478256.580
 20
6771719.781
 30
286.000
 70
    32
  0
SEQEND
  8
S4_274RL_BM_V08
  0
POLYLINE
  8
S4_274RL_BM_V08
 62
5
 66
     1
 70
     9
1001
MAPTEK_VULCAN
1000
VulcanName=PRESPLITS_262RL_3_12M
1000
VulcanGroup=
1000
VulcanValue=0
1000
VulcanDescription=LINE digitising 20-May-2024 15:41:55
1000
VulcanPrimitive=
1000
VulcanLine=4
1000
VulcanPattern=10
1000
VulcanFeature=
  0
VERTEX
  8
S4_274RL_BM_V08
 62
5
 10
477873.833
 20
6771889.313
 30
262.000
 70
    32
  0
VERTEX
  8
S4_274RL_BM_V08
 62
5
 10
477883.232
 20
6771912.463
 30
262.000
 70
    32
  0
VERTEX
  8
S4_274RL_BM_V08
 62
5
 10
477883.900
 20
6771914.135
 30
262.000
 70
    32
  0
VERTEX
  8
S4_274RL_BM_V08
 62
5
 10
477884.511
 20
6771915.823
 30
262.000
 70
    32
  0
VERTEX
  8
S4_274RL_BM_V08
 62
5
 10
477886.194
 20
6771920.954
 30
262.000
 70
    32
  0
VERTEX
  8
S4_274RL_BM_V08
 62
5
 10
477913.608
 20
6772012.326
 30
262.000
 70
    32
  0
VERTEX
  8
S4_274RL_BM_V08
 62
5
 10
477914.206
 20
6772014.035
 30
262.000
 70
    32
  0
VERTEX
  8
S4_274RL_BM_V08
 62
5
 10
477926.802
 20
6772037.921
 30
262.000
 70
    32
  0
VERTEX
  8
S4_274RL_BM_V08
 62
5
 10
477940.300
 20
6772063.362
 30
262.000
 70
    32
  0
VERTEX
  8
S4_274RL_BM_V08
 62
5
 10
477938.542
 20
6772065.281
 30
262.000
 70
    32
  0
VERTEX
  8
S4_274RL_BM_V08
 62
5
 10
477911.687
 20
6772016.277
 30
262.000
 70
    32
  0
VERTEX
  8
S4_274RL_BM_V08
 62
5
 10
477910.918
 20
6772014.558
 30
262.000
 70
    32
  0
VERTEX
  8
S4_274RL_BM_V08
 62
5
 10
477902.821
 20
6771987.399
 30
262.000
 70
    32
  0
VERTEX
  8
S4_274RL_BM_V08
 62
5
 10
477894.784
 20
6771960.442
 30
262.000
 70
    32
  0
VERTEX
  8
S4_274RL_BM_V08
 62
5
 10
477884.683
 20
6771926.666
 30
262.000
 70
    32
  0
VERTEX
  8
S4_274RL_BM_V08
 62
5
 10
477881.194
 20
6771916.026
 30
262.000
 70
    32
  0
VERTEX
  8
S4_274RL_BM_V08
 62
5
 10
477870.638
 20
6771889.631
 30
262.000
 70
    32
  0
SEQEND
  8
S4_274RL_BM_V08
  0
POLYLINE
  8
S4_274RL_BM_V08
 62
1
 66
     1
 70
     9
1001
MAPTEK_VULCAN
1000
VulcanName=S4_274_165
1000
VulcanGroup=
1000
VulcanValue=0
1000
VulcanDescription=148488.3 BCM, 421HOLES - 5680 METERS, BxS = 5.2m x 6m @ stem = 3.6m
1000
VulcanPrimitive=
1000
VulcanLine=40
1000
VulcanPattern=0
1000
VulcanFeature=
  0
VERTEX
  8
S4_274RL_BM_V08
 62
1
 10
477996.016
 20
6772208.670
 30
274.000
 70
    32
  0
VERTEX
  8
S4_274RL_BM_V08
 62
1
 10
477996.016
 20
6772208.670
 30
274.000
 70
    32
  0
VERTEX
  8
S4_274RL_BM_V08
 62
1
 10
477985.740
 20
6772198.784
 30
274.000
 70
    32
  0
VERTEX
  8
S4_274RL_BM_V08
 62
1
 10
477977.931
 20
6772190.855
 30
274.000
 70
    32
  0
VERTEX
  8
S4_274RL_BM_V08
 62
1
 10
477969.115
 20
6772181.646
 30
274.000
 70
    32
  0
VERTEX
  8
S4_274RL_BM_V08
 62
1
 10
477963.377
 20
6772175.827
 30
274.000
 70
    32
  0
VERTEX
  8
S4_274RL_BM_V08
 62
1
 10
477957.217
 20
6772169.580
 30
274.000
 70
    32
  0
VERTEX
  8
S4_274RL_BM_V08
 62
1
 10
477939.302
 20
6772143.732
 30
274.000
 70
    32
  0
VERTEX
  8
S4_274RL_BM_V08
 62
1
 10
477914.753
 20
6772111.180
 30
274.000
 70
    32
  0
VERTEX
  8
S4_274RL_BM_V08
 62
1
 10
477906.401
 20
6772095.822
 30
274.000
 70
    32
  0
VERTEX
  8
S4_274RL_BM_V08
 62
1
 10
477899.238
 20
6772083.269
 30
274.000
 70
    32
  0
VERTEX
  8
S4_274RL_BM_V08
 62
1
 10
477892.041
 20
6772070.660
 30
274.000
 70
    32
  0
VERTEX
  8
S4_274RL_BM_V08
 62
1
 10
477884.843
 20
6772058.049
 30
274.000
 70
    32
  0
VERTEX
  8
S4_274RL_BM_V08
 62
1
 10
477871.511
 20
6772034.690
 30
274.000
 70
    32
  0
VERTEX
  8
S4_274RL_BM_V08
 62
1
 10
477869.599
 20
6772030.082
 30
274.000
 70
    32
  0
VERTEX
  8
S4_274RL_BM_V08
 62
1
 10
477864.410
 20
6772017.898
 30
274.000
 70
    32
  0
VERTEX
  8
S4_274RL_BM_V08
 62
1
 10
477859.201
 20
6772005.669
 30
274.000
 70
    32
  0
VERTEX
  8
S4_274RL_BM_V08
 62
1
 10
477853.992
 20
6771993.440
 30
274.000
 70
    32
  0
VERTEX
  8
S4_274RL_BM_V08
 62
1
 10
477848.784
 20
6771981.211
 30
274.000
 70
    32
  0
VERTEX
  8
S4_274RL_BM_V08
 62
1
 10
477888.351
 20
6771965.856
 30
274.000
 70
    32
  0
VERTEX
  8
S4_274RL_BM_V08
 62
1
 10
477888.351
 20
6771965.856
 30
274.000
 70
    32
  0
VERTEX
  8
S4_274RL_BM_V08
 62
1
 10
477893.091
 20
6771978.366
 30
274.000
 70
    32
  0
VERTEX
  8
S4_274RL_BM_V08
 62
1
 10
477897.832
 20
6771990.875
 30
274.000
 70
    32
  0
VERTEX
  8
S4_274RL_BM_V08
 62
1
 10
477902.573
 20
6772003.385
 30
274.000
 70
    32
  0
VERTEX
  8
S4_274RL_BM_V08
 62
1
 10
477907.314
 20
6772015.895
 30
274.000
 70
    32
  0
VERTEX
  8
S4_274RL_BM_V08
 62
1
 10
477908.298
 20
6772017.792
 30
274.000
 70
    32
  0
VERTEX
  8
S4_274RL_BM_V08
 62
1
 10
477911.687
 20
6772016.277
 30
274.000
 70
    32
  0
VERTEX
  8
S4_274RL_BM_V08
 62
1
 10
477938.542
 20
6772065.281
 30
274.000
 70
    32
  0
VERTEX
  8
S4_274RL_BM_V08
 62
1
 10
477940.388
 20
6772068.649
 30
274.000
 70
    32
  0
VERTEX
  8
S4_274RL_BM_V08
 62
1
 10
477947.862
 20
6772065.303
 30
274.000
 70
    32
  0
VERTEX
  8
S4_274RL_BM_V08
 62
1
 10
477973.853
 20
6772106.507
 30
274.000
 70
    32
  0
VERTEX
  8
S4_274RL_BM_V08
 62
1
 10
478028.191
 20
6772170.145
 30
274.000
 70
    32
  0
SEQEND
  8
S4_274RL_BM_V08
  0
POLYLINE
  8
S4_274RL_BM_V08
 62
1
 66
     1
 70
     9
1001
MAPTEK_VULCAN
1000
VulcanName=S4_274_160
1000
VulcanGroup=
1000
VulcanValue=0
1000
VulcanDescription=135695.6 BCM, 473HOLES - 6428 METERS, BxS = 4.7m x 5.4m @ stem = 3.1m
1000
VulcanPrimitive=
1000
VulcanLine=30
1000
VulcanPattern=0
1000
VulcanFeature=
  0
VERTEX
  8
S4_274RL_BM_V08
 62
1
 10
477927.206
 20
6771903.787
 30
274.000
 70
    32
  0
VERTEX
  8
S4_274RL_BM_V08
 62
1
 10
477964.140
 20
6771992.608
 30
274.000
 70
    32
  0
VERTEX
  8
S4_274RL_BM_V08
 62
1
 10
477977.573
 20
6772018.685
 30
274.000
 70
    32
  0
VERTEX
  8
S4_274RL_BM_V08
 62
1
 10
478020.810
 20
6772087.230
 30
274.000
 70
    32
  0
VERTEX
  8
S4_274RL_BM_V08
 62
1
 10
477959.936
 20
6772084.444
 30
274.000
 70
    32
  0
VERTEX
  8
S4_274RL_BM_V08
 62
1
 10
477947.862
 20
6772065.303
 30
274.000
 70
    32
  0
VERTEX
  8
S4_274RL_BM_V08
 62
1
 10
477940.388
 20
6772068.649
 30
274.000
 70
    32
  0
VERTEX
  8
S4_274RL_BM_V08
 62
1
 10
477938.542
 20
6772065.281
 30
274.000
 70
    32
  0
VERTEX
  8
S4_274RL_BM_V08
 62
1
 10
477924.749
 20
6772040.113
 30
274.000
 70
    32
  0
VERTEX
  8
S4_274RL_BM_V08
 62
1
 10
477911.687
 20
6772016.277
 30
274.000
 70
    32
  0
VERTEX
  8
S4_274RL_BM_V08
 62
1
 10
477908.298
 20
6772017.792
 30
274.000
 70
    32
  0
VERTEX
  8
S4_274RL_BM_V08
 62
1
 10
477907.314
 20
6772015.895
 30
274.000
 70
    32
  0
VERTEX
  8
S4_274RL_BM_V08
 62
1
 10
477902.573
 20
6772003.385
 30
274.000
 70
    32
  0
VERTEX
  8
S4_274RL_BM_V08
 62
1
 10
477897.832
 20
6771990.875
 30
274.000
 70
    32
  0
VERTEX
  8
S4_274RL_BM_V08
 62
1
 10
477897.832
 20
6771990.875
 30
274.000
 70
    32
  0
VERTEX
  8
S4_274RL_BM_V08
 62
1
 10
477895.972
 20
6771985.967
 30
274.000
 70
    32
  0
VERTEX
  8
S4_274RL_BM_V08
 62
1
 10
477887.853
 20
6771964.541
 30
274.000
 70
    32
  0
VERTEX
  8
S4_274RL_BM_V08
 62
1
 10
477878.869
 20
6771940.837
 30
274.000
 70
    32
  0
VERTEX
  8
S4_274RL_BM_V08
 62
1
 10
477874.128
 20
6771928.327
 30
274.000
 70
    32
  0
VERTEX
  8
S4_274RL_BM_V08
 62
1
 10
477870.393
 20
6771918.470
 30
274.000
 70
    32
  0
SEQEND
  8
S4_274RL_BM_V08
  0
TEXT
  8
S4_274RL_BM_V08
 62
1
 10
477924.564
 20
6772106.818
 30
274.000
 40
2.000
  1
S4_274_165
 41
 1.0 
1001
MAPTEK_VULCAN
1000
VulcanName=Lava Obj
1000
VulcanGroup=
1000
VulcanValue=0
1000
VulcanDescription=Object created by Lava
1000
VulcanPrimitive=
1000
VulcanLine=0
1000
VulcanPattern=0
1000
VulcanFeature=
  0
TEXT
  8
S4_274RL_BM_V08
 62
1
 10
477924.564
 20
6772103.818
 30
274.000
 40
2.000
  1
12374.0 m^2
 41
 1.0 
1001
MAPTEK_VULCAN
1000
VulcanName=Lava Obj
1000
VulcanGroup=
1000
VulcanValue=0
1000
VulcanDescription=Object created by Lava
1000
VulcanPrimitive=
1000
VulcanLine=0
1000
VulcanPattern=0
1000
VulcanFeature=
  0
TEXT
  8
S4_274RL_BM_V08
 62
1
 10
477924.564
 20
6772100.818
 30
274.000
 40
2.000
  1
148488.3 m^3
 41
 1.0 
1001
MAPTEK_VULCAN
1000
VulcanName=Lava Obj
1000
VulcanGroup=
1000
VulcanValue=0
1000
VulcanDescription=Object created by Lava
1000
VulcanPrimitive=
1000
VulcanLine=0
1000
VulcanPattern=0
1000
VulcanFeature=
  0
TEXT
  8
S4_274RL_BM_V08
 62
1
 10
477924.564
 20
6772097.818
 30
274.000
 40
2.000
  1
421 HOLES, 5680 METERS
 41
 1.0 
1001
MAPTEK_VULCAN
1000
VulcanName=Lava Obj
1000
VulcanGroup=
1000
VulcanValue=0
1000
VulcanDescription=Object created by Lava
1000
VulcanPrimitive=
1000
VulcanLine=0
1000
VulcanPattern=0
1000
VulcanFeature=
  0
TEXT
  8
S4_274RL_BM_V08
 62
1
 10
477924.564
 20
6772094.818
 30
274.000
 40
2.000
  1
Burden = 5.2 m x Spacing = 6 m @ Stem Length = 3.6 m
 41
 1.0 
1001
MAPTEK_VULCAN
1000
VulcanName=Lava Obj
1000
VulcanGroup=
1000
VulcanValue=0
1000
VulcanDescription=Object created by Lava
1000
VulcanPrimitive=
1000
VulcanLine=0
1000
VulcanPattern=0
1000
VulcanFeature=
  0
TEXT
  8
S4_274RL_BM_V08
 62
1
 10
477924.564
 20
6772091.818
 30
274.000
 40
2.000
  1
Rig = Combination
 41
 1.0 
1001
MAPTEK_VULCAN
1000
VulcanName=Lava Obj
1000
VulcanGroup=
1000
VulcanValue=0
1000
VulcanDescription=Object created by Lava
1000
VulcanPrimitive=
1000
VulcanLine=0
1000
VulcanPattern=0
1000
VulcanFeature=
  0
TEXT
  8
S4_274RL_BM_V08
 62
1
 10
477911.247
 20
6771989.861
 30
274.000
 40
2.000
  1
S4_274_160
 41
 1.0 
1001
MAPTEK_VULCAN
1000
VulcanName=Lava Obj
1000
VulcanGroup=
1000
VulcanValue=0
1000
VulcanDescription=Object created by Lava
1000
VulcanPrimitive=
1000
VulcanLine=0
1000
VulcanPattern=0
1000
VulcanFeature=
  0
TEXT
  8
S4_274RL_BM_V08
 62
1
 10
477911.247
 20
6771986.861
 30
274.000
 40
2.000
  1
11308.0 m^2
 41
 1.0 
1001
MAPTEK_VULCAN
1000
VulcanName=Lava Obj
1000
VulcanGroup=
1000
VulcanValue=0
1000
VulcanDescription=Object created by Lava
1000
VulcanPrimitive=
1000
VulcanLine=0
1000
VulcanPattern=0
1000
VulcanFeature=
  0
TEXT
  8
S4_274RL_BM_V08
 62
1
 10
477911.247
 20
6771983.861
 30
274.000
 40
2.000
  1
135695.6 m^3
 41
 1.0 
1001
MAPTEK_VULCAN
1000
VulcanName=Lava Obj
1000
VulcanGroup=
1000
VulcanValue=0
1000
VulcanDescription=Object created by Lava
1000
VulcanPrimitive=
1000
VulcanLine=0
1000
VulcanPattern=0
1000
VulcanFeature=
  0
TEXT
  8
S4_274RL_BM_V08
 62
1
 10
477911.247
 20
6771980.861
 30
274.000
 40
2.000
  1
473 HOLES, 6428 METERS
 41
 1.0 
1001
MAPTEK_VULCAN
1000
VulcanName=Lava Obj
1000
VulcanGroup=
1000
VulcanValue=0
1000
VulcanDescription=Object created by Lava
1000
VulcanPrimitive=
1000
VulcanLine=0
1000
VulcanPattern=0
1000
VulcanFeature=
  0
TEXT
  8
S4_274RL_BM_V08
 62
1
 10
477911.247
 20
6771977.861
 30
274.000
 40
2.000
  1
Burden = 4.7 m x Spacing = 5.4 m @ Stem Length = 3.1 m
 41
 1.0 
1001
MAPTEK_VULCAN
1000
VulcanName=Lava Obj
1000
VulcanGroup=
1000
VulcanValue=0
1000
VulcanDescription=Object created by Lava
1000
VulcanPrimitive=
1000
VulcanLine=0
1000
VulcanPattern=0
1000
VulcanFeature=
  0
TEXT
  8
S4_274RL_BM_V08
 62
1
 10
477911.247
 20
6771974.861
 30
274.000
 40
2.000
  1
Rig = Combination
 41
 1.0 
1001
MAPTEK_VULCAN
1000
VulcanName=Lava Obj
1000
VulcanGroup=
1000
VulcanValue=0
1000
VulcanDescription=Object created by Lava
1000
VulcanPrimitive=
1000
VulcanLine=0
1000
VulcanPattern=0
1000
VulcanFeature=
  0
LINE
  8
S4_274RL_BM_V08
 62
4
 10
478128.437
 20
6771968.487
 30
274.000
 11
478263.794
 21
6771898.200
 31
280.699
1001
MAPTEK_VULCAN
1000
VulcanName=LINE_9
1000
VulcanGroup=
1000
VulcanValue=0
1000
VulcanDescription=LINE digitising 27-May-2024 11:14:05
1000
VulcanPrimitive=
1000
VulcanLine=0
1000
VulcanPattern=0
1000
VulcanFeature=
  0
POLYLINE
  8
S4_274RL_BM_V08
 62
1
 66
     1
 70
     9
1001
MAPTEK_VULCAN
1000
VulcanName=S4_274_155
1000
VulcanGroup=
1000
VulcanValue=0
1000
VulcanDescription=80665.0 BCM, 265HOLES - 3602 METERS, BxS = 4.7m x 5.4m @ stem = 3.1m
1000
VulcanPrimitive=
1000
VulcanLine=30
1000
VulcanPattern=0
1000
VulcanFeature=
  0
VERTEX
  8
S4_274RL_BM_V08
 62
1
 10
478160.711
 20
6772031.138
 30
274.000
 70
    32
  0
VERTEX
  8
S4_274RL_BM_V08
 62
1
 10
478244.719
 20
6771987.857
 30
274.000
 70
    32
  0
VERTEX
  8
S4_274RL_BM_V08
 62
1
 10
478213.391
 20
6771924.373
 30
274.000
 70
    32
  0
VERTEX
  8
S4_274RL_BM_V08
 62
1
 10
478128.419
 20
6771968.356
 30
274.000
 70
    32
  0
VERTEX
  8
S4_274RL_BM_V08
 62
1
 10
478160.711
 20
6772031.138
 30
274.000
 70
    32
  0
SEQEND
  8
S4_274RL_BM_V08
  0
POLYLINE
  8
S4_274RL_BM_V08
 62
1
 66
     1
 70
     9
1001
MAPTEK_VULCAN
1000
VulcanName=S4_274_170
1000
VulcanGroup=
1000
VulcanValue=0
1000
VulcanDescription=112282.5 BCM, 406HOLES - 5528 METERS, BxS = 4.7m x 5.4m @ stem = 3.1m
1000
VulcanPrimitive=
1000
VulcanLine=30
1000
VulcanPattern=0
1000
VulcanFeature=
  0
VERTEX
  8
S4_274RL_BM_V08
 62
1
 10
478291.468
 20
6772071.965
 30
274.000
 70
    32
  0
VERTEX
  8
S4_274RL_BM_V08
 62
1
 10
478285.728
 20
6772064.202
 30
274.000
 70
    32
  0
VERTEX
  8
S4_274RL_BM_V08
 62
1
 10
478299.686
 20
6772083.080
 30
274.000
 70
    32
  0
VERTEX
  8
S4_274RL_BM_V08
 62
1
 10
478299.686
 20
6772083.080
 30
274.000
 70
    32
  0
VERTEX
  8
S4_274RL_BM_V08
 62
1
 10
478285.728
 20
6772064.202
 30
274.000
 70
    32
  0
VERTEX
  8
S4_274RL_BM_V08
 62
1
 10
478265.488
 20
6772029.872
 30
274.000
 70
    32
  0
VERTEX
  8
S4_274RL_BM_V08
 62
1
 10
478256.017
 20
6772009.800
 30
274.000
 70
    32
  0
VERTEX
  8
S4_274RL_BM_V08
 62
1
 10
478244.719
 20
6771987.857
 30
274.000
 70
    32
  0
VERTEX
  8
S4_274RL_BM_V08
 62
1
 10
478232.319
 20
6771962.730
 30
274.000
 70
    32
  0
VERTEX
  8
S4_274RL_BM_V08
 62
1
 10
478232.319
 20
6771962.730
 30
274.000
 70
    32
  0
VERTEX
  8
S4_274RL_BM_V08
 62
1
 10
478213.391
 20
6771924.373
 30
274.000
 70
    32
  0
VERTEX
  8
S4_274RL_BM_V08
 62
1
 10
478263.794
 20
6771898.200
 30
274.000
 70
    32
  0
VERTEX
  8
S4_274RL_BM_V08
 62
1
 10
478263.794
 20
6771898.200
 30
274.000
 70
    32
  0
VERTEX
  8
S4_274RL_BM_V08
 62
1
 10
478276.857
 20
6771924.882
 30
274.000
 70
    32
  0
VERTEX
  8
S4_274RL_BM_V08
 62
1
 10
478278.191
 20
6771927.608
 30
274.000
 70
    32
  0
VERTEX
  8
S4_274RL_BM_V08
 62
1
 10
478286.046
 20
6771942.436
 30
274.000
 70
    32
  0
VERTEX
  8
S4_274RL_BM_V08
 62
1
 10
478287.898
 20
6771947.151
 30
274.000
 70
    32
  0
VERTEX
  8
S4_274RL_BM_V08
 62
1
 10
478292.500
 20
6771961.381
 30
274.000
 70
    32
  0
VERTEX
  8
S4_274RL_BM_V08
 62
1
 10
478292.874
 20
6771962.549
 30
274.000
 70
    32
  0
VERTEX
  8
S4_274RL_BM_V08
 62
1
 10
478297.400
 20
6771976.001
 30
274.000
 70
    32
  0
VERTEX
  8
S4_274RL_BM_V08
 62
1
 10
478301.890
 20
6771989.348
 30
274.000
 70
    32
  0
VERTEX
  8
S4_274RL_BM_V08
 62
1
 10
478303.193
 20
6771993.222
 30
274.000
 70
    32
  0
VERTEX
  8
S4_274RL_BM_V08
 62
1
 10
478305.879
 20
6771998.689
 30
274.000
 70
    32
  0
VERTEX
  8
S4_274RL_BM_V08
 62
1
 10
478309.529
 20
6772006.122
 30
274.000
 70
    32
  0
VERTEX
  8
S4_274RL_BM_V08
 62
1
 10
478309.529
 20
6772006.122
 30
274.000
 70
    32
  0
VERTEX
  8
S4_274RL_BM_V08
 62
1
 10
478312.851
 20
6772011.757
 30
274.000
 70
    32
  0
VERTEX
  8
S4_274RL_BM_V08
 62
1
 10
478313.329
 20
6772012.563
 30
274.000
 70
    32
  0
VERTEX
  8
S4_274RL_BM_V08
 62
1
 10
478314.903
 20
6772015.236
 30
274.000
 70
    32
  0
VERTEX
  8
S4_274RL_BM_V08
 62
1
 10
478327.479
 20
6772036.568
 30
274.000
 70
    32
  0
VERTEX
  8
S4_274RL_BM_V08
 62
1
 10
478339.479
 20
6772052.798
 30
274.000
 70
    32
  0
VERTEX
  8
S4_274RL_BM_V08
 62
1
 10
478299.686
 20
6772083.080
 30
274.000
 70
    32
  0
SEQEND
  8
S4_274RL_BM_V08
  0
POLYLINE
  8
S4_274RL_BM_V08
 62
1
 66
     1
 70
     9
1001
MAPTEK_VULCAN
1000
VulcanName=S4_274_171
1000
VulcanGroup=
1000
VulcanValue=0
1000
VulcanDescription=163794.9 BCM, 538HOLES - 7314 METERS, BxS = 4.7m x 5.4m @ stem = 3.1m
1000
VulcanPrimitive=
1000
VulcanLine=40
1000
VulcanPattern=0
1000
VulcanFeature=
  0
VERTEX
  8
S4_274RL_BM_V08
 62
1
 10
478182.521
 20
6771861.816
 30
274.000
 70
    32
  0
VERTEX
  8
S4_274RL_BM_V08
 62
1
 10
478187.127
 20
6771859.469
 30
274.000
 70
    32
  0
VERTEX
  8
S4_274RL_BM_V08
 62
1
 10
478273.953
 20
6771819.991
 30
274.000
 70
    32
  0
VERTEX
  8
S4_274RL_BM_V08
 62
1
 10
478280.186
 20
6771832.511
 30
274.000
 70
    32
  0
VERTEX
  8
S4_274RL_BM_V08
 62
1
 10
478286.418
 20
6771845.032
 30
274.000
 70
    32
  0
VERTEX
  8
S4_274RL_BM_V08
 62
1
 10
478292.651
 20
6771857.552
 30
274.000
 70
    32
  0
VERTEX
  8
S4_274RL_BM_V08
 62
1
 10
478298.884
 20
6771870.073
 30
274.000
 70
    32
  0
VERTEX
  8
S4_274RL_BM_V08
 62
1
 10
478305.117
 20
6771882.593
 30
274.000
 70
    32
  0
VERTEX
  8
S4_274RL_BM_V08
 62
1
 10
478305.117
 20
6771882.593
 30
274.000
 70
    32
  0
VERTEX
  8
S4_274RL_BM_V08
 62
1
 10
478302.314
 20
6771883.868
 30
274.000
 70
    32
  0
VERTEX
  8
S4_274RL_BM_V08
 62
1
 10
478263.794
 20
6771898.200
 30
274.000
 70
    32
  0
VERTEX
  8
S4_274RL_BM_V08
 62
1
 10
478213.391
 20
6771924.373
 30
274.000
 70
    32
  0
VERTEX
  8
S4_274RL_BM_V08
 62
1
 10
478213.391
 20
6771924.373
 30
274.000
 70
    32
  0
VERTEX
  8
S4_274RL_BM_V08
 62
1
 10
478128.434
 20
6771968.488
 30
274.000
 70
    32
  0
VERTEX
  8
S4_274RL_BM_V08
 62
1
 10
478128.434
 20
6771968.488
 30
274.000
 70
    32
  0
VERTEX
  8
S4_274RL_BM_V08
 62
1
 10
478096.157
 20
6771905.838
 30
274.000
 70
    32
  0
VERTEX
  8
S4_274RL_BM_V08
 62
1
 10
478182.521
 20
6771861.816
 30
274.000
 70
    32
  0
SEQEND
  8
S4_274RL_BM_V08
  0
TEXT
  8
S4_274RL_BM_V08
 62
1
 10
478165.099
 20
6771912.431
 30
274.000
 40
2.000
  1
S4_274_171
 41
 1.0 
1001
MAPTEK_VULCAN
1000
VulcanName=Lava Obj
1000
VulcanGroup=
1000
VulcanValue=0
1000
VulcanDescription=Object created by Lava
1000
VulcanPrimitive=
1000
VulcanLine=0
1000
VulcanPattern=0
1000
VulcanFeature=
  0
TEXT
  8
S4_274RL_BM_V08
 62
1
 10
478165.099
 20
6771909.431
 30
274.000
 40
2.000
  1
13649.6 m^2
 41
 1.0 
1001
MAPTEK_VULCAN
1000
VulcanName=Lava Obj
1000
VulcanGroup=
1000
VulcanValue=0
1000
VulcanDescription=Object created by Lava
1000
VulcanPrimitive=
1000
VulcanLine=0
1000
VulcanPattern=0
1000
VulcanFeature=
  0
TEXT
  8
S4_274RL_BM_V08
 62
1
 10
478165.099
 20
6771906.431
 30
274.000
 40
2.000
  1
163794.9 m^3
 41
 1.0 
1001
MAPTEK_VULCAN
1000
VulcanName=Lava Obj
1000
VulcanGroup=
1000
VulcanValue=0
1000
VulcanDescription=Object created by Lava
1000
VulcanPrimitive=
1000
VulcanLine=0
1000
VulcanPattern=0
1000
VulcanFeature=
  0
TEXT
  8
S4_274RL_BM_V08
 62
1
 10
478165.099
 20
6771903.431
 30
274.000
 40
2.000
  1
538 HOLES, 7314 METERS
 41
 1.0 
1001
MAPTEK_VULCAN
1000
VulcanName=Lava Obj
1000
VulcanGroup=
1000
VulcanValue=0
1000
VulcanDescription=Object created by Lava
1000
VulcanPrimitive=
1000
VulcanLine=0
1000
VulcanPattern=0
1000
VulcanFeature=
  0
TEXT
  8
S4_274RL_BM_V08
 62
1
 10
478165.099
 20
6771900.431
 30
274.000
 40
2.000
  1
Burden = 4.7 m x Spacing = 5.4 m @ Stem Length = 3.1 m
 41
 1.0 
1001
MAPTEK_VULCAN
1000
VulcanName=Lava Obj
1000
VulcanGroup=
1000
VulcanValue=0
1000
VulcanDescription=Object created by Lava
1000
VulcanPrimitive=
1000
VulcanLine=0
1000
VulcanPattern=0
1000
VulcanFeature=
  0
TEXT
  8
S4_274RL_BM_V08
 62
1
 10
478165.099
 20
6771897.431
 30
274.000
 40
2.000
  1
Rig = Combination
 41
 1.0 
1001
MAPTEK_VULCAN
1000
VulcanName=Lava Obj
1000
VulcanGroup=
1000
VulcanValue=0
1000
VulcanDescription=Object created by Lava
1000
VulcanPrimitive=
1000
VulcanLine=0
1000
VulcanPattern=0
1000
VulcanFeature=
  0
TEXT
  8
S4_274RL_BM_V08
 62
1
 10
478244.097
 20
6771977.634
 30
274.000
 40
2.000
  1
S4_274_170
 41
 1.0 
1001
MAPTEK_VULCAN
1000
VulcanName=Lava Obj
1000
VulcanGroup=
1000
VulcanValue=0
1000
VulcanDescription=Object created by Lava
1000
VulcanPrimitive=
1000
VulcanLine=0
1000
VulcanPattern=0
1000
VulcanFeature=
  0
TEXT
  8
S4_274RL_BM_V08
 62
1
 10
478244.097
 20
6771974.634
 30
274.000
 40
2.000
  1
9356.9 m^2
 41
 1.0 
1001
MAPTEK_VULCAN
1000
VulcanName=Lava Obj
1000
VulcanGroup=
1000
VulcanValue=0
1000
VulcanDescription=Object created by Lava
1000
VulcanPrimitive=
1000
VulcanLine=0
1000
VulcanPattern=0
1000
VulcanFeature=
  0
TEXT
  8
S4_274RL_BM_V08
 62
1
 10
478244.097
 20
6771971.634
 30
274.000
 40
2.000
  1
112282.5 m^3
 41
 1.0 
1001
MAPTEK_VULCAN
1000
VulcanName=Lava Obj
1000
VulcanGroup=
1000
VulcanValue=0
1000
VulcanDescription=Object created by Lava
1000
VulcanPrimitive=
1000
VulcanLine=0
1000
VulcanPattern=0
1000
VulcanFeature=
  0
TEXT
  8
S4_274RL_BM_V08
 62
1
 10
478244.097
 20
6771968.634
 30
274.000
 40
2.000
  1
406 HOLES, 5528 METERS
 41
 1.0 
1001
MAPTEK_VULCAN
1000
VulcanName=Lava Obj
1000
VulcanGroup=
1000
VulcanValue=0
1000
VulcanDescription=Object created by Lava
1000
VulcanPrimitive=
1000
VulcanLine=0
1000
VulcanPattern=0
1000
VulcanFeature=
  0
TEXT
  8
S4_274RL_BM_V08
 62
1
 10
478244.097
 20
6771965.634
 30
274.000
 40
2.000
  1
Burden = 4.7 m x Spacing = 5.4 m @ Stem Length = 3.1 m
 41
 1.0 
1001
MAPTEK_VULCAN
1000
VulcanName=Lava Obj
1000
VulcanGroup=
1000
VulcanValue=0
1000
VulcanDescription=Object created by Lava
1000
VulcanPrimitive=
1000
VulcanLine=0
1000
VulcanPattern=0
1000
VulcanFeature=
  0
TEXT
  8
S4_274RL_BM_V08
 62
1
 10
478244.097
 20
6771962.634
 30
274.000
 40
2.000
  1
Rig = Combination
 41
 1.0 
1001
MAPTEK_VULCAN
1000
VulcanName=Lava Obj
1000
VulcanGroup=
1000
VulcanValue=0
1000
VulcanDescription=Object created by Lava
1000
VulcanPrimitive=
1000
VulcanLine=0
1000
VulcanPattern=0
1000
VulcanFeature=
  0
TEXT
  8
S4_274RL_BM_V08
 62
1
 10
478161.805
 20
6771991.420
 30
274.000
 40
2.000
  1
S4_274_155
 41
 1.0 
1001
MAPTEK_VULCAN
1000
VulcanName=Lava Obj
1000
VulcanGroup=
1000
VulcanValue=0
1000
VulcanDescription=Object created by Lava
1000
VulcanPrimitive=
1000
VulcanLine=0
1000
VulcanPattern=0
1000
VulcanFeature=
  0
TEXT
  8
S4_274RL_BM_V08
 62
1
 10
478161.805
 20
6771988.420
 30
274.000
 40
2.000
  1
6722.1 m^2
 41
 1.0 
1001
MAPTEK_VULCAN
1000
VulcanName=Lava Obj
1000
VulcanGroup=
1000
VulcanValue=0
1000
VulcanDescription=Object created by Lava
1000
VulcanPrimitive=
1000
VulcanLine=0
1000
VulcanPattern=0
1000
VulcanFeature=
  0
TEXT
  8
S4_274RL_BM_V08
 62
1
 10
478161.805
 20
6771985.420
 30
274.000
 40
2.000
  1
80665.0 m^3
 41
 1.0 
1001
MAPTEK_VULCAN
1000
VulcanName=Lava Obj
1000
VulcanGroup=
1000
VulcanValue=0
1000
VulcanDescription=Object created by Lava
1000
VulcanPrimitive=
1000
VulcanLine=0
1000
VulcanPattern=0
1000
VulcanFeature=
  0
TEXT
  8
S4_274RL_BM_V08
 62
1
 10
478161.805
 20
6771982.420
 30
274.000
 40
2.000
  1
265 HOLES, 3602 METERS
 41
 1.0 
1001
MAPTEK_VULCAN
1000
VulcanName=Lava Obj
1000
VulcanGroup=
1000
VulcanValue=0
1000
VulcanDescription=Object created by Lava
1000
VulcanPrimitive=
1000
VulcanLine=0
1000
VulcanPattern=0
1000
VulcanFeature=
  0
TEXT
  8
S4_274RL_BM_V08
 62
1
 10
478161.805
 20
6771979.420
 30
274.000
 40
2.000
  1
Burden = 4.7 m x Spacing = 5.4 m @ Stem Length = 3.1 m
 41
 1.0 
1001
MAPTEK_VULCAN
1000
VulcanName=Lava Obj
1000
VulcanGroup=
1000
VulcanValue=0
1000
VulcanDescription=Object created by Lava
1000
VulcanPrimitive=
1000
VulcanLine=0
1000
VulcanPattern=0
1000
VulcanFeature=
  0
TEXT
  8
S4_274RL_BM_V08
 62
1
 10
478161.805
 20
6771976.420
 30
274.000
 40
2.000
  1
Rig = Platform
 41
 1.0 
1001
MAPTEK_VULCAN
1000
VulcanName=Lava Obj
1000
VulcanGroup=
1000
VulcanValue=0
1000
VulcanDescription=Object created by Lava
1000
VulcanPrimitive=
1000
VulcanLine=0
1000
VulcanPattern=0
1000
VulcanFeature=
  0
POLYLINE
  8
S4_274RL_BM_V08
 62
1
 66
     1
 70
     9
1001
MAPTEK_VULCAN
1000
VulcanName=S4_274_154
1000
VulcanGroup=
1000
VulcanValue=0
1000
VulcanDescription=122713.4 BCM, 361HOLES - 4878 METERS, BxS = 5.2m x 6m @ stem = 3.6m
1000
VulcanPrimitive=
1000
VulcanLine=40
1000
VulcanPattern=0
1000
VulcanFeature=
  0
VERTEX
  8
S4_274RL_BM_V08
 62
1
 10
477846.102
 20
6771731.391
 30
274.000
 70
    32
  0
VERTEX
  8
S4_274RL_BM_V08
 62
1
 10
477887.561
 20
6771811.871
 30
274.000
 70
    32
  0
VERTEX
  8
S4_274RL_BM_V08
 62
1
 10
477908.604
 20
6771858.824
 30
274.000
 70
    32
  0
VERTEX
  8
S4_274RL_BM_V08
 62
1
 10
477929.918
 20
6771899.552
 30
274.000
 70
    32
  0
VERTEX
  8
S4_274RL_BM_V08
 62
1
 10
477927.206
 20
6771903.787
 30
274.000
 70
    32
  0
VERTEX
  8
S4_274RL_BM_V08
 62
1
 10
477877.929
 20
6771916.523
 30
274.000
 70
    32
  0
VERTEX
  8
S4_274RL_BM_V08
 62
1
 10
477870.393
 20
6771918.470
 30
274.000
 70
    32
  0
VERTEX
  8
S4_274RL_BM_V08
 62
1
 10
477864.647
 20
6771903.308
 30
274.000
 70
    32
  0
VERTEX
  8
S4_274RL_BM_V08
 62
1
 10
477867.307
 20
6771889.963
 30
274.000
 70
    32
  0
VERTEX
  8
S4_274RL_BM_V08
 62
1
 10
477867.307
 20
6771889.963
 30
274.000
 70
    32
  0
VERTEX
  8
S4_274RL_BM_V08
 62
1
 10
477863.153
 20
6771879.782
 30
274.000
 70
    32
  0
VERTEX
  8
S4_274RL_BM_V08
 62
1
 10
477861.154
 20
6771875.000
 30
274.000
 70
    32
  0
VERTEX
  8
S4_274RL_BM_V08
 62
1
 10
477856.427
 20
6771864.465
 30
274.000
 70
    32
  0
VERTEX
  8
S4_274RL_BM_V08
 62
1
 10
477851.667
 20
6771853.859
 30
274.000
 70
    32
  0
VERTEX
  8
S4_274RL_BM_V08
 62
1
 10
477846.514
 20
6771842.418
 30
274.000
 70
    32
  0
VERTEX
  8
S4_274RL_BM_V08
 62
1
 10
477841.360
 20
6771830.972
 30
274.000
 70
    32
  0
VERTEX
  8
S4_274RL_BM_V08
 62
1
 10
477836.206
 20
6771819.526
 30
274.000
 70
    32
  0
VERTEX
  8
S4_274RL_BM_V08
 62
1
 10
477831.052
 20
6771808.082
 30
274.000
 70
    32
  0
VERTEX
  8
S4_274RL_BM_V08
 62
1
 10
477825.893
 20
6771796.624
 30
274.000
 70
    32
  0
VERTEX
  8
S4_274RL_BM_V08
 62
1
 10
477819.824
 20
6771782.998
 30
274.000
 70
    32
  0
VERTEX
  8
S4_274RL_BM_V08
 62
1
 10
477813.761
 20
6771769.383
 30
274.000
 70
    32
  0
VERTEX
  8
S4_274RL_BM_V08
 62
1
 10
477807.698
 20
6771755.768
 30
274.000
 70
    32
  0
VERTEX
  8
S4_274RL_BM_V08
 62
1
 10
477801.520
 20
6771741.895
 30
274.000
 70
    32
  0
VERTEX
  8
S4_274RL_BM_V08
 62
1
 10
477791.917
 20
6771726.361
 30
274.000
 70
    32
  0
VERTEX
  8
S4_274RL_BM_V08
 62
1
 10
477790.334
 20
6771722.973
 30
274.000
 70
    32
  0
VERTEX
  8
S4_274RL_BM_V08
 62
1
 10
477787.031
 20
6771715.903
 30
274.000
 70
    32
  0
SEQEND
  8
S4_274RL_BM_V08
  0
TEXT
  8
S4_274RL_BM_V08
 62
1
 10
477851.943
 20
6771816.818
 30
274.000
 40
2.000
  1
S4_274_154
 41
 1.0 
1001
MAPTEK_VULCAN
1000
VulcanName=Lava Obj
1000
VulcanGroup=
1000
VulcanValue=0
1000
VulcanDescription=Object created by Lava
1000
VulcanPrimitive=
1000
VulcanLine=0
1000
VulcanPattern=0
1000
VulcanFeature=
  0
TEXT
  8
S4_274RL_BM_V08
 62
1
 10
477851.943
 20
6771813.818
 30
274.000
 40
2.000
  1
10226.1 m^2
 41
 1.0 
1001
MAPTEK_VULCAN
1000
VulcanName=Lava Obj
1000
VulcanGroup=
1000
VulcanValue=0
1000
VulcanDescription=Object created by Lava
1000
VulcanPrimitive=
1000
VulcanLine=0
1000
VulcanPattern=0
1000
VulcanFeature=
  0
TEXT
  8
S4_274RL_BM_V08
 62
1
 10
477851.943
 20
6771810.818
 30
274.000
 40
2.000
  1
122713.4 m^3
 41
 1.0 
1001
MAPTEK_VULCAN
1000
VulcanName=Lava Obj
1000
VulcanGroup=
1000
VulcanValue=0
1000
VulcanDescription=Object created by Lava
1000
VulcanPrimitive=
1000
VulcanLine=0
1000
VulcanPattern=0
1000
VulcanFeature=
  0
TEXT
  8
S4_274RL_BM_V08
 62
1
 10
477851.943
 20
6771807.818
 30
274.000
 40
2.000
  1
361 HOLES, 4878 METERS
 41
 1.0 
1001
MAPTEK_VULCAN
1000
VulcanName=Lava Obj
1000
VulcanGroup=
1000
VulcanValue=0
1000
VulcanDescription=Object created by Lava
1000
VulcanPrimitive=
1000
VulcanLine=0
1000
VulcanPattern=0
1000
VulcanFeature=
  0
TEXT
  8
S4_274RL_BM_V08
 62
1
 10
477851.943
 20
6771804.818
 30
274.000
 40
2.000
  1
Burden = 5.2 m x Spacing = 6 m @ Stem Length = 3.6 m
 41
 1.0 
1001
MAPTEK_VULCAN
1000
VulcanName=Lava Obj
1000
VulcanGroup=
1000
VulcanValue=0
1000
VulcanDescription=Object created by Lava
1000
VulcanPrimitive=
1000
VulcanLine=0
1000
VulcanPattern=0
1000
VulcanFeature=
  0
TEXT
  8
S4_274RL_BM_V08
 62
1
 10
477851.943
 20
6771801.818
 30
274.000
 40
2.000
  1
Rig = Combination
 41
 1.0 
1001
MAPTEK_VULCAN
1000
VulcanName=Lava Obj
1000
VulcanGroup=
1000
VulcanValue=0
1000
VulcanDescription=Object created by Lava
1000
VulcanPrimitive=
1000
VulcanLine=0
1000
VulcanPattern=0
1000
VulcanFeature=
  0
ENDSEC
  0
EOF
