999
********************************
999
*   DXF File - Entities Only   *
999
*        3D Data Format        *
999
*     Output from ENVISAGE     *
999
*     14-Oct-2023 16:48:21     *
999
********************************
  0
SECTION 
  2
HEADER
  9
$ACADVER
  1
AC1009
  9
$EXTMIN
 10
476000.000
 20
6770000.000
 30
0.000
  9
$EXTMAX
 10
482000.000
 20
6774000.000
 30
600.000
  0
ENDSEC
  0
SECTION
  2
TABLES
  0
TABLE
  2
APPID
  2
ACAD
 70
     0
  0
APPID
  2
MAPTEK_VULCAN
 70
     0
  0
ENDTAB
  0
ENDSEC
  0
SECTION
  2
ENTITIES
  0
POLYLINE
  8
PLAYPIT
 62
3
 66
     1
 70
     9
1001
MAPTEK_VULCAN
1000
VulcanName=CREST300
1000
VulcanGroup=BLUE
1000
VulcanValue=0
1000
VulcanDescription=poly
1000
VulcanPrimitive=
1000
VulcanLine=0
1000
VulcanPattern=0
1000
VulcanFeature=
  0
VERTEX
  8
PLAYPIT
 62
3
 10
477038.219
 20
6772455.020
 30
300.000
 70
    32
  0
VERTEX
  8
PLAYPIT
 62
3
 10
476939.206
 20
6772424.231
 30
300.000
 70
    32
  0
VERTEX
  8
PLAYPIT
 62
3
 10
476934.010
 20
6772422.916
 30
300.000
 70
    32
  0
VERTEX
  8
PLAYPIT
 62
3
 10
476928.703
 20
6772422.165
 30
300.000
 70
    32
  0
VERTEX
  8
PLAYPIT
 62
3
 10
476923.346
 20
6772421.986
 30
300.000
 70
    32
  0
VERTEX
  8
PLAYPIT
 62
3
 10
476869.045
 20
6772423.087
 30
300.000
 70
    32
  0
VERTEX
  8
PLAYPIT
 62
3
 10
476863.883
 20
6772423.873
 30
300.000
 70
    32
  0
VERTEX
  8
PLAYPIT
 62
3
 10
476859.101
 20
6772425.969
 30
300.000
 70
    32
  0
VERTEX
  8
PLAYPIT
 62
3
 10
476855.024
 20
6772429.230
 30
300.000
 70
    32
  0
VERTEX
  8
PLAYPIT
 62
3
 10
476834.692
 20
6772450.404
 30
300.000
 70
    32
  0
VERTEX
  8
PLAYPIT
 62
3
 10
476830.666
 20
6772456.540
 30
300.000
 70
    32
  0
VERTEX
  8
PLAYPIT
 62
3
 10
476829.125
 20
6772463.716
 30
300.000
 70
    32
  0
VERTEX
  8
PLAYPIT
 62
3
 10
476830.276
 20
6772470.964
 30
300.000
 70
    32
  0
VERTEX
  8
PLAYPIT
 62
3
 10
476860.461
 20
6772555.751
 30
300.000
 70
    32
  0
VERTEX
  8
PLAYPIT
 62
3
 10
476862.975
 20
6772561.392
 30
300.000
 70
    32
  0
VERTEX
  8
PLAYPIT
 62
3
 10
476866.328
 20
6772566.579
 30
300.000
 70
    32
  0
VERTEX
  8
PLAYPIT
 62
3
 10
476870.439
 20
6772571.188
 30
300.000
 70
    32
  0
VERTEX
  8
PLAYPIT
 62
3
 10
476892.882
 20
6772592.739
 30
300.000
 70
    32
  0
VERTEX
  8
PLAYPIT
 62
3
 10
476897.653
 20
6772596.659
 30
300.000
 70
    32
  0
VERTEX
  8
PLAYPIT
 62
3
 10
476902.971
 20
6772599.799
 30
300.000
 70
    32
  0
VERTEX
  8
PLAYPIT
 62
3
 10
476908.710
 20
6772602.083
 30
300.000
 70
    32
  0
VERTEX
  8
PLAYPIT
 62
3
 10
476982.847
 20
6772625.137
 30
300.000
 70
    32
  0
VERTEX
  8
PLAYPIT
 62
3
 10
476997.425
 20
6772626.849
 30
300.000
 70
    32
  0
VERTEX
  8
PLAYPIT
 62
3
 10
477011.640
 20
6772623.188
 30
300.000
 70
    32
  0
VERTEX
  8
PLAYPIT
 62
3
 10
477023.576
 20
6772614.646
 30
300.000
 70
    32
  0
VERTEX
  8
PLAYPIT
 62
3
 10
477032.478
 20
6772605.376
 30
300.000
 70
    32
  0
VERTEX
  8
PLAYPIT
 62
3
 10
477038.593
 20
6772600.483
 30
300.000
 70
    32
  0
VERTEX
  8
PLAYPIT
 62
3
 10
477045.767
 20
6772597.340
 30
300.000
 70
    32
  0
VERTEX
  8
PLAYPIT
 62
3
 10
477053.509
 20
6772596.161
 30
300.000
 70
    32
  0
VERTEX
  8
PLAYPIT
 62
3
 10
477099.357
 20
6772595.231
 30
300.000
 70
    32
  0
VERTEX
  8
PLAYPIT
 62
3
 10
477107.141
 20
6772596.096
 30
300.000
 70
    32
  0
VERTEX
  8
PLAYPIT
 62
3
 10
477114.436
 20
6772598.946
 30
300.000
 70
    32
  0
VERTEX
  8
PLAYPIT
 62
3
 10
477120.744
 20
6772603.587
 30
300.000
 70
    32
  0
VERTEX
  8
PLAYPIT
 62
3
 10
477135.895
 20
6772618.135
 30
300.000
 70
    32
  0
VERTEX
  8
PLAYPIT
 62
3
 10
477144.306
 20
6772624.323
 30
300.000
 70
    32
  0
VERTEX
  8
PLAYPIT
 62
3
 10
477154.033
 20
6772628.123
 30
300.000
 70
    32
  0
VERTEX
  8
PLAYPIT
 62
3
 10
477164.411
 20
6772629.275
 30
300.000
 70
    32
  0
VERTEX
  8
PLAYPIT
 62
3
 10
477272.673
 20
6772627.081
 30
300.000
 70
    32
  0
VERTEX
  8
PLAYPIT
 62
3
 10
477282.996
 20
6772625.508
 30
300.000
 70
    32
  0
VERTEX
  8
PLAYPIT
 62
3
 10
477292.560
 20
6772621.318
 30
300.000
 70
    32
  0
VERTEX
  8
PLAYPIT
 62
3
 10
477300.714
 20
6772614.794
 30
300.000
 70
    32
  0
VERTEX
  8
PLAYPIT
 62
3
 10
477312.394
 20
6772602.631
 30
300.000
 70
    32
  0
VERTEX
  8
PLAYPIT
 62
3
 10
477318.581
 20
6772594.220
 30
300.000
 70
    32
  0
VERTEX
  8
PLAYPIT
 62
3
 10
477322.381
 20
6772584.494
 30
300.000
 70
    32
  0
VERTEX
  8
PLAYPIT
 62
3
 10
477323.534
 20
6772574.115
 30
300.000
 70
    32
  0
VERTEX
  8
PLAYPIT
 62
3
 10
477322.772
 20
6772536.549
 30
300.000
 70
    32
  0
VERTEX
  8
PLAYPIT
 62
3
 10
477321.200
 20
6772526.226
 30
300.000
 70
    32
  0
VERTEX
  8
PLAYPIT
 62
3
 10
477317.009
 20
6772516.662
 30
300.000
 70
    32
  0
VERTEX
  8
PLAYPIT
 62
3
 10
477310.486
 20
6772508.508
 30
300.000
 70
    32
  0
VERTEX
  8
PLAYPIT
 62
3
 10
477271.725
 20
6772471.288
 30
300.000
 70
    32
  0
VERTEX
  8
PLAYPIT
 62
3
 10
477228.082
 20
6772490.633
 30
300.000
 70
    32
  0
VERTEX
  8
PLAYPIT
 62
3
 10
477217.018
 20
6772468.214
 30
300.000
 70
    32
  0
VERTEX
  8
PLAYPIT
 62
3
 10
477163.884
 20
6772491.407
 30
300.000
 70
    32
  0
VERTEX
  8
PLAYPIT
 62
3
 10
477151.829
 20
6772495.198
 30
300.000
 70
    32
  0
VERTEX
  8
PLAYPIT
 62
3
 10
477138.391
 20
6772496.413
 30
300.000
 70
    32
  0
VERTEX
  8
PLAYPIT
 62
3
 10
477127.226
 20
6772494.992
 30
300.000
 70
    32
  0
VERTEX
  8
PLAYPIT
 62
3
 10
477122.100
 20
6772488.382
 30
300.000
 70
    32
  0
VERTEX
  8
PLAYPIT
 62
3
 10
477116.864
 20
6772482.864
 30
300.000
 70
    32
  0
VERTEX
  8
PLAYPIT
 62
3
 10
477110.227
 20
6772478.249
 30
300.000
 70
    32
  0
VERTEX
  8
PLAYPIT
 62
3
 10
477103.231
 20
6772475.262
 30
300.000
 70
    32
  0
SEQEND
  8
PLAYPIT
  0
POLYLINE
  8
PLAYPIT
 62
4
 66
     1
 70
     9
1001
MAPTEK_VULCAN
1000
VulcanName=TOE300
1000
VulcanGroup=RED
1000
VulcanValue=300.01
1000
VulcanDescription=poly
1000
VulcanPrimitive=
1000
VulcanLine=0
1000
VulcanPattern=0
1000
VulcanFeature=PIT$BERM
  0
VERTEX
  8
PLAYPIT
 62
4
 10
477040.001
 20
6772449.291
 30
300.000
 70
    32
  0
VERTEX
  8
PLAYPIT
 62
4
 10
476940.834
 20
6772418.454
 30
300.000
 70
    32
  0
VERTEX
  8
PLAYPIT
 62
4
 10
476935.170
 20
6772417.021
 30
300.000
 70
    32
  0
VERTEX
  8
PLAYPIT
 62
4
 10
476929.225
 20
6772416.179
 30
300.000
 70
    32
  0
VERTEX
  8
PLAYPIT
 62
4
 10
476923.385
 20
6772415.984
 30
300.000
 70
    32
  0
VERTEX
  8
PLAYPIT
 62
4
 10
476868.530
 20
6772417.096
 30
300.000
 70
    32
  0
VERTEX
  8
PLAYPIT
 62
4
 10
476862.199
 20
6772418.061
 30
300.000
 70
    32
  0
VERTEX
  8
PLAYPIT
 62
4
 10
476855.969
 20
6772420.790
 30
300.000
 70
    32
  0
VERTEX
  8
PLAYPIT
 62
4
 10
476850.969
 20
6772424.791
 30
300.000
 70
    32
  0
VERTEX
  8
PLAYPIT
 62
4
 10
476829.980
 20
6772446.649
 30
300.000
 70
    32
  0
VERTEX
  8
PLAYPIT
 62
4
 10
476825.035
 20
6772454.186
 30
300.000
 70
    32
  0
VERTEX
  8
PLAYPIT
 62
4
 10
476823.024
 20
6772463.551
 30
300.000
 70
    32
  0
VERTEX
  8
PLAYPIT
 62
4
 10
476824.437
 20
6772472.454
 30
300.000
 70
    32
  0
VERTEX
  8
PLAYPIT
 62
4
 10
476854.886
 20
6772557.982
 30
300.000
 70
    32
  0
VERTEX
  8
PLAYPIT
 62
4
 10
476857.684
 20
6772564.259
 30
300.000
 70
    32
  0
VERTEX
  8
PLAYPIT
 62
4
 10
476861.541
 20
6772570.226
 30
300.000
 70
    32
  0
VERTEX
  8
PLAYPIT
 62
4
 10
476866.116
 20
6772575.355
 30
300.000
 70
    32
  0
VERTEX
  8
PLAYPIT
 62
4
 10
476888.893
 20
6772597.227
 30
300.000
 70
    32
  0
VERTEX
  8
PLAYPIT
 62
4
 10
476894.203
 20
6772601.590
 30
300.000
 70
    32
  0
VERTEX
  8
PLAYPIT
 62
4
 10
476900.321
 20
6772605.202
 30
300.000
 70
    32
  0
VERTEX
  8
PLAYPIT
 62
4
 10
476906.706
 20
6772607.743
 30
300.000
 70
    32
  0
VERTEX
  8
PLAYPIT
 62
4
 10
476981.596
 20
6772631.031
 30
300.000
 70
    32
  0
VERTEX
  8
PLAYPIT
 62
4
 10
476997.837
 20
6772632.939
 30
300.000
 70
    32
  0
VERTEX
  8
PLAYPIT
 62
4
 10
477014.221
 20
6772628.719
 30
300.000
 70
    32
  0
VERTEX
  8
PLAYPIT
 62
4
 10
477027.520
 20
6772619.202
 30
300.000
 70
    32
  0
VERTEX
  8
PLAYPIT
 62
4
 10
477036.534
 20
6772609.815
 30
300.000
 70
    32
  0
VERTEX
  8
PLAYPIT
 62
4
 10
477041.725
 20
6772605.662
 30
300.000
 70
    32
  0
VERTEX
  8
PLAYPIT
 62
4
 10
477047.451
 20
6772603.153
 30
300.000
 70
    32
  0
VERTEX
  8
PLAYPIT
 62
4
 10
477054.024
 20
6772602.152
 30
300.000
 70
    32
  0
VERTEX
  8
PLAYPIT
 62
4
 10
477099.086
 20
6772601.238
 30
300.000
 70
    32
  0
VERTEX
  8
PLAYPIT
 62
4
 10
477105.694
 20
6772601.972
 30
300.000
 70
    32
  0
VERTEX
  8
PLAYPIT
 62
4
 10
477111.517
 20
6772604.247
 30
300.000
 70
    32
  0
VERTEX
  8
PLAYPIT
 62
4
 10
477116.872
 20
6772608.187
 30
300.000
 70
    32
  0
VERTEX
  8
PLAYPIT
 62
4
 10
477132.023
 20
6772622.735
 30
300.000
 70
    32
  0
VERTEX
  8
PLAYPIT
 62
4
 10
477141.387
 20
6772629.624
 30
300.000
 70
    32
  0
VERTEX
  8
PLAYPIT
 62
4
 10
477152.585
 20
6772633.999
 30
300.000
 70
    32
  0
VERTEX
  8
PLAYPIT
 62
4
 10
477164.139
 20
6772635.282
 30
300.000
 70
    32
  0
VERTEX
  8
PLAYPIT
 62
4
 10
477273.188
 20
6772633.072
 30
300.000
 70
    32
  0
VERTEX
  8
PLAYPIT
 62
4
 10
477284.680
 20
6772631.321
 30
300.000
 70
    32
  0
VERTEX
  8
PLAYPIT
 62
4
 10
477295.692
 20
6772626.496
 30
300.000
 70
    32
  0
VERTEX
  8
PLAYPIT
 62
4
 10
477304.769
 20
6772619.234
 30
300.000
 70
    32
  0
VERTEX
  8
PLAYPIT
 62
4
 10
477316.994
 20
6772606.503
 30
300.000
 70
    32
  0
VERTEX
  8
PLAYPIT
 62
4
 10
477323.883
 20
6772597.139
 30
300.000
 70
    32
  0
VERTEX
  8
PLAYPIT
 62
4
 10
477328.257
 20
6772585.941
 30
300.000
 70
    32
  0
VERTEX
  8
PLAYPIT
 62
4
 10
477329.541
 20
6772574.387
 30
300.000
 70
    32
  0
VERTEX
  8
PLAYPIT
 62
4
 10
477328.763
 20
6772536.035
 30
300.000
 70
    32
  0
VERTEX
  8
PLAYPIT
 62
4
 10
477321.650
 20
6772442.918
 30
300.000
 70
    32
  0
VERTEX
  8
PLAYPIT
 62
4
 10
477308.092
 20
6772427.469
 30
300.000
 70
    32
  0
VERTEX
  8
PLAYPIT
 62
4
 10
477233.507
 20
6772487.005
 30
300.000
 70
    32
  0
VERTEX
  8
PLAYPIT
 62
4
 10
477217.018
 20
6772468.214
 30
300.000
 70
    32
  0
VERTEX
  8
PLAYPIT
 62
4
 10
477197.806
 20
6772466.467
 30
300.000
 70
    32
  0
VERTEX
  8
PLAYPIT
 62
4
 10
477192.763
 20
6772466.374
 30
300.000
 70
    32
  0
VERTEX
  8
PLAYPIT
 62
4
 10
477187.759
 20
6772467.006
 30
300.000
 70
    32
  0
VERTEX
  8
PLAYPIT
 62
4
 10
477182.898
 20
6772468.351
 30
300.000
 70
    32
  0
VERTEX
  8
PLAYPIT
 62
4
 10
477158.972
 20
6772476.869
 30
300.000
 70
    32
  0
VERTEX
  8
PLAYPIT
 62
4
 10
477149.503
 20
6772479.133
 30
300.000
 70
    32
  0
VERTEX
  8
PLAYPIT
 62
4
 10
477140.092
 20
6772479.324
 30
300.000
 70
    32
  0
VERTEX
  8
PLAYPIT
 62
4
 10
477130.539
 20
6772477.445
 30
300.000
 70
    32
  0
SEQEND
  8
PLAYPIT
  0
POLYLINE
  8
PLAYPIT
 62
3
 66
     1
 70
     9
1001
MAPTEK_VULCAN
1000
VulcanName=CREST310
1000
VulcanGroup=BLUE
1000
VulcanValue=309.99
1000
VulcanDescription=poly
1000
VulcanPrimitive=
1000
VulcanLine=0
1000
VulcanPattern=0
1000
VulcanFeature=PIT$PROJ
  0
VERTEX
  8
PLAYPIT
 62
3
 10
477041.385
 20
6772444.838
 30
310.000
 70
    32
  0
VERTEX
  8
PLAYPIT
 62
3
 10
476941.978
 20
6772413.933
 30
310.000
 70
    32
  0
VERTEX
  8
PLAYPIT
 62
3
 10
476935.823
 20
6772412.404
 30
310.000
 70
    32
  0
VERTEX
  8
PLAYPIT
 62
3
 10
476929.380
 20
6772411.519
 30
310.000
 70
    32
  0
VERTEX
  8
PLAYPIT
 62
3
 10
476923.291
 20
6772411.322
 30
310.000
 70
    32
  0
VERTEX
  8
PLAYPIT
 62
3
 10
476868.130
 20
6772412.440
 30
310.000
 70
    32
  0
VERTEX
  8
PLAYPIT
 62
3
 10
476860.889
 20
6772413.543
 30
310.000
 70
    32
  0
VERTEX
  8
PLAYPIT
 62
3
 10
476853.536
 20
6772416.765
 30
310.000
 70
    32
  0
VERTEX
  8
PLAYPIT
 62
3
 10
476847.817
 20
6772421.341
 30
310.000
 70
    32
  0
VERTEX
  8
PLAYPIT
 62
3
 10
476826.317
 20
6772443.730
 30
310.000
 70
    32
  0
VERTEX
  8
PLAYPIT
 62
3
 10
476820.659
 20
6772452.356
 30
310.000
 70
    32
  0
VERTEX
  8
PLAYPIT
 62
3
 10
476818.282
 20
6772463.423
 30
310.000
 70
    32
  0
VERTEX
  8
PLAYPIT
 62
3
 10
476819.900
 20
6772473.611
 30
310.000
 70
    32
  0
VERTEX
  8
PLAYPIT
 62
3
 10
476850.627
 20
6772559.881
 30
310.000
 70
    32
  0
VERTEX
  8
PLAYPIT
 62
3
 10
476853.572
 20
6772566.488
 30
310.000
 70
    32
  0
VERTEX
  8
PLAYPIT
 62
3
 10
476857.821
 20
6772573.061
 30
310.000
 70
    32
  0
VERTEX
  8
PLAYPIT
 62
3
 10
476862.886
 20
6772578.718
 30
310.000
 70
    32
  0
VERTEX
  8
PLAYPIT
 62
3
 10
476885.933
 20
6772600.830
 30
310.000
 70
    32
  0
VERTEX
  8
PLAYPIT
 62
3
 10
476891.521
 20
6772605.422
 30
310.000
 70
    32
  0
VERTEX
  8
PLAYPIT
 62
3
 10
476898.262
 20
6772609.401
 30
310.000
 70
    32
  0
VERTEX
  8
PLAYPIT
 62
3
 10
476905.322
 20
6772612.196
 30
310.000
 70
    32
  0
VERTEX
  8
PLAYPIT
 62
3
 10
476980.623
 20
6772635.612
 30
310.000
 70
    32
  0
VERTEX
  8
PLAYPIT
 62
3
 10
476998.158
 20
6772637.672
 30
310.000
 70
    32
  0
VERTEX
  8
PLAYPIT
 62
3
 10
477016.227
 20
6772633.018
 30
310.000
 70
    32
  0
VERTEX
  8
PLAYPIT
 62
3
 10
477030.584
 20
6772622.743
 30
310.000
 70
    32
  0
VERTEX
  8
PLAYPIT
 62
3
 10
477039.685
 20
6772613.265
 30
310.000
 70
    32
  0
VERTEX
  8
PLAYPIT
 62
3
 10
477044.159
 20
6772609.687
 30
310.000
 70
    32
  0
VERTEX
  8
PLAYPIT
 62
3
 10
477048.760
 20
6772607.670
 30
310.000
 70
    32
  0
VERTEX
  8
PLAYPIT
 62
3
 10
477054.424
 20
6772606.808
 30
310.000
 70
    32
  0
VERTEX
  8
PLAYPIT
 62
3
 10
477098.875
 20
6772605.907
 30
310.000
 70
    32
  0
VERTEX
  8
PLAYPIT
 62
3
 10
477104.569
 20
6772606.539
 30
310.000
 70
    32
  0
VERTEX
  8
PLAYPIT
 62
3
 10
477109.248
 20
6772608.367
 30
310.000
 70
    32
  0
VERTEX
  8
PLAYPIT
 62
3
 10
477113.863
 20
6772611.762
 30
310.000
 70
    32
  0
VERTEX
  8
PLAYPIT
 62
3
 10
477129.014
 20
6772626.311
 30
310.000
 70
    32
  0
VERTEX
  8
PLAYPIT
 62
3
 10
477139.119
 20
6772633.744
 30
310.000
 70
    32
  0
VERTEX
  8
PLAYPIT
 62
3
 10
477151.460
 20
6772638.565
 30
310.000
 70
    32
  0
VERTEX
  8
PLAYPIT
 62
3
 10
477163.928
 20
6772639.950
 30
310.000
 70
    32
  0
VERTEX
  8
PLAYPIT
 62
3
 10
477273.588
 20
6772637.728
 30
310.000
 70
    32
  0
VERTEX
  8
PLAYPIT
 62
3
 10
477285.990
 20
6772635.838
 30
310.000
 70
    32
  0
VERTEX
  8
PLAYPIT
 62
3
 10
477298.125
 20
6772630.521
 30
310.000
 70
    32
  0
VERTEX
  8
PLAYPIT
 62
3
 10
477307.921
 20
6772622.684
 30
310.000
 70
    32
  0
VERTEX
  8
PLAYPIT
 62
3
 10
477320.569
 20
6772609.513
 30
310.000
 70
    32
  0
VERTEX
  8
PLAYPIT
 62
3
 10
477328.003
 20
6772599.408
 30
310.000
 70
    32
  0
VERTEX
  8
PLAYPIT
 62
3
 10
477332.824
 20
6772587.066
 30
310.000
 70
    32
  0
VERTEX
  8
PLAYPIT
 62
3
 10
477334.209
 20
6772574.598
 30
310.000
 70
    32
  0
VERTEX
  8
PLAYPIT
 62
3
 10
477333.419
 20
6772535.635
 30
310.000
 70
    32
  0
VERTEX
  8
PLAYPIT
 62
3
 10
477326.299
 20
6772442.563
 30
310.000
 70
    32
  0
VERTEX
  8
PLAYPIT
 62
3
 10
477325.155
 20
6772439.843
 30
310.000
 70
    32
  0
VERTEX
  8
PLAYPIT
 62
3
 10
477311.741
 20
6772424.557
 30
310.000
 70
    32
  0
VERTEX
  8
PLAYPIT
 62
3
 10
477308.665
 20
6772421.052
 30
310.000
 70
    32
  0
VERTEX
  8
PLAYPIT
 62
3
 10
477292.176
 20
6772402.261
 30
310.000
 70
    32
  0
VERTEX
  8
PLAYPIT
 62
3
 10
477215.581
 20
6772463.401
 30
310.000
 70
    32
  0
VERTEX
  8
PLAYPIT
 62
3
 10
477198.061
 20
6772461.808
 30
310.000
 70
    32
  0
VERTEX
  8
PLAYPIT
 62
3
 10
477192.513
 20
6772461.705
 30
310.000
 70
    32
  0
VERTEX
  8
PLAYPIT
 62
3
 10
477186.841
 20
6772462.422
 30
310.000
 70
    32
  0
VERTEX
  8
PLAYPIT
 62
3
 10
477181.710
 20
6772463.841
 30
310.000
 70
    32
  0
VERTEX
  8
PLAYPIT
 62
3
 10
477157.887
 20
6772472.333
 30
310.000
 70
    32
  0
VERTEX
  8
PLAYPIT
 62
3
 10
477148.906
 20
6772474.482
 30
310.000
 70
    32
  0
VERTEX
  8
PLAYPIT
 62
3
 10
477140.500
 20
6772474.652
 30
310.000
 70
    32
  0
VERTEX
  8
PLAYPIT
 62
3
 10
477131.923
 20
6772472.992
 30
310.000
 70
    32
  0
SEQEND
  8
PLAYPIT
  0
POLYLINE
  8
PLAYPIT
 62
4
 66
     1
 70
     9
1001
MAPTEK_VULCAN
1000
VulcanName=TOE290
1000
VulcanGroup=RED
1000
VulcanValue=290.01
1000
VulcanDescription=poly
1000
VulcanPrimitive=
1000
VulcanLine=0
1000
VulcanPattern=0
1000
VulcanFeature=PIT$PROJ
  0
VERTEX
  8
PLAYPIT
 62
4
 10
477036.834
 20
6772459.473
 30
290.000
 70
    32
  0
VERTEX
  8
PLAYPIT
 62
4
 10
476938.062
 20
6772428.752
 30
290.000
 70
    32
  0
VERTEX
  8
PLAYPIT
 62
4
 10
476933.356
 20
6772427.533
 30
290.000
 70
    32
  0
VERTEX
  8
PLAYPIT
 62
4
 10
476928.547
 20
6772426.826
 30
290.000
 70
    32
  0
VERTEX
  8
PLAYPIT
 62
4
 10
476923.440
 20
6772426.648
 30
290.000
 70
    32
  0
VERTEX
  8
PLAYPIT
 62
4
 10
476869.445
 20
6772427.743
 30
290.000
 70
    32
  0
VERTEX
  8
PLAYPIT
 62
4
 10
476865.192
 20
6772428.391
 30
290.000
 70
    32
  0
VERTEX
  8
PLAYPIT
 62
4
 10
476861.535
 20
6772429.993
 30
290.000
 70
    32
  0
VERTEX
  8
PLAYPIT
 62
4
 10
476858.176
 20
6772432.681
 30
290.000
 70
    32
  0
VERTEX
  8
PLAYPIT
 62
4
 10
476838.354
 20
6772453.323
 30
290.000
 70
    32
  0
VERTEX
  8
PLAYPIT
 62
4
 10
476835.042
 20
6772458.371
 30
290.000
 70
    32
  0
VERTEX
  8
PLAYPIT
 62
4
 10
476833.867
 20
6772463.844
 30
290.000
 70
    32
  0
VERTEX
  8
PLAYPIT
 62
4
 10
476834.814
 20
6772469.807
 30
290.000
 70
    32
  0
VERTEX
  8
PLAYPIT
 62
4
 10
476864.720
 20
6772553.853
 30
290.000
 70
    32
  0
VERTEX
  8
PLAYPIT
 62
4
 10
476867.088
 20
6772559.164
 30
290.000
 70
    32
  0
VERTEX
  8
PLAYPIT
 62
4
 10
476870.048
 20
6772563.744
 30
290.000
 70
    32
  0
VERTEX
  8
PLAYPIT
 62
4
 10
476873.669
 20
6772567.824
 30
290.000
 70
    32
  0
VERTEX
  8
PLAYPIT
 62
4
 10
476895.842
 20
6772589.136
 30
290.000
 70
    32
  0
VERTEX
  8
PLAYPIT
 62
4
 10
476900.335
 20
6772592.827
 30
290.000
 70
    32
  0
VERTEX
  8
PLAYPIT
 62
4
 10
476905.031
 20
6772595.600
 30
290.000
 70
    32
  0
VERTEX
  8
PLAYPIT
 62
4
 10
476910.094
 20
6772597.630
 30
290.000
 70
    32
  0
VERTEX
  8
PLAYPIT
 62
4
 10
476983.820
 20
6772620.556
 30
290.000
 70
    32
  0
VERTEX
  8
PLAYPIT
 62
4
 10
476997.105
 20
6772622.117
 30
290.000
 70
    32
  0
VERTEX
  8
PLAYPIT
 62
4
 10
477009.634
 20
6772618.890
 30
290.000
 70
    32
  0
VERTEX
  8
PLAYPIT
 62
4
 10
477020.512
 20
6772611.105
 30
290.000
 70
    32
  0
VERTEX
  8
PLAYPIT
 62
4
 10
477029.326
 20
6772601.926
 30
290.000
 70
    32
  0
VERTEX
  8
PLAYPIT
 62
4
 10
477036.160
 20
6772596.459
 30
290.000
 70
    32
  0
VERTEX
  8
PLAYPIT
 62
4
 10
477044.458
 20
6772592.823
 30
290.000
 70
    32
  0
VERTEX
  8
PLAYPIT
 62
4
 10
477053.109
 20
6772591.505
 30
290.000
 70
    32
  0
VERTEX
  8
PLAYPIT
 62
4
 10
477099.568
 20
6772590.563
 30
290.000
 70
    32
  0
VERTEX
  8
PLAYPIT
 62
4
 10
477108.266
 20
6772591.529
 30
290.000
 70
    32
  0
VERTEX
  8
PLAYPIT
 62
4
 10
477116.704
 20
6772594.826
 30
290.000
 70
    32
  0
VERTEX
  8
PLAYPIT
 62
4
 10
477123.754
 20
6772600.011
 30
290.000
 70
    32
  0
VERTEX
  8
PLAYPIT
 62
4
 10
477138.904
 20
6772614.560
 30
290.000
 70
    32
  0
VERTEX
  8
PLAYPIT
 62
4
 10
477146.575
 20
6772620.203
 30
290.000
 70
    32
  0
VERTEX
  8
PLAYPIT
 62
4
 10
477155.158
 20
6772623.556
 30
290.000
 70
    32
  0
VERTEX
  8
PLAYPIT
 62
4
 10
477164.622
 20
6772624.607
 30
290.000
 70
    32
  0
VERTEX
  8
PLAYPIT
 62
4
 10
477272.273
 20
6772622.425
 30
290.000
 70
    32
  0
VERTEX
  8
PLAYPIT
 62
4
 10
477281.687
 20
6772620.991
 30
290.000
 70
    32
  0
VERTEX
  8
PLAYPIT
 62
4
 10
477290.127
 20
6772617.293
 30
290.000
 70
    32
  0
VERTEX
  8
PLAYPIT
 62
4
 10
477297.562
 20
6772611.344
 30
290.000
 70
    32
  0
VERTEX
  8
PLAYPIT
 62
4
 10
477308.819
 20
6772599.622
 30
290.000
 70
    32
  0
VERTEX
  8
PLAYPIT
 62
4
 10
477314.461
 20
6772591.951
 30
290.000
 70
    32
  0
VERTEX
  8
PLAYPIT
 62
4
 10
477317.814
 20
6772583.369
 30
290.000
 70
    32
  0
VERTEX
  8
PLAYPIT
 62
4
 10
477318.866
 20
6772573.904
 30
290.000
 70
    32
  0
VERTEX
  8
PLAYPIT
 62
4
 10
477318.116
 20
6772536.950
 30
290.000
 70
    32
  0
VERTEX
  8
PLAYPIT
 62
4
 10
477316.682
 20
6772527.536
 30
290.000
 70
    32
  0
VERTEX
  8
PLAYPIT
 62
4
 10
477312.985
 20
6772519.096
 30
290.000
 70
    32
  0
VERTEX
  8
PLAYPIT
 62
4
 10
477307.036
 20
6772511.660
 30
290.000
 70
    32
  0
VERTEX
  8
PLAYPIT
 62
4
 10
477270.753
 20
6772476.819
 30
290.000
 70
    32
  0
VERTEX
  8
PLAYPIT
 62
4
 10
477175.475
 20
6772519.041
 30
290.000
 70
    32
  0
VERTEX
  8
PLAYPIT
 62
4
 10
477158.876
 20
6772524.364
 30
290.000
 70
    32
  0
VERTEX
  8
PLAYPIT
 62
4
 10
477139.031
 20
6772526.271
 30
290.000
 70
    32
  0
VERTEX
  8
PLAYPIT
 62
4
 10
477122.729
 20
6772524.289
 30
290.000
 70
    32
  0
VERTEX
  8
PLAYPIT
 62
4
 10
477124.719
 20
6772499.369
 30
290.000
 70
    32
  0
VERTEX
  8
PLAYPIT
 62
4
 10
477118.718
 20
6772491.591
 30
290.000
 70
    32
  0
VERTEX
  8
PLAYPIT
 62
4
 10
477113.811
 20
6772486.420
 30
290.000
 70
    32
  0
VERTEX
  8
PLAYPIT
 62
4
 10
477107.957
 20
6772482.350
 30
290.000
 70
    32
  0
VERTEX
  8
PLAYPIT
 62
4
 10
477101.400
 20
6772479.551
 30
290.000
 70
    32
  0
SEQEND
  8
PLAYPIT
  0
POLYLINE
  8
PLAYPIT
 62
3
 66
     1
 70
     9
1001
MAPTEK_VULCAN
1000
VulcanName=CREST320
1000
VulcanGroup=BLUE
1000
VulcanValue=319.99
1000
VulcanDescription=poly
1000
VulcanPrimitive=
1000
VulcanLine=0
1000
VulcanPattern=0
1000
VulcanFeature=PIT$PROJ
  0
VERTEX
  8
PLAYPIT
 62
3
 10
477044.551
 20
6772434.656
 30
320.000
 70
    32
  0
VERTEX
  8
PLAYPIT
 62
3
 10
476944.719
 20
6772403.627
 30
320.000
 70
    32
  0
VERTEX
  8
PLAYPIT
 62
3
 10
476937.593
 20
6772401.883
 30
320.000
 70
    32
  0
VERTEX
  8
PLAYPIT
 62
3
 10
476930.037
 20
6772400.871
 30
320.000
 70
    32
  0
VERTEX
  8
PLAYPIT
 62
3
 10
476923.232
 20
6772400.658
 30
320.000
 70
    32
  0
VERTEX
  8
PLAYPIT
 62
3
 10
476867.215
 20
6772401.794
 30
320.000
 70
    32
  0
VERTEX
  8
PLAYPIT
 62
3
 10
476857.896
 20
6772403.213
 30
320.000
 70
    32
  0
VERTEX
  8
PLAYPIT
 62
3
 10
476847.971
 20
6772407.562
 30
320.000
 70
    32
  0
VERTEX
  8
PLAYPIT
 62
3
 10
476840.610
 20
6772413.451
 30
320.000
 70
    32
  0
VERTEX
  8
PLAYPIT
 62
3
 10
476817.943
 20
6772437.056
 30
320.000
 70
    32
  0
VERTEX
  8
PLAYPIT
 62
3
 10
476810.651
 20
6772448.171
 30
320.000
 70
    32
  0
VERTEX
  8
PLAYPIT
 62
3
 10
476807.438
 20
6772463.130
 30
320.000
 70
    32
  0
VERTEX
  8
PLAYPIT
 62
3
 10
476809.524
 20
6772476.259
 30
320.000
 70
    32
  0
VERTEX
  8
PLAYPIT
 62
3
 10
476840.794
 20
6772564.010
 30
320.000
 70
    32
  0
VERTEX
  8
PLAYPIT
 62
3
 10
476844.169
 20
6772571.583
 30
320.000
 70
    32
  0
VERTEX
  8
PLAYPIT
 62
3
 10
476849.320
 20
6772579.551
 30
320.000
 70
    32
  0
VERTEX
  8
PLAYPIT
 62
3
 10
476855.340
 20
6772586.255
 30
320.000
 70
    32
  0
VERTEX
  8
PLAYPIT
 62
3
 10
476878.985
 20
6772608.922
 30
320.000
 70
    32
  0
VERTEX
  8
PLAYPIT
 62
3
 10
476885.389
 20
6772614.185
 30
320.000
 70
    32
  0
VERTEX
  8
PLAYPIT
 62
3
 10
476893.560
 20
6772619.008
 30
320.000
 70
    32
  0
VERTEX
  8
PLAYPIT
 62
3
 10
476901.939
 20
6772622.311
 30
320.000
 70
    32
  0
VERTEX
  8
PLAYPIT
 62
3
 10
476978.399
 20
6772646.087
 30
320.000
 70
    32
  0
VERTEX
  8
PLAYPIT
 62
3
 10
476998.890
 20
6772648.494
 30
320.000
 70
    32
  0
VERTEX
  8
PLAYPIT
 62
3
 10
477020.814
 20
6772642.848
 30
320.000
 70
    32
  0
VERTEX
  8
PLAYPIT
 62
3
 10
477037.592
 20
6772630.840
 30
320.000
 70
    32
  0
VERTEX
  8
PLAYPIT
 62
3
 10
477046.892
 20
6772621.155
 30
320.000
 70
    32
  0
VERTEX
  8
PLAYPIT
 62
3
 10
477049.724
 20
6772618.890
 30
320.000
 70
    32
  0
VERTEX
  8
PLAYPIT
 62
3
 10
477051.754
 20
6772618.000
 30
320.000
 70
    32
  0
VERTEX
  8
PLAYPIT
 62
3
 10
477055.339
 20
6772617.454
 30
320.000
 70
    32
  0
VERTEX
  8
PLAYPIT
 62
3
 10
477098.392
 20
6772616.582
 30
320.000
 70
    32
  0
VERTEX
  8
PLAYPIT
 62
3
 10
477101.996
 20
6772616.982
 30
320.000
 70
    32
  0
VERTEX
  8
PLAYPIT
 62
3
 10
477104.060
 20
6772617.788
 30
320.000
 70
    32
  0
VERTEX
  8
PLAYPIT
 62
3
 10
477106.981
 20
6772619.937
 30
320.000
 70
    32
  0
VERTEX
  8
PLAYPIT
 62
3
 10
477122.132
 20
6772634.486
 30
320.000
 70
    32
  0
VERTEX
  8
PLAYPIT
 62
3
 10
477133.931
 20
6772643.165
 30
320.000
 70
    32
  0
VERTEX
  8
PLAYPIT
 62
3
 10
477148.888
 20
6772649.008
 30
320.000
 70
    32
  0
VERTEX
  8
PLAYPIT
 62
3
 10
477163.446
 20
6772650.626
 30
320.000
 70
    32
  0
VERTEX
  8
PLAYPIT
 62
3
 10
477274.503
 20
6772648.374
 30
320.000
 70
    32
  0
VERTEX
  8
PLAYPIT
 62
3
 10
477288.983
 20
6772646.169
 30
320.000
 70
    32
  0
VERTEX
  8
PLAYPIT
 62
3
 10
477303.691
 20
6772639.724
 30
320.000
 70
    32
  0
VERTEX
  8
PLAYPIT
 62
3
 10
477315.128
 20
6772630.574
 30
320.000
 70
    32
  0
VERTEX
  8
PLAYPIT
 62
3
 10
477328.744
 20
6772616.394
 30
320.000
 70
    32
  0
VERTEX
  8
PLAYPIT
 62
3
 10
477337.424
 20
6772604.595
 30
320.000
 70
    32
  0
VERTEX
  8
PLAYPIT
 62
3
 10
477343.267
 20
6772589.639
 30
320.000
 70
    32
  0
VERTEX
  8
PLAYPIT
 62
3
 10
477344.884
 20
6772575.081
 30
320.000
 70
    32
  0
VERTEX
  8
PLAYPIT
 62
3
 10
477344.457
 20
6772554.272
 30
320.000
 70
    32
  0
VERTEX
  8
PLAYPIT
 62
3
 10
477345.008
 20
6772541.543
 30
320.000
 70
    32
  0
VERTEX
  8
PLAYPIT
 62
3
 10
477347.172
 20
6772528.987
 30
320.000
 70
    32
  0
VERTEX
  8
PLAYPIT
 62
3
 10
477350.916
 20
6772516.808
 30
320.000
 70
    32
  0
VERTEX
  8
PLAYPIT
 62
3
 10
477396.162
 20
6772397.318
 30
320.000
 70
    32
  0
VERTEX
  8
PLAYPIT
 62
3
 10
477398.430
 20
6772384.967
 30
320.000
 70
    32
  0
VERTEX
  8
PLAYPIT
 62
3
 10
477396.193
 20
6772372.610
 30
320.000
 70
    32
  0
VERTEX
  8
PLAYPIT
 62
3
 10
477389.738
 20
6772361.838
 30
320.000
 70
    32
  0
VERTEX
  8
PLAYPIT
 62
3
 10
477383.823
 20
6772355.099
 30
320.000
 70
    32
  0
VERTEX
  8
PLAYPIT
 62
3
 10
477367.334
 20
6772336.308
 30
320.000
 70
    32
  0
VERTEX
  8
PLAYPIT
 62
3
 10
477289.100
 20
6772398.756
 30
320.000
 70
    32
  0
VERTEX
  8
PLAYPIT
 62
3
 10
477212.278
 20
6772452.394
 30
320.000
 70
    32
  0
VERTEX
  8
PLAYPIT
 62
3
 10
477198.476
 20
6772451.151
 30
320.000
 70
    32
  0
VERTEX
  8
PLAYPIT
 62
3
 10
477191.941
 20
6772451.030
 30
320.000
 70
    32
  0
VERTEX
  8
PLAYPIT
 62
3
 10
477184.740
 20
6772451.939
 30
320.000
 70
    32
  0
VERTEX
  8
PLAYPIT
 62
3
 10
477178.335
 20
6772453.724
 30
320.000
 70
    32
  0
VERTEX
  8
PLAYPIT
 62
3
 10
477155.092
 20
6772462.038
 30
320.000
 70
    32
  0
VERTEX
  8
PLAYPIT
 62
3
 10
477147.542
 20
6772463.844
 30
320.000
 70
    32
  0
VERTEX
  8
PLAYPIT
 62
3
 10
477141.415
 20
6772463.968
 30
320.000
 70
    32
  0
VERTEX
  8
PLAYPIT
 62
3
 10
477134.773
 20
6772462.712
 30
320.000
 70
    32
  0
SEQEND
  8
PLAYPIT
  0
POLYLINE
  8
PLAYPIT
 62
2
 66
     1
 70
     9
1001
MAPTEK_VULCAN
1000
VulcanName=RAMP320
1000
VulcanGroup=LIMEGREEN
1000
VulcanValue=309.99
1000
VulcanDescription=poly
1000
VulcanPrimitive=
1000
VulcanLine=0
1000
VulcanPattern=0
1000
VulcanFeature=PIT$PROJ
  0
VERTEX
  8
PLAYPIT
 62
2
 10
477367.334
 20
6772336.308
 30
320.000
 70
    32
  0
VERTEX
  8
PLAYPIT
 62
2
 10
477383.823
 20
6772355.099
 30
320.000
 70
    32
  0
VERTEX
  8
PLAYPIT
 62
2
 10
477308.665
 20
6772421.052
 30
310.000
 70
    32
  0
VERTEX
  8
PLAYPIT
 62
2
 10
477292.176
 20
6772402.261
 30
310.000
 70
    32
  0
SEQEND
  8
PLAYPIT
  0
POLYLINE
  8
PLAYPIT
 62
2
 66
     1
 70
     9
1001
MAPTEK_VULCAN
1000
VulcanName=RAMP290
1000
VulcanGroup=LIMEGREEN
1000
VulcanValue=0
1000
VulcanDescription=poly
1000
VulcanPrimitive=
1000
VulcanLine=0
1000
VulcanPattern=0
1000
VulcanFeature=
  0
VERTEX
  8
PLAYPIT
 62
2
 10
477118.465
 20
6772523.574
 30
290.000
 70
    32
  0
VERTEX
  8
PLAYPIT
 62
2
 10
477021.644
 20
6772498.559
 30
280.000
 70
    32
  0
VERTEX
  8
PLAYPIT
 62
2
 10
477027.898
 20
6772474.354
 30
280.000
 70
    32
  0
VERTEX
  8
PLAYPIT
 62
2
 10
477124.719
 20
6772499.369
 30
290.000
 70
    32
  0
SEQEND
  8
PLAYPIT
  0
POLYLINE
  8
PLAYPIT
 62
2
 66
     1
 70
     9
1001
MAPTEK_VULCAN
1000
VulcanName=RAMP300
1000
VulcanGroup=LIMEGREEN
1000
VulcanValue=0
1000
VulcanDescription=poly
1000
VulcanPrimitive=
1000
VulcanLine=0
1000
VulcanPattern=0
1000
VulcanFeature=
  0
VERTEX
  8
PLAYPIT
 62
2
 10
477217.018
 20
6772468.214
 30
300.000
 70
    32
  0
VERTEX
  8
PLAYPIT
 62
2
 10
477164.826
 20
6772493.973
 30
294.138
 70
    32
  0
VERTEX
  8
PLAYPIT
 62
2
 10
477152.490
 20
6772498.499
 30
292.815
 70
    32
  0
VERTEX
  8
PLAYPIT
 62
2
 10
477138.317
 20
6772500.454
 30
291.374
 70
    32
  0
VERTEX
  8
PLAYPIT
 62
2
 10
477124.719
 20
6772499.369
 30
290.000
 70
    32
  0
VERTEX
  8
PLAYPIT
 62
2
 10
477122.729
 20
6772524.289
 30
290.000
 70
    32
  0
VERTEX
  8
PLAYPIT
 62
2
 10
477139.040
 20
6772525.591
 30
291.451
 70
    32
  0
VERTEX
  8
PLAYPIT
 62
2
 10
477158.573
 20
6772522.896
 30
293.199
 70
    32
  0
VERTEX
  8
PLAYPIT
 62
2
 10
477174.691
 20
6772516.983
 30
294.721
 70
    32
  0
VERTEX
  8
PLAYPIT
 62
2
 10
477228.082
 20
6772490.633
 30
300.000
 70
    32
  0
SEQEND
  8
PLAYPIT
  0
POLYLINE
  8
PLAYPIT
 62
2
 66
     1
 70
     9
1001
MAPTEK_VULCAN
1000
VulcanName=RAMP280
1000
VulcanGroup=LIMEGREEN
1000
VulcanValue=0
1000
VulcanDescription=poly
1000
VulcanPrimitive=
1000
VulcanLine=0
1000
VulcanPattern=0
1000
VulcanFeature=
  0
VERTEX
  8
PLAYPIT
 62
2
 10
476922.567
 20
6772484.557
 30
270.000
 70
    32
  0
VERTEX
  8
PLAYPIT
 62
2
 10
477021.644
 20
6772498.559
 30
280.000
 70
    32
  0
VERTEX
  8
PLAYPIT
 62
2
 10
477024.603
 20
6772473.887
 30
280.000
 70
    32
  0
VERTEX
  8
PLAYPIT
 62
2
 10
476926.056
 20
6772459.928
 30
270.000
 70
    32
  0
SEQEND
  8
PLAYPIT
  0
POLYLINE
  8
PLAYPIT
 62
4
 66
     1
 70
     9
1001
MAPTEK_VULCAN
1000
VulcanName=TOE270
1000
VulcanGroup=RED
1000
VulcanValue=270.203227
1000
VulcanDescription=poly
1000
VulcanPrimitive=
1000
VulcanLine=0
1000
VulcanPattern=0
1000
VulcanFeature=PIT$PROJ
  0
VERTEX
  8
PLAYPIT
 62
4
 10
476922.567
 20
6772484.557
 30
270.000
 70
    32
  0
VERTEX
  8
PLAYPIT
 62
4
 10
476926.056
 20
6772459.928
 30
270.000
 70
    32
  0
VERTEX
  8
PLAYPIT
 62
4
 10
476877.264
 20
6772460.917
 30
270.000
 70
    32
  0
VERTEX
  8
PLAYPIT
 62
4
 10
476869.793
 20
6772468.698
 30
270.000
 70
    32
  0
VERTEX
  8
PLAYPIT
 62
4
 10
476896.386
 20
6772543.435
 30
270.000
 70
    32
  0
VERTEX
  8
PLAYPIT
 62
4
 10
476919.506
 20
6772565.656
 30
270.000
 70
    32
  0
VERTEX
  8
PLAYPIT
 62
4
 10
476990.771
 20
6772587.817
 30
270.000
 70
    32
  0
VERTEX
  8
PLAYPIT
 62
4
 10
476994.816
 20
6772588.292
 30
270.000
 70
    32
  0
VERTEX
  8
PLAYPIT
 62
4
 10
476995.297
 20
6772588.168
 30
270.000
 70
    32
  0
VERTEX
  8
PLAYPIT
 62
4
 10
476998.610
 20
6772585.798
 30
270.000
 70
    32
  0
VERTEX
  8
PLAYPIT
 62
4
 10
477006.801
 20
6772577.267
 30
270.000
 70
    32
  0
VERTEX
  8
PLAYPIT
 62
4
 10
477018.766
 20
6772567.695
 30
270.000
 70
    32
  0
VERTEX
  8
PLAYPIT
 62
4
 10
477031.422
 20
6772562.150
 30
270.000
 70
    32
  0
VERTEX
  8
PLAYPIT
 62
4
 10
477025.681
 20
6772504.064
 30
270.000
 70
    32
  0
SEQEND
  8
PLAYPIT
  0
POLYLINE
  8
PLAYPIT
 62
3
 66
     1
 70
     9
1001
MAPTEK_VULCAN
1000
VulcanName=CREST280
1000
VulcanGroup=BLUE
1000
VulcanValue=280
1000
VulcanDescription=poly
1000
VulcanPrimitive=
1000
VulcanLine=0
1000
VulcanPattern=0
1000
VulcanFeature=PIT$BERM
  0
VERTEX
  8
PLAYPIT
 62
3
 10
477021.644
 20
6772498.559
 30
280.000
 70
    32
  0
VERTEX
  8
PLAYPIT
 62
3
 10
477024.603
 20
6772473.887
 30
280.000
 70
    32
  0
VERTEX
  8
PLAYPIT
 62
3
 10
476926.748
 20
6772455.250
 30
280.000
 70
    32
  0
VERTEX
  8
PLAYPIT
 62
3
 10
476875.239
 20
6772456.295
 30
280.000
 70
    32
  0
VERTEX
  8
PLAYPIT
 62
3
 10
476864.433
 20
6772467.547
 30
280.000
 70
    32
  0
VERTEX
  8
PLAYPIT
 62
3
 10
476892.362
 20
6772546.035
 30
280.000
 70
    32
  0
VERTEX
  8
PLAYPIT
 62
3
 10
476917.069
 20
6772569.782
 30
280.000
 70
    32
  0
VERTEX
  8
PLAYPIT
 62
3
 10
476989.798
 20
6772592.398
 30
280.000
 70
    32
  0
VERTEX
  8
PLAYPIT
 62
3
 10
476995.136
 20
6772593.025
 30
280.000
 70
    32
  0
VERTEX
  8
PLAYPIT
 62
3
 10
476997.303
 20
6772592.467
 30
280.000
 70
    32
  0
VERTEX
  8
PLAYPIT
 62
3
 10
477001.674
 20
6772589.339
 30
280.000
 70
    32
  0
VERTEX
  8
PLAYPIT
 62
3
 10
477009.953
 20
6772580.718
 30
280.000
 70
    32
  0
VERTEX
  8
PLAYPIT
 62
3
 10
477021.200
 20
6772571.720
 30
280.000
 70
    32
  0
VERTEX
  8
PLAYPIT
 62
3
 10
477036.411
 20
6772565.055
 30
280.000
 70
    32
  0
VERTEX
  8
PLAYPIT
 62
3
 10
477029.794
 20
6772501.075
 30
280.000
 70
    32
  0
SEQEND
  8
PLAYPIT
  0
POLYLINE
  8
PLAYPIT
 62
3
 66
     1
 70
     9
1001
MAPTEK_VULCAN
1000
VulcanName=CREST290
1000
VulcanGroup=BLUE
1000
VulcanValue=290
1000
VulcanDescription=poly
1000
VulcanPrimitive=
1000
VulcanLine=0
1000
VulcanPattern=0
1000
VulcanFeature=PIT$BERM
  0
VERTEX
  8
PLAYPIT
 62
3
 10
477033.271
 20
6772470.932
 30
290.000
 70
    32
  0
VERTEX
  8
PLAYPIT
 62
3
 10
476929.115
 20
6772438.536
 30
290.000
 70
    32
  0
VERTEX
  8
PLAYPIT
 62
3
 10
476868.000
 20
6772439.775
 30
290.000
 70
    32
  0
VERTEX
  8
PLAYPIT
 62
3
 10
476845.283
 20
6772463.433
 30
290.000
 70
    32
  0
VERTEX
  8
PLAYPIT
 62
3
 10
476877.981
 20
6772555.325
 30
290.000
 70
    32
  0
VERTEX
  8
PLAYPIT
 62
3
 10
476908.361
 20
6772584.524
 30
290.000
 70
    32
  0
VERTEX
  8
PLAYPIT
 62
3
 10
476986.323
 20
6772608.767
 30
290.000
 70
    32
  0
VERTEX
  8
PLAYPIT
 62
3
 10
476996.281
 20
6772609.937
 30
290.000
 70
    32
  0
VERTEX
  8
PLAYPIT
 62
3
 10
477004.472
 20
6772607.828
 30
290.000
 70
    32
  0
VERTEX
  8
PLAYPIT
 62
3
 10
477012.625
 20
6772601.993
 30
290.000
 70
    32
  0
VERTEX
  8
PLAYPIT
 62
3
 10
477021.216
 20
6772593.047
 30
290.000
 70
    32
  0
VERTEX
  8
PLAYPIT
 62
3
 10
477029.897
 20
6772586.101
 30
290.000
 70
    32
  0
VERTEX
  8
PLAYPIT
 62
3
 10
477041.089
 20
6772581.198
 30
290.000
 70
    32
  0
VERTEX
  8
PLAYPIT
 62
3
 10
477052.079
 20
6772579.523
 30
290.000
 70
    32
  0
VERTEX
  8
PLAYPIT
 62
3
 10
477100.112
 20
6772578.550
 30
290.000
 70
    32
  0
VERTEX
  8
PLAYPIT
 62
3
 10
477111.161
 20
6772579.777
 30
290.000
 70
    32
  0
VERTEX
  8
PLAYPIT
 62
3
 10
477122.542
 20
6772584.223
 30
290.000
 70
    32
  0
VERTEX
  8
PLAYPIT
 62
3
 10
477131.498
 20
6772590.811
 30
290.000
 70
    32
  0
VERTEX
  8
PLAYPIT
 62
3
 10
477146.649
 20
6772605.360
 30
290.000
 70
    32
  0
VERTEX
  8
PLAYPIT
 62
3
 10
477152.413
 20
6772609.600
 30
290.000
 70
    32
  0
VERTEX
  8
PLAYPIT
 62
3
 10
477158.053
 20
6772611.804
 30
290.000
 70
    32
  0
VERTEX
  8
PLAYPIT
 62
3
 10
477165.165
 20
6772612.594
 30
290.000
 70
    32
  0
VERTEX
  8
PLAYPIT
 62
3
 10
477271.243
 20
6772610.443
 30
290.000
 70
    32
  0
VERTEX
  8
PLAYPIT
 62
3
 10
477278.318
 20
6772609.366
 30
290.000
 70
    32
  0
VERTEX
  8
PLAYPIT
 62
3
 10
477283.864
 20
6772606.936
 30
290.000
 70
    32
  0
VERTEX
  8
PLAYPIT
 62
3
 10
477289.452
 20
6772602.465
 30
290.000
 70
    32
  0
VERTEX
  8
PLAYPIT
 62
3
 10
477299.618
 20
6772591.878
 30
290.000
 70
    32
  0
VERTEX
  8
PLAYPIT
 62
3
 10
477303.859
 20
6772586.113
 30
290.000
 70
    32
  0
VERTEX
  8
PLAYPIT
 62
3
 10
477306.062
 20
6772580.474
 30
290.000
 70
    32
  0
VERTEX
  8
PLAYPIT
 62
3
 10
477306.852
 20
6772573.361
 30
290.000
 70
    32
  0
VERTEX
  8
PLAYPIT
 62
3
 10
477305.917
 20
6772527.223
 30
290.000
 70
    32
  0
VERTEX
  8
PLAYPIT
 62
3
 10
477263.575
 20
6772486.563
 30
290.000
 70
    32
  0
VERTEX
  8
PLAYPIT
 62
3
 10
477177.612
 20
6772524.657
 30
290.000
 70
    32
  0
VERTEX
  8
PLAYPIT
 62
3
 10
477159.687
 20
6772528.305
 30
290.000
 70
    32
  0
VERTEX
  8
PLAYPIT
 62
3
 10
477139.006
 20
6772528.283
 30
290.000
 70
    32
  0
VERTEX
  8
PLAYPIT
 62
3
 10
477122.729
 20
6772524.289
 30
290.000
 70
    32
  0
VERTEX
  8
PLAYPIT
 62
3
 10
477118.465
 20
6772523.574
 30
290.000
 70
    32
  0
VERTEX
  8
PLAYPIT
 62
3
 10
477124.719
 20
6772499.369
 30
290.000
 70
    32
  0
SEQEND
  8
PLAYPIT
  0
POLYLINE
  8
PLAYPIT
 62
4
 66
     1
 70
     9
1001
MAPTEK_VULCAN
1000
VulcanName=TOE280
1000
VulcanGroup=RED
1000
VulcanValue=280.01
1000
VulcanDescription=poly
1000
VulcanPrimitive=
1000
VulcanLine=0
1000
VulcanPattern=0
1000
VulcanFeature=PIT$PROJ
  0
VERTEX
  8
PLAYPIT
 62
4
 10
477027.948
 20
6772474.160
 30
280.000
 70
    32
  0
VERTEX
  8
PLAYPIT
 62
4
 10
476928.453
 20
6772443.213
 30
280.000
 70
    32
  0
VERTEX
  8
PLAYPIT
 62
4
 10
476870.026
 20
6772444.398
 30
280.000
 70
    32
  0
VERTEX
  8
PLAYPIT
 62
4
 10
476850.642
 20
6772464.584
 30
280.000
 70
    32
  0
VERTEX
  8
PLAYPIT
 62
4
 10
476882.005
 20
6772552.725
 30
280.000
 70
    32
  0
VERTEX
  8
PLAYPIT
 62
4
 10
476910.798
 20
6772580.399
 30
280.000
 70
    32
  0
VERTEX
  8
PLAYPIT
 62
4
 10
476987.295
 20
6772604.186
 30
280.000
 70
    32
  0
VERTEX
  8
PLAYPIT
 62
4
 10
476995.961
 20
6772605.205
 30
280.000
 70
    32
  0
VERTEX
  8
PLAYPIT
 62
4
 10
477002.466
 20
6772603.529
 30
280.000
 70
    32
  0
VERTEX
  8
PLAYPIT
 62
4
 10
477009.561
 20
6772598.452
 30
280.000
 70
    32
  0
VERTEX
  8
PLAYPIT
 62
4
 10
477018.064
 20
6772589.596
 30
280.000
 70
    32
  0
VERTEX
  8
PLAYPIT
 62
4
 10
477027.463
 20
6772582.077
 30
280.000
 70
    32
  0
VERTEX
  8
PLAYPIT
 62
4
 10
477039.779
 20
6772576.680
 30
280.000
 70
    32
  0
VERTEX
  8
PLAYPIT
 62
4
 10
477051.679
 20
6772574.867
 30
280.000
 70
    32
  0
VERTEX
  8
PLAYPIT
 62
4
 10
477100.323
 20
6772573.881
 30
280.000
 70
    32
  0
VERTEX
  8
PLAYPIT
 62
4
 10
477112.286
 20
6772575.210
 30
280.000
 70
    32
  0
VERTEX
  8
PLAYPIT
 62
4
 10
477124.811
 20
6772580.103
 30
280.000
 70
    32
  0
VERTEX
  8
PLAYPIT
 62
4
 10
477134.507
 20
6772587.236
 30
280.000
 70
    32
  0
VERTEX
  8
PLAYPIT
 62
4
 10
477149.658
 20
6772601.785
 30
280.000
 70
    32
  0
VERTEX
  8
PLAYPIT
 62
4
 10
477154.682
 20
6772605.480
 30
280.000
 70
    32
  0
VERTEX
  8
PLAYPIT
 62
4
 10
477159.178
 20
6772607.237
 30
280.000
 70
    32
  0
VERTEX
  8
PLAYPIT
 62
4
 10
477165.376
 20
6772607.925
 30
280.000
 70
    32
  0
VERTEX
  8
PLAYPIT
 62
4
 10
477270.843
 20
6772605.787
 30
280.000
 70
    32
  0
VERTEX
  8
PLAYPIT
 62
4
 10
477277.009
 20
6772604.848
 30
280.000
 70
    32
  0
VERTEX
  8
PLAYPIT
 62
4
 10
477281.430
 20
6772602.911
 30
280.000
 70
    32
  0
VERTEX
  8
PLAYPIT
 62
4
 10
477286.300
 20
6772599.015
 30
280.000
 70
    32
  0
VERTEX
  8
PLAYPIT
 62
4
 10
477296.043
 20
6772588.868
 30
280.000
 70
    32
  0
VERTEX
  8
PLAYPIT
 62
4
 10
477299.739
 20
6772583.844
 30
280.000
 70
    32
  0
VERTEX
  8
PLAYPIT
 62
4
 10
477301.495
 20
6772579.349
 30
280.000
 70
    32
  0
VERTEX
  8
PLAYPIT
 62
4
 10
477302.184
 20
6772573.150
 30
280.000
 70
    32
  0
VERTEX
  8
PLAYPIT
 62
4
 10
477301.294
 20
6772529.248
 30
280.000
 70
    32
  0
VERTEX
  8
PLAYPIT
 62
4
 10
477263.644
 20
6772493.095
 30
280.000
 70
    32
  0
VERTEX
  8
PLAYPIT
 62
4
 10
477262.603
 20
6772492.095
 30
280.000
 70
    32
  0
VERTEX
  8
PLAYPIT
 62
4
 10
477179.035
 20
6772529.098
 30
280.000
 70
    32
  0
VERTEX
  8
PLAYPIT
 62
4
 10
477161.110
 20
6772532.745
 30
280.000
 70
    32
  0
VERTEX
  8
PLAYPIT
 62
4
 10
477140.429
 20
6772532.724
 30
280.000
 70
    32
  0
VERTEX
  8
PLAYPIT
 62
4
 10
477112.678
 20
6772527.331
 30
280.000
 70
    32
  0
VERTEX
  8
PLAYPIT
 62
4
 10
477021.644
 20
6772498.559
 30
280.000
 70
    32
  0
SEQEND
  8
PLAYPIT
  0
POLYLINE
  8
PLAYPIT
 62
2
 66
     1
 70
     9
1001
MAPTEK_VULCAN
1000
VulcanName=RAMP310
1000
VulcanGroup=LIMEGREEN
1000
VulcanValue=309.99
1000
VulcanDescription=poly
1000
VulcanPrimitive=
1000
VulcanLine=0
1000
VulcanPattern=0
1000
VulcanFeature=PIT$PROJ
  0
VERTEX
  8
PLAYPIT
 62
2
 10
477292.176
 20
6772402.261
 30
310.000
 70
    32
  0
VERTEX
  8
PLAYPIT
 62
2
 10
477308.665
 20
6772421.052
 30
310.000
 70
    32
  0
VERTEX
  8
PLAYPIT
 62
2
 10
477233.507
 20
6772487.005
 30
300.000
 70
    32
  0
VERTEX
  8
PLAYPIT
 62
2
 10
477217.018
 20
6772468.214
 30
300.000
 70
    32
  0
SEQEND
  8
PLAYPIT
  0
POLYLINE
  8
PLAYPIT
 62
4
 66
     1
 70
     9
1001
MAPTEK_VULCAN
1000
VulcanName=TOE310
1000
VulcanGroup=RED
1000
VulcanValue=310.01
1000
VulcanDescription=poly
1000
VulcanPrimitive=
1000
VulcanLine=0
1000
VulcanPattern=0
1000
VulcanFeature=PIT$PROJ
  0
VERTEX
  8
PLAYPIT
 62
4
 10
477043.167
 20
6772439.109
 30
310.000
 70
    32
  0
VERTEX
  8
PLAYPIT
 62
4
 10
476943.610
 20
6772408.157
 30
310.000
 70
    32
  0
VERTEX
  8
PLAYPIT
 62
4
 10
476936.974
 20
6772406.505
 30
310.000
 70
    32
  0
VERTEX
  8
PLAYPIT
 62
4
 10
476929.891
 20
6772405.532
 30
310.000
 70
    32
  0
VERTEX
  8
PLAYPIT
 62
4
 10
476923.327
 20
6772405.320
 30
310.000
 70
    32
  0
VERTEX
  8
PLAYPIT
 62
4
 10
476867.615
 20
6772406.450
 30
310.000
 70
    32
  0
VERTEX
  8
PLAYPIT
 62
4
 10
476859.205
 20
6772407.731
 30
310.000
 70
    32
  0
VERTEX
  8
PLAYPIT
 62
4
 10
476850.404
 20
6772411.587
 30
310.000
 70
    32
  0
VERTEX
  8
PLAYPIT
 62
4
 10
476843.762
 20
6772416.901
 30
310.000
 70
    32
  0
VERTEX
  8
PLAYPIT
 62
4
 10
476821.605
 20
6772439.975
 30
310.000
 70
    32
  0
VERTEX
  8
PLAYPIT
 62
4
 10
476815.028
 20
6772450.001
 30
310.000
 70
    32
  0
VERTEX
  8
PLAYPIT
 62
4
 10
476812.180
 20
6772463.258
 30
310.000
 70
    32
  0
VERTEX
  8
PLAYPIT
 62
4
 10
476814.061
 20
6772475.101
 30
310.000
 70
    32
  0
VERTEX
  8
PLAYPIT
 62
4
 10
476845.053
 20
6772562.112
 30
310.000
 70
    32
  0
VERTEX
  8
PLAYPIT
 62
4
 10
476848.281
 20
6772569.355
 30
310.000
 70
    32
  0
VERTEX
  8
PLAYPIT
 62
4
 10
476853.036
 20
6772576.710
 30
310.000
 70
    32
  0
VERTEX
  8
PLAYPIT
 62
4
 10
476858.567
 20
6772582.889
 30
310.000
 70
    32
  0
VERTEX
  8
PLAYPIT
 62
4
 10
476881.945
 20
6772605.319
 30
310.000
 70
    32
  0
VERTEX
  8
PLAYPIT
 62
4
 10
476888.071
 20
6772610.353
 30
310.000
 70
    32
  0
VERTEX
  8
PLAYPIT
 62
4
 10
476895.613
 20
6772614.805
 30
310.000
 70
    32
  0
VERTEX
  8
PLAYPIT
 62
4
 10
476903.324
 20
6772617.858
 30
310.000
 70
    32
  0
VERTEX
  8
PLAYPIT
 62
4
 10
476979.371
 20
6772641.506
 30
310.000
 70
    32
  0
VERTEX
  8
PLAYPIT
 62
4
 10
476998.570
 20
6772643.762
 30
310.000
 70
    32
  0
VERTEX
  8
PLAYPIT
 62
4
 10
477018.808
 20
6772638.549
 30
310.000
 70
    32
  0
VERTEX
  8
PLAYPIT
 62
4
 10
477034.527
 20
6772627.299
 30
310.000
 70
    32
  0
VERTEX
  8
PLAYPIT
 62
4
 10
477043.741
 20
6772617.705
 30
310.000
 70
    32
  0
VERTEX
  8
PLAYPIT
 62
4
 10
477047.290
 20
6772614.865
 30
310.000
 70
    32
  0
VERTEX
  8
PLAYPIT
 62
4
 10
477050.445
 20
6772613.483
 30
310.000
 70
    32
  0
VERTEX
  8
PLAYPIT
 62
4
 10
477054.939
 20
6772612.798
 30
310.000
 70
    32
  0
VERTEX
  8
PLAYPIT
 62
4
 10
477098.603
 20
6772611.913
 30
310.000
 70
    32
  0
VERTEX
  8
PLAYPIT
 62
4
 10
477103.121
 20
6772612.415
 30
310.000
 70
    32
  0
VERTEX
  8
PLAYPIT
 62
4
 10
477106.329
 20
6772613.668
 30
310.000
 70
    32
  0
VERTEX
  8
PLAYPIT
 62
4
 10
477109.991
 20
6772616.362
 30
310.000
 70
    32
  0
VERTEX
  8
PLAYPIT
 62
4
 10
477125.141
 20
6772630.911
 30
310.000
 70
    32
  0
VERTEX
  8
PLAYPIT
 62
4
 10
477136.200
 20
6772639.045
 30
310.000
 70
    32
  0
VERTEX
  8
PLAYPIT
 62
4
 10
477150.013
 20
6772644.442
 30
310.000
 70
    32
  0
VERTEX
  8
PLAYPIT
 62
4
 10
477163.657
 20
6772645.957
 30
310.000
 70
    32
  0
VERTEX
  8
PLAYPIT
 62
4
 10
477274.103
 20
6772643.718
 30
310.000
 70
    32
  0
VERTEX
  8
PLAYPIT
 62
4
 10
477287.674
 20
6772641.651
 30
310.000
 70
    32
  0
VERTEX
  8
PLAYPIT
 62
4
 10
477301.257
 20
6772635.700
 30
310.000
 70
    32
  0
VERTEX
  8
PLAYPIT
 62
4
 10
477311.976
 20
6772627.123
 30
310.000
 70
    32
  0
VERTEX
  8
PLAYPIT
 62
4
 10
477325.169
 20
6772613.385
 30
310.000
 70
    32
  0
VERTEX
  8
PLAYPIT
 62
4
 10
477333.304
 20
6772602.327
 30
310.000
 70
    32
  0
VERTEX
  8
PLAYPIT
 62
4
 10
477338.700
 20
6772588.514
 30
310.000
 70
    32
  0
VERTEX
  8
PLAYPIT
 62
4
 10
477340.216
 20
6772574.870
 30
310.000
 70
    32
  0
VERTEX
  8
PLAYPIT
 62
4
 10
477339.798
 20
6772554.071
 30
310.000
 70
    32
  0
VERTEX
  8
PLAYPIT
 62
4
 10
477340.362
 20
6772541.044
 30
310.000
 70
    32
  0
VERTEX
  8
PLAYPIT
 62
4
 10
477342.628
 20
6772527.901
 30
310.000
 70
    32
  0
VERTEX
  8
PLAYPIT
 62
4
 10
477346.555
 20
6772515.157
 30
310.000
 70
    32
  0
VERTEX
  8
PLAYPIT
 62
4
 10
477391.652
 20
6772396.061
 30
310.000
 70
    32
  0
VERTEX
  8
PLAYPIT
 62
4
 10
477393.690
 20
6772384.961
 30
310.000
 70
    32
  0
VERTEX
  8
PLAYPIT
 62
4
 10
477391.756
 20
6772374.278
 30
310.000
 70
    32
  0
VERTEX
  8
PLAYPIT
 62
4
 10
477385.954
 20
6772364.597
 30
310.000
 70
    32
  0
VERTEX
  8
PLAYPIT
 62
4
 10
477383.251
 20
6772361.516
 30
310.000
 70
    32
  0
VERTEX
  8
PLAYPIT
 62
4
 10
477308.665
 20
6772421.052
 30
310.000
 70
    32
  0
VERTEX
  8
PLAYPIT
 62
4
 10
477292.176
 20
6772402.261
 30
310.000
 70
    32
  0
VERTEX
  8
PLAYPIT
 62
4
 10
477213.553
 20
6772457.191
 30
310.000
 70
    32
  0
VERTEX
  8
PLAYPIT
 62
4
 10
477198.389
 20
6772455.813
 30
310.000
 70
    32
  0
VERTEX
  8
PLAYPIT
 62
4
 10
477192.191
 20
6772455.698
 30
310.000
 70
    32
  0
VERTEX
  8
PLAYPIT
 62
4
 10
477185.663
 20
6772456.523
 30
310.000
 70
    32
  0
VERTEX
  8
PLAYPIT
 62
4
 10
477179.905
 20
6772458.115
 30
310.000
 70
    32
  0
VERTEX
  8
PLAYPIT
 62
4
 10
477156.177
 20
6772466.573
 30
310.000
 70
    32
  0
VERTEX
  8
PLAYPIT
 62
4
 10
477148.139
 20
6772468.496
 30
310.000
 70
    32
  0
VERTEX
  8
PLAYPIT
 62
4
 10
477141.024
 20
6772468.640
 30
310.000
 70
    32
  0
VERTEX
  8
PLAYPIT
 62
4
 10
477133.644
 20
6772467.244
 30
310.000
 70
    32
  0
SEQEND
  8
PLAYPIT
  0
ENDSEC
  0
EOF
