999
Created by CloudCompare v2.13.alpha
999
Created 2024-07-14T01:59:24
999
dxflib 3.17.0.0
  0
SECTION
  2
HEADER
  9
$ACADVER
  1
AC1009
  9
$INSBASE
 10
0.0
 20
0.0
 30
0.0
  9
$EXTMIN
 10
476777.8884040832635947
 20
6772306.7584144594147801
 30
240.4504005432128793
  9
$EXTMAX
 10
477427.9795921325567178
 20
6772680.1755760191008449
 30
349.5495994567871207
  9
$LIMMIN
 10
476777.8884040832635947
 20
6772306.7584144594147801
  9
$LIMMAX
 10
477427.9795921325567178
 20
6772680.1755760191008449
  0
ENDSEC
  0
SECTION
  2
TABLES
  0
TABLE
  2
VPORT
 70
1
  0
VPORT
  2
*Active
 70
0
 10
0.0
 20
0.0
 11
1.0
 21
1.0
 12
286.3055555555554861
 22
148.5
 13
0.0
 23
0.0
 14
10.0
 24
10.0
 15
10.0
 25
10.0
 16
0.0
 26
0.0
 36
1.0
 17
0.0
 27
0.0
 37
0.0
 40
297.0
 41
1.92798353909465
 42
50.0
 43
0.0
 44
0.0
 50
0.0
 51
0.0
 71
0
 72
100
 73
1
 74
3
 75
1
 76
1
 77
0
 78
0
  0
ENDTAB
  0
TABLE
  2
LTYPE
 70
3
  0
LTYPE
  2
CONTINUOUS
 70
0
  3
Solid line
 72
65
 73
0
 40
0.0
  0
ENDTAB
  0
TABLE
  2
LAYER
 70
16
  0
LAYER
  2
0
 70
0
 62
250
  6
CONTINUOUS
  0
LAYER
  2
POLYLINE_001
 70
0
 62
3
  6
CONTINUOUS
  0
LAYER
  2
POLYLINE_002
 70
0
 62
3
  6
CONTINUOUS
  0
LAYER
  2
POLYLINE_003
 70
0
 62
3
  6
CONTINUOUS
  0
LAYER
  2
POLYLINE_004
 70
0
 62
3
  6
CONTINUOUS
  0
LAYER
  2
POLYLINE_005
 70
0
 62
3
  6
CONTINUOUS
  0
LAYER
  2
POLYLINE_006
 70
0
 62
3
  6
CONTINUOUS
  0
LAYER
  2
POLYLINE_007
 70
0
 62
3
  6
CONTINUOUS
  0
LAYER
  2
POLYLINE_008
 70
0
 62
3
  6
CONTINUOUS
  0
LAYER
  2
POLYLINE_009
 70
0
 62
3
  6
CONTINUOUS
  0
LAYER
  2
POLYLINE_010
 70
0
 62
3
  6
CONTINUOUS
  0
LAYER
  2
POLYLINE_011
 70
0
 62
3
  6
CONTINUOUS
  0
LAYER
  2
POLYLINE_012
 70
0
 62
3
  6
CONTINUOUS
  0
LAYER
  2
POLYLINE_013
 70
0
 62
3
  6
CONTINUOUS
  0
LAYER
  2
POLYLINE_014
 70
0
 62
3
  6
CONTINUOUS
  0
LAYER
  2
POLYLINE_015
 70
0
 62
3
  6
CONTINUOUS
  0
ENDTAB
  0
TABLE
  2
STYLE
 70
1
  0
STYLE
  2
Standard
 70
0
 40
0.0
 41
0.75
 50
0.0
 71
0
 42
2.5
  3
txt
  4

  0
ENDTAB
  0
TABLE
  2
VIEW
 70
0
  0
ENDTAB
  0
TABLE
  2
UCS
 70
0
  0
ENDTAB
  0
TABLE
  2
APPID
 70
1
  0
APPID
  2
ACAD
 70
0
  0
ENDTAB
  0
TABLE
  2
DIMSTYLE
 70
1
  0
DIMSTYLE
  2
Standard
  3

  4

  5

  6

  7

 40
1.0
 41
1.0
 42
1.0
 43
3.75
 44
1.0
 45
0.0
 46
0.0
 47
0.0
 48
0.0
 70
0
 71
0
 72
0
 73
0
 74
0
 75
0
 76
0
 77
1
 78
8
140
1.0
141
2.5
142
0.0
143
0.03937007874016
144
1.0
145
0.0
146
1.0
147
1.0
170
0
171
3
172
1
173
0
174
0
175
0
176
0
177
0
178
0
  0
ENDTAB
  0
TABLE
  2
BLOCK_RECORD
 70
1
  0
BLOCK_RECORD
  2
*Model_Space
340
22
  0
BLOCK_RECORD
  2
*Paper_Space
340
1E
  0
BLOCK_RECORD
  2
*Paper_Space0
340
26
  0
ENDTAB
  0
ENDSEC
  0
SECTION
  2
BLOCKS
  0
BLOCK
  2
*Model_Space
 70
0
 10
0.0
 20
0.0
 30
0.0
  3
*Model_Space
  1

  0
ENDBLK
  0
BLOCK
  2
*Paper_Space
 70
0
 10
0.0
 20
0.0
 30
0.0
  3
*Paper_Space
  1

  0
ENDBLK
  0
BLOCK
  2
*Paper_Space0
 70
0
 10
0.0
 20
0.0
 30
0.0
  3
*Paper_Space0
  1

  0
ENDBLK
  0
ENDSEC
  0
SECTION
  2
ENTITIES
  0
POLYLINE
  8
POLYLINE_001
  6
BYLAYER
 66
1
 70
9
 10
0.0
 20
0.0
 30
0.0
  0
VERTEX
  8
POLYLINE_001
 10
477043.1669998168945312
 20
6772439.1090087890625
 30
310.0
  0
VERTEX
  8
POLYLINE_001
 10
476943.6100006103515625
 20
6772408.157012939453125
 30
310.0
  0
VERTEX
  8
POLYLINE_001
 10
476936.9739990234375
 20
6772406.5050048828125
 30
310.0
  0
VERTEX
  8
POLYLINE_001
 10
476929.8909988403320312
 20
6772405.532012939453125
 30
310.0
  0
VERTEX
  8
POLYLINE_001
 10
476923.3270034790039062
 20
6772405.32000732421875
 30
310.0
  0
VERTEX
  8
POLYLINE_001
 10
476867.6150054931640625
 20
6772406.45001220703125
 30
310.0
  0
VERTEX
  8
POLYLINE_001
 10
476859.2050018310546875
 20
6772407.730987548828125
 30
310.0
  0
VERTEX
  8
POLYLINE_001
 10
476850.4040069580078125
 20
6772411.587005615234375
 30
310.0
  0
VERTEX
  8
POLYLINE_001
 10
476843.761993408203125
 20
6772416.9010009765625
 30
310.0
  0
VERTEX
  8
POLYLINE_001
 10
476821.6049957275390625
 20
6772439.975006103515625
 30
310.0
  0
VERTEX
  8
POLYLINE_001
 10
476815.0279998779296875
 20
6772450.001007080078125
 30
310.0
  0
VERTEX
  8
POLYLINE_001
 10
476812.17999267578125
 20
6772463.25799560546875
 30
310.0
  0
VERTEX
  8
POLYLINE_001
 10
476814.061004638671875
 20
6772475.10101318359375
 30
310.0
  0
VERTEX
  8
POLYLINE_001
 10
476845.0529937744140625
 20
6772562.11199951171875
 30
310.0
  0
VERTEX
  8
POLYLINE_001
 10
476848.281005859375
 20
6772569.35498046875
 30
310.0
  0
VERTEX
  8
POLYLINE_001
 10
476853.0359954833984375
 20
6772576.71002197265625
 30
310.0
  0
VERTEX
  8
POLYLINE_001
 10
476858.5670013427734375
 20
6772582.88897705078125
 30
310.0
  0
VERTEX
  8
POLYLINE_001
 10
476881.9449996948242188
 20
6772605.3189697265625
 30
310.0
  0
VERTEX
  8
POLYLINE_001
 10
476888.0709991455078125
 20
6772610.35302734375
 30
310.0
  0
VERTEX
  8
POLYLINE_001
 10
476895.6129989624023438
 20
6772614.80499267578125
 30
310.0
  0
VERTEX
  8
POLYLINE_001
 10
476903.3239974975585938
 20
6772617.85797119140625
 30
310.0
  0
VERTEX
  8
POLYLINE_001
 10
476979.3710002899169922
 20
6772641.5059814453125
 30
310.0
  0
VERTEX
  8
POLYLINE_001
 10
476998.5700000524520874
 20
6772643.76202392578125
 30
310.0
  0
VERTEX
  8
POLYLINE_001
 10
477018.8080005645751953
 20
6772638.54901123046875
 30
310.0
  0
VERTEX
  8
POLYLINE_001
 10
477034.5270004272460938
 20
6772627.29901123046875
 30
310.0
  0
VERTEX
  8
POLYLINE_001
 10
477043.7410011291503906
 20
6772617.70501708984375
 30
310.0
  0
VERTEX
  8
POLYLINE_001
 10
477047.2900009155273438
 20
6772614.864990234375
 30
310.0
  0
VERTEX
  8
POLYLINE_001
 10
477050.4449996948242188
 20
6772613.48297119140625
 30
310.0
  0
VERTEX
  8
POLYLINE_001
 10
477054.9389991760253906
 20
6772612.7979736328125
 30
310.0
  0
VERTEX
  8
POLYLINE_001
 10
477098.602996826171875
 20
6772611.91302490234375
 30
310.0
  0
VERTEX
  8
POLYLINE_001
 10
477103.121002197265625
 20
6772612.41497802734375
 30
310.0
  0
VERTEX
  8
POLYLINE_001
 10
477106.3290023803710938
 20
6772613.66802978515625
 30
310.0
  0
VERTEX
  8
POLYLINE_001
 10
477109.990997314453125
 20
6772616.36199951171875
 30
310.0
  0
VERTEX
  8
POLYLINE_001
 10
477125.1409988403320312
 20
6772630.9110107421875
 30
310.0
  0
VERTEX
  8
POLYLINE_001
 10
477136.1999969482421875
 20
6772639.04498291015625
 30
310.0
  0
VERTEX
  8
POLYLINE_001
 10
477150.01300048828125
 20
6772644.4420166015625
 30
310.0
  0
VERTEX
  8
POLYLINE_001
 10
477163.6569976806640625
 20
6772645.95697021484375
 30
310.0
  0
VERTEX
  8
POLYLINE_001
 10
477274.102996826171875
 20
6772643.718017578125
 30
310.0
  0
VERTEX
  8
POLYLINE_001
 10
477287.67401123046875
 20
6772641.6510009765625
 30
310.0
  0
VERTEX
  8
POLYLINE_001
 10
477301.256988525390625
 20
6772635.70001220703125
 30
310.0
  0
VERTEX
  8
POLYLINE_001
 10
477311.97601318359375
 20
6772627.12298583984375
 30
310.0
  0
VERTEX
  8
POLYLINE_001
 10
477325.16900634765625
 20
6772613.385009765625
 30
310.0
  0
VERTEX
  8
POLYLINE_001
 10
477333.303985595703125
 20
6772602.3270263671875
 30
310.0
  0
VERTEX
  8
POLYLINE_001
 10
477338.70001220703125
 20
6772588.51397705078125
 30
310.0
  0
VERTEX
  8
POLYLINE_001
 10
477340.21600341796875
 20
6772574.8699951171875
 30
310.0
  0
VERTEX
  8
POLYLINE_001
 10
477339.798004150390625
 20
6772554.07098388671875
 30
310.0
  0
VERTEX
  8
POLYLINE_001
 10
477340.36199951171875
 20
6772541.04400634765625
 30
310.0
  0
VERTEX
  8
POLYLINE_001
 10
477342.62799072265625
 20
6772527.9010009765625
 30
310.0
  0
VERTEX
  8
POLYLINE_001
 10
477346.55499267578125
 20
6772515.156982421875
 30
310.0
  0
VERTEX
  8
POLYLINE_001
 10
477391.652008056640625
 20
6772396.061004638671875
 30
310.0
  0
VERTEX
  8
POLYLINE_001
 10
477393.69000244140625
 20
6772384.96099853515625
 30
310.0
  0
VERTEX
  8
POLYLINE_001
 10
477391.756011962890625
 20
6772374.27801513671875
 30
310.0
  0
VERTEX
  8
POLYLINE_001
 10
477385.954010009765625
 20
6772364.59698486328125
 30
310.0
  0
VERTEX
  8
POLYLINE_001
 10
477383.251007080078125
 20
6772361.5159912109375
 30
310.0
  0
VERTEX
  8
POLYLINE_001
 10
477308.665008544921875
 20
6772421.052001953125
 30
310.0
  0
VERTEX
  8
POLYLINE_001
 10
477292.175994873046875
 20
6772402.260986328125
 30
310.0
  0
VERTEX
  8
POLYLINE_001
 10
477213.5529937744140625
 20
6772457.191009521484375
 30
310.0
  0
VERTEX
  8
POLYLINE_001
 10
477198.389007568359375
 20
6772455.81298828125
 30
310.0
  0
VERTEX
  8
POLYLINE_001
 10
477192.1909942626953125
 20
6772455.697998046875
 30
310.0
  0
VERTEX
  8
POLYLINE_001
 10
477185.662994384765625
 20
6772456.52301025390625
 30
310.0
  0
VERTEX
  8
POLYLINE_001
 10
477179.904998779296875
 20
6772458.114990234375
 30
310.0
  0
VERTEX
  8
POLYLINE_001
 10
477156.177001953125
 20
6772466.572998046875
 30
310.0
  0
VERTEX
  8
POLYLINE_001
 10
477148.139007568359375
 20
6772468.496002197265625
 30
310.0
  0
VERTEX
  8
POLYLINE_001
 10
477141.0240020751953125
 20
6772468.6400146484375
 30
310.0
  0
VERTEX
  8
POLYLINE_001
 10
477133.6439971923828125
 20
6772467.243988037109375
 30
310.0
  0
SEQEND
  0
POLYLINE
  8
POLYLINE_002
  6
BYLAYER
 66
1
 70
9
 10
0.0
 20
0.0
 30
0.0
  0
VERTEX
  8
POLYLINE_002
 10
477292.175994873046875
 20
6772402.260986328125
 30
310.0
  0
VERTEX
  8
POLYLINE_002
 10
477308.665008544921875
 20
6772421.052001953125
 30
310.0
  0
VERTEX
  8
POLYLINE_002
 10
477233.5070037841796875
 20
6772487.0050048828125
 30
300.0
  0
VERTEX
  8
POLYLINE_002
 10
477217.01800537109375
 20
6772468.2139892578125
 30
300.0
  0
SEQEND
  0
POLYLINE
  8
POLYLINE_003
  6
BYLAYER
 66
1
 70
9
 10
0.0
 20
0.0
 30
0.0
  0
VERTEX
  8
POLYLINE_003
 10
477027.9479999542236328
 20
6772474.160003662109375
 30
280.0
  0
VERTEX
  8
POLYLINE_003
 10
476928.4530029296875
 20
6772443.2130126953125
 30
280.0
  0
VERTEX
  8
POLYLINE_003
 10
476870.0260009765625
 20
6772444.39801025390625
 30
280.0
  0
VERTEX
  8
POLYLINE_003
 10
476850.641998291015625
 20
6772464.584014892578125
 30
280.0
  0
VERTEX
  8
POLYLINE_003
 10
476882.0049972534179688
 20
6772552.7249755859375
 30
280.0
  0
VERTEX
  8
POLYLINE_003
 10
476910.7979965209960938
 20
6772580.39898681640625
 30
280.0
  0
VERTEX
  8
POLYLINE_003
 10
476987.2950000762939453
 20
6772604.18597412109375
 30
280.0
  0
VERTEX
  8
POLYLINE_003
 10
476995.9609999656677246
 20
6772605.20501708984375
 30
280.0
  0
VERTEX
  8
POLYLINE_003
 10
477002.4660000801086426
 20
6772603.52899169921875
 30
280.0
  0
VERTEX
  8
POLYLINE_003
 10
477009.560999870300293
 20
6772598.4520263671875
 30
280.0
  0
VERTEX
  8
POLYLINE_003
 10
477018.0639991760253906
 20
6772589.59600830078125
 30
280.0
  0
VERTEX
  8
POLYLINE_003
 10
477027.4629993438720703
 20
6772582.0770263671875
 30
280.0
  0
VERTEX
  8
POLYLINE_003
 10
477039.7789993286132812
 20
6772576.67999267578125
 30
280.0
  0
VERTEX
  8
POLYLINE_003
 10
477051.6790008544921875
 20
6772574.86700439453125
 30
280.0
  0
VERTEX
  8
POLYLINE_003
 10
477100.322998046875
 20
6772573.8809814453125
 30
280.0
  0
VERTEX
  8
POLYLINE_003
 10
477112.2860031127929688
 20
6772575.21002197265625
 30
280.0
  0
VERTEX
  8
POLYLINE_003
 10
477124.8109970092773438
 20
6772580.10302734375
 30
280.0
  0
VERTEX
  8
POLYLINE_003
 10
477134.5070037841796875
 20
6772587.23602294921875
 30
280.0
  0
VERTEX
  8
POLYLINE_003
 10
477149.6580047607421875
 20
6772601.78497314453125
 30
280.0
  0
VERTEX
  8
POLYLINE_003
 10
477154.6820068359375
 20
6772605.47998046875
 30
280.0
  0
VERTEX
  8
POLYLINE_003
 10
477159.1779937744140625
 20
6772607.23699951171875
 30
280.0
  0
VERTEX
  8
POLYLINE_003
 10
477165.376007080078125
 20
6772607.92498779296875
 30
280.0
  0
VERTEX
  8
POLYLINE_003
 10
477270.842987060546875
 20
6772605.7869873046875
 30
280.0
  0
VERTEX
  8
POLYLINE_003
 10
477277.009002685546875
 20
6772604.8480224609375
 30
280.0
  0
VERTEX
  8
POLYLINE_003
 10
477281.42999267578125
 20
6772602.9110107421875
 30
280.0
  0
VERTEX
  8
POLYLINE_003
 10
477286.29998779296875
 20
6772599.0150146484375
 30
280.0
  0
VERTEX
  8
POLYLINE_003
 10
477296.042999267578125
 20
6772588.86798095703125
 30
280.0
  0
VERTEX
  8
POLYLINE_003
 10
477299.739013671875
 20
6772583.843994140625
 30
280.0
  0
VERTEX
  8
POLYLINE_003
 10
477301.4949951171875
 20
6772579.3489990234375
 30
280.0
  0
VERTEX
  8
POLYLINE_003
 10
477302.183990478515625
 20
6772573.1500244140625
 30
280.0
  0
VERTEX
  8
POLYLINE_003
 10
477301.29400634765625
 20
6772529.24798583984375
 30
280.0
  0
VERTEX
  8
POLYLINE_003
 10
477263.644012451171875
 20
6772493.095001220703125
 30
280.0
  0
VERTEX
  8
POLYLINE_003
 10
477262.602996826171875
 20
6772492.095001220703125
 30
280.0
  0
VERTEX
  8
POLYLINE_003
 10
477179.035003662109375
 20
6772529.0980224609375
 30
280.0
  0
VERTEX
  8
POLYLINE_003
 10
477161.1100006103515625
 20
6772532.7449951171875
 30
280.0
  0
VERTEX
  8
POLYLINE_003
 10
477140.4290008544921875
 20
6772532.7239990234375
 30
280.0
  0
VERTEX
  8
POLYLINE_003
 10
477112.6780014038085938
 20
6772527.33099365234375
 30
280.0
  0
VERTEX
  8
POLYLINE_003
 10
477021.6439990997314453
 20
6772498.558990478515625
 30
280.0
  0
SEQEND
  0
POLYLINE
  8
POLYLINE_004
  6
BYLAYER
 66
1
 70
9
 10
0.0
 20
0.0
 30
0.0
  0
VERTEX
  8
POLYLINE_004
 10
477033.2709999084472656
 20
6772470.9320068359375
 30
290.0
  0
VERTEX
  8
POLYLINE_004
 10
476929.1149978637695312
 20
6772438.5360107421875
 30
290.0
  0
VERTEX
  8
POLYLINE_004
 10
476868.0
 20
6772439.774993896484375
 30
290.0
  0
VERTEX
  8
POLYLINE_004
 10
476845.2830047607421875
 20
6772463.433013916015625
 30
290.0
  0
VERTEX
  8
POLYLINE_004
 10
476877.9810028076171875
 20
6772555.32501220703125
 30
290.0
  0
VERTEX
  8
POLYLINE_004
 10
476908.3610000610351562
 20
6772584.52398681640625
 30
290.0
  0
VERTEX
  8
POLYLINE_004
 10
476986.3229999542236328
 20
6772608.76702880859375
 30
290.0
  0
VERTEX
  8
POLYLINE_004
 10
476996.2809998989105225
 20
6772609.93701171875
 30
290.0
  0
VERTEX
  8
POLYLINE_004
 10
477004.4720001220703125
 20
6772607.8280029296875
 30
290.0
  0
VERTEX
  8
POLYLINE_004
 10
477012.625
 20
6772601.99298095703125
 30
290.0
  0
VERTEX
  8
POLYLINE_004
 10
477021.2159996032714844
 20
6772593.0469970703125
 30
290.0
  0
VERTEX
  8
POLYLINE_004
 10
477029.8969993591308594
 20
6772586.10101318359375
 30
290.0
  0
VERTEX
  8
POLYLINE_004
 10
477041.0890007019042969
 20
6772581.197998046875
 30
290.0
  0
VERTEX
  8
POLYLINE_004
 10
477052.0789985656738281
 20
6772579.52301025390625
 30
290.0
  0
VERTEX
  8
POLYLINE_004
 10
477100.11199951171875
 20
6772578.54998779296875
 30
290.0
  0
VERTEX
  8
POLYLINE_004
 10
477111.1610031127929688
 20
6772579.7769775390625
 30
290.0
  0
VERTEX
  8
POLYLINE_004
 10
477122.5419998168945312
 20
6772584.2230224609375
 30
290.0
  0
VERTEX
  8
POLYLINE_004
 10
477131.4980010986328125
 20
6772590.81097412109375
 30
290.0
  0
VERTEX
  8
POLYLINE_004
 10
477146.6490020751953125
 20
6772605.3599853515625
 30
290.0
  0
VERTEX
  8
POLYLINE_004
 10
477152.412994384765625
 20
6772609.5999755859375
 30
290.0
  0
VERTEX
  8
POLYLINE_004
 10
477158.0529937744140625
 20
6772611.80401611328125
 30
290.0
  0
VERTEX
  8
POLYLINE_004
 10
477165.1649932861328125
 20
6772612.593994140625
 30
290.0
  0
VERTEX
  8
POLYLINE_004
 10
477271.243011474609375
 20
6772610.4429931640625
 30
290.0
  0
VERTEX
  8
POLYLINE_004
 10
477278.3179931640625
 20
6772609.36602783203125
 30
290.0
  0
VERTEX
  8
POLYLINE_004
 10
477283.864013671875
 20
6772606.93597412109375
 30
290.0
  0
VERTEX
  8
POLYLINE_004
 10
477289.451995849609375
 20
6772602.46502685546875
 30
290.0
  0
VERTEX
  8
POLYLINE_004
 10
477299.618011474609375
 20
6772591.87799072265625
 30
290.0
  0
VERTEX
  8
POLYLINE_004
 10
477303.8590087890625
 20
6772586.11297607421875
 30
290.0
  0
VERTEX
  8
POLYLINE_004
 10
477306.06201171875
 20
6772580.4739990234375
 30
290.0
  0
VERTEX
  8
POLYLINE_004
 10
477306.85198974609375
 20
6772573.36102294921875
 30
290.0
  0
VERTEX
  8
POLYLINE_004
 10
477305.9169921875
 20
6772527.2230224609375
 30
290.0
  0
VERTEX
  8
POLYLINE_004
 10
477263.57501220703125
 20
6772486.56298828125
 30
290.0
  0
VERTEX
  8
POLYLINE_004
 10
477177.61199951171875
 20
6772524.656982421875
 30
290.0
  0
VERTEX
  8
POLYLINE_004
 10
477159.6869964599609375
 20
6772528.30499267578125
 30
290.0
  0
VERTEX
  8
POLYLINE_004
 10
477139.0059967041015625
 20
6772528.28302001953125
 30
290.0
  0
VERTEX
  8
POLYLINE_004
 10
477122.7289962768554688
 20
6772524.28900146484375
 30
290.0
  0
VERTEX
  8
POLYLINE_004
 10
477118.464996337890625
 20
6772523.573974609375
 30
290.0
  0
VERTEX
  8
POLYLINE_004
 10
477124.7190017700195312
 20
6772499.368988037109375
 30
290.0
  0
SEQEND
  0
POLYLINE
  8
POLYLINE_005
  6
BYLAYER
 66
1
 70
9
 10
0.0
 20
0.0
 30
0.0
  0
VERTEX
  8
POLYLINE_005
 10
477021.6439990997314453
 20
6772498.558990478515625
 30
280.0
  0
VERTEX
  8
POLYLINE_005
 10
477024.6030006408691406
 20
6772473.886993408203125
 30
280.0
  0
VERTEX
  8
POLYLINE_005
 10
476926.7480010986328125
 20
6772455.25
 30
280.0
  0
VERTEX
  8
POLYLINE_005
 10
476875.2389984130859375
 20
6772456.295013427734375
 30
280.0
  0
VERTEX
  8
POLYLINE_005
 10
476864.4329986572265625
 20
6772467.5469970703125
 30
280.0
  0
VERTEX
  8
POLYLINE_005
 10
476892.36199951171875
 20
6772546.03497314453125
 30
280.0
  0
VERTEX
  8
POLYLINE_005
 10
476917.069000244140625
 20
6772569.781982421875
 30
280.0
  0
VERTEX
  8
POLYLINE_005
 10
476989.7980003356933594
 20
6772592.39801025390625
 30
280.0
  0
VERTEX
  8
POLYLINE_005
 10
476995.1360001564025879
 20
6772593.0250244140625
 30
280.0
  0
VERTEX
  8
POLYLINE_005
 10
476997.3029999732971191
 20
6772592.46697998046875
 30
280.0
  0
VERTEX
  8
POLYLINE_005
 10
477001.6740000247955322
 20
6772589.3389892578125
 30
280.0
  0
VERTEX
  8
POLYLINE_005
 10
477009.9530000686645508
 20
6772580.718017578125
 30
280.0
  0
VERTEX
  8
POLYLINE_005
 10
477021.2000007629394531
 20
6772571.719970703125
 30
280.0
  0
VERTEX
  8
POLYLINE_005
 10
477036.4109992980957031
 20
6772565.05499267578125
 30
280.0
  0
VERTEX
  8
POLYLINE_005
 10
477029.7940006256103516
 20
6772501.07501220703125
 30
280.0
  0
SEQEND
  0
POLYLINE
  8
POLYLINE_006
  6
BYLAYER
 66
1
 70
9
 10
0.0
 20
0.0
 30
0.0
  0
VERTEX
  8
POLYLINE_006
 10
476922.5670013427734375
 20
6772484.5570068359375
 30
270.0
  0
VERTEX
  8
POLYLINE_006
 10
476926.055999755859375
 20
6772459.928009033203125
 30
270.0
  0
VERTEX
  8
POLYLINE_006
 10
476877.2639999389648438
 20
6772460.9169921875
 30
270.0
  0
VERTEX
  8
POLYLINE_006
 10
476869.792999267578125
 20
6772468.697998046875
 30
270.0
  0
VERTEX
  8
POLYLINE_006
 10
476896.3860015869140625
 20
6772543.43499755859375
 30
270.0
  0
VERTEX
  8
POLYLINE_006
 10
476919.5059967041015625
 20
6772565.656005859375
 30
270.0
  0
VERTEX
  8
POLYLINE_006
 10
476990.7709999084472656
 20
6772587.8170166015625
 30
270.0
  0
VERTEX
  8
POLYLINE_006
 10
476994.8159999847412109
 20
6772588.2919921875
 30
270.0
  0
VERTEX
  8
POLYLINE_006
 10
476995.2969999313354492
 20
6772588.16802978515625
 30
270.0
  0
VERTEX
  8
POLYLINE_006
 10
476998.6100000143051147
 20
6772585.7979736328125
 30
270.0
  0
VERTEX
  8
POLYLINE_006
 10
477006.8010001182556152
 20
6772577.26702880859375
 30
270.0
  0
VERTEX
  8
POLYLINE_006
 10
477018.7660007476806641
 20
6772567.69500732421875
 30
270.0
  0
VERTEX
  8
POLYLINE_006
 10
477031.4220008850097656
 20
6772562.1500244140625
 30
270.0
  0
VERTEX
  8
POLYLINE_006
 10
477025.680999755859375
 20
6772504.063995361328125
 30
270.0
  0
SEQEND
  0
POLYLINE
  8
POLYLINE_007
  6
BYLAYER
 66
1
 70
9
 10
0.0
 20
0.0
 30
0.0
  0
VERTEX
  8
POLYLINE_007
 10
476922.5670013427734375
 20
6772484.5570068359375
 30
270.0
  0
VERTEX
  8
POLYLINE_007
 10
477021.6439990997314453
 20
6772498.558990478515625
 30
280.0
  0
VERTEX
  8
POLYLINE_007
 10
477024.6030006408691406
 20
6772473.886993408203125
 30
280.0
  0
VERTEX
  8
POLYLINE_007
 10
476926.055999755859375
 20
6772459.928009033203125
 30
270.0
  0
SEQEND
  0
POLYLINE
  8
POLYLINE_008
  6
BYLAYER
 66
1
 70
9
 10
0.0
 20
0.0
 30
0.0
  0
VERTEX
  8
POLYLINE_008
 10
477217.01800537109375
 20
6772468.2139892578125
 30
300.0
  0
VERTEX
  8
POLYLINE_008
 10
477164.8260040283203125
 20
6772493.972991943359375
 30
294.13800048828125
  0
VERTEX
  8
POLYLINE_008
 10
477152.4900054931640625
 20
6772498.498992919921875
 30
292.81500244140625
  0
VERTEX
  8
POLYLINE_008
 10
477138.3170013427734375
 20
6772500.454010009765625
 30
291.373992919921875
  0
VERTEX
  8
POLYLINE_008
 10
477124.7190017700195312
 20
6772499.368988037109375
 30
290.0
  0
VERTEX
  8
POLYLINE_008
 10
477122.7289962768554688
 20
6772524.28900146484375
 30
290.0
  0
VERTEX
  8
POLYLINE_008
 10
477139.0399932861328125
 20
6772525.59100341796875
 30
291.45098876953125
  0
VERTEX
  8
POLYLINE_008
 10
477158.572998046875
 20
6772522.89599609375
 30
293.199005126953125
  0
VERTEX
  8
POLYLINE_008
 10
477174.6909942626953125
 20
6772516.98297119140625
 30
294.72100830078125
  0
VERTEX
  8
POLYLINE_008
 10
477228.082000732421875
 20
6772490.63299560546875
 30
300.0
  0
SEQEND
  0
POLYLINE
  8
POLYLINE_009
  6
BYLAYER
 66
1
 70
9
 10
0.0
 20
0.0
 30
0.0
  0
VERTEX
  8
POLYLINE_009
 10
477118.464996337890625
 20
6772523.573974609375
 30
290.0
  0
VERTEX
  8
POLYLINE_009
 10
477021.6439990997314453
 20
6772498.558990478515625
 30
280.0
  0
VERTEX
  8
POLYLINE_009
 10
477027.8980007171630859
 20
6772474.35400390625
 30
280.0
  0
VERTEX
  8
POLYLINE_009
 10
477124.7190017700195312
 20
6772499.368988037109375
 30
290.0
  0
SEQEND
  0
POLYLINE
  8
POLYLINE_010
  6
BYLAYER
 66
1
 70
9
 10
0.0
 20
0.0
 30
0.0
  0
VERTEX
  8
POLYLINE_010
 10
477367.334014892578125
 20
6772336.308013916015625
 30
320.0
  0
VERTEX
  8
POLYLINE_010
 10
477383.822998046875
 20
6772355.0989990234375
 30
320.0
  0
VERTEX
  8
POLYLINE_010
 10
477308.665008544921875
 20
6772421.052001953125
 30
310.0
  0
VERTEX
  8
POLYLINE_010
 10
477292.175994873046875
 20
6772402.260986328125
 30
310.0
  0
SEQEND
  0
POLYLINE
  8
POLYLINE_011
  6
BYLAYER
 66
1
 70
9
 10
0.0
 20
0.0
 30
0.0
  0
VERTEX
  8
POLYLINE_011
 10
477044.5509986877441406
 20
6772434.656005859375
 30
320.0
  0
VERTEX
  8
POLYLINE_011
 10
476944.7190017700195312
 20
6772403.62701416015625
 30
320.0
  0
VERTEX
  8
POLYLINE_011
 10
476937.5929985046386719
 20
6772401.88299560546875
 30
320.0
  0
VERTEX
  8
POLYLINE_011
 10
476930.0370025634765625
 20
6772400.871002197265625
 30
320.0
  0
VERTEX
  8
POLYLINE_011
 10
476923.2320022583007812
 20
6772400.657989501953125
 30
320.0
  0
VERTEX
  8
POLYLINE_011
 10
476867.214996337890625
 20
6772401.79400634765625
 30
320.0
  0
VERTEX
  8
POLYLINE_011
 10
476857.89599609375
 20
6772403.2130126953125
 30
320.0
  0
VERTEX
  8
POLYLINE_011
 10
476847.9709930419921875
 20
6772407.56201171875
 30
320.0
  0
VERTEX
  8
POLYLINE_011
 10
476840.6100006103515625
 20
6772413.45098876953125
 30
320.0
  0
VERTEX
  8
POLYLINE_011
 10
476817.9429931640625
 20
6772437.055999755859375
 30
320.0
  0
VERTEX
  8
POLYLINE_011
 10
476810.6510009765625
 20
6772448.170989990234375
 30
320.0
  0
VERTEX
  8
POLYLINE_011
 10
476807.4380035400390625
 20
6772463.1300048828125
 30
320.0
  0
VERTEX
  8
POLYLINE_011
 10
476809.5240020751953125
 20
6772476.259002685546875
 30
320.0
  0
VERTEX
  8
POLYLINE_011
 10
476840.79400634765625
 20
6772564.010009765625
 30
320.0
  0
VERTEX
  8
POLYLINE_011
 10
476844.16900634765625
 20
6772571.5830078125
 30
320.0
  0
VERTEX
  8
POLYLINE_011
 10
476849.32000732421875
 20
6772579.551025390625
 30
320.0
  0
VERTEX
  8
POLYLINE_011
 10
476855.339996337890625
 20
6772586.2550048828125
 30
320.0
  0
VERTEX
  8
POLYLINE_011
 10
476878.9850006103515625
 20
6772608.9219970703125
 30
320.0
  0
VERTEX
  8
POLYLINE_011
 10
476885.3889999389648438
 20
6772614.18499755859375
 30
320.0
  0
VERTEX
  8
POLYLINE_011
 10
476893.55999755859375
 20
6772619.00799560546875
 30
320.0
  0
VERTEX
  8
POLYLINE_011
 10
476901.9390029907226562
 20
6772622.31097412109375
 30
320.0
  0
VERTEX
  8
POLYLINE_011
 10
476978.3990001678466797
 20
6772646.08697509765625
 30
320.0
  0
VERTEX
  8
POLYLINE_011
 10
476998.8899999856948853
 20
6772648.4940185546875
 30
320.0
  0
VERTEX
  8
POLYLINE_011
 10
477020.8139991760253906
 20
6772642.8480224609375
 30
320.0
  0
VERTEX
  8
POLYLINE_011
 10
477037.5919990539550781
 20
6772630.84002685546875
 30
320.0
  0
VERTEX
  8
POLYLINE_011
 10
477046.891998291015625
 20
6772621.155029296875
 30
320.0
  0
VERTEX
  8
POLYLINE_011
 10
477049.7239990234375
 20
6772618.8900146484375
 30
320.0
  0
VERTEX
  8
POLYLINE_011
 10
477051.7540016174316406
 20
6772618.0
 30
320.0
  0
VERTEX
  8
POLYLINE_011
 10
477055.3390007019042969
 20
6772617.4539794921875
 30
320.0
  0
VERTEX
  8
POLYLINE_011
 10
477098.391998291015625
 20
6772616.58197021484375
 30
320.0
  0
VERTEX
  8
POLYLINE_011
 10
477101.996002197265625
 20
6772616.98199462890625
 30
320.0
  0
VERTEX
  8
POLYLINE_011
 10
477104.05999755859375
 20
6772617.78802490234375
 30
320.0
  0
VERTEX
  8
POLYLINE_011
 10
477106.9810028076171875
 20
6772619.93701171875
 30
320.0
  0
VERTEX
  8
POLYLINE_011
 10
477122.1320037841796875
 20
6772634.48602294921875
 30
320.0
  0
VERTEX
  8
POLYLINE_011
 10
477133.930999755859375
 20
6772643.16497802734375
 30
320.0
  0
VERTEX
  8
POLYLINE_011
 10
477148.88800048828125
 20
6772649.00799560546875
 30
320.0
  0
VERTEX
  8
POLYLINE_011
 10
477163.4459991455078125
 20
6772650.6259765625
 30
320.0
  0
VERTEX
  8
POLYLINE_011
 10
477274.50299072265625
 20
6772648.3740234375
 30
320.0
  0
VERTEX
  8
POLYLINE_011
 10
477288.983001708984375
 20
6772646.16900634765625
 30
320.0
  0
VERTEX
  8
POLYLINE_011
 10
477303.691009521484375
 20
6772639.7239990234375
 30
320.0
  0
VERTEX
  8
POLYLINE_011
 10
477315.12799072265625
 20
6772630.573974609375
 30
320.0
  0
VERTEX
  8
POLYLINE_011
 10
477328.743988037109375
 20
6772616.39398193359375
 30
320.0
  0
VERTEX
  8
POLYLINE_011
 10
477337.42401123046875
 20
6772604.594970703125
 30
320.0
  0
VERTEX
  8
POLYLINE_011
 10
477343.266998291015625
 20
6772589.63897705078125
 30
320.0
  0
VERTEX
  8
POLYLINE_011
 10
477344.884002685546875
 20
6772575.08099365234375
 30
320.0
  0
VERTEX
  8
POLYLINE_011
 10
477344.457000732421875
 20
6772554.27197265625
 30
320.0
  0
VERTEX
  8
POLYLINE_011
 10
477345.00799560546875
 20
6772541.54302978515625
 30
320.0
  0
VERTEX
  8
POLYLINE_011
 10
477347.1719970703125
 20
6772528.98699951171875
 30
320.0
  0
VERTEX
  8
POLYLINE_011
 10
477350.915985107421875
 20
6772516.8079833984375
 30
320.0
  0
VERTEX
  8
POLYLINE_011
 10
477396.1619873046875
 20
6772397.3179931640625
 30
320.0
  0
VERTEX
  8
POLYLINE_011
 10
477398.42999267578125
 20
6772384.967010498046875
 30
320.0
  0
VERTEX
  8
POLYLINE_011
 10
477396.1929931640625
 20
6772372.6099853515625
 30
320.0
  0
VERTEX
  8
POLYLINE_011
 10
477389.738006591796875
 20
6772361.8380126953125
 30
320.0
  0
VERTEX
  8
POLYLINE_011
 10
477383.822998046875
 20
6772355.0989990234375
 30
320.0
  0
VERTEX
  8
POLYLINE_011
 10
477367.334014892578125
 20
6772336.308013916015625
 30
320.0
  0
VERTEX
  8
POLYLINE_011
 10
477289.100006103515625
 20
6772398.756011962890625
 30
320.0
  0
VERTEX
  8
POLYLINE_011
 10
477212.2779998779296875
 20
6772452.394012451171875
 30
320.0
  0
VERTEX
  8
POLYLINE_011
 10
477198.4759979248046875
 20
6772451.1510009765625
 30
320.0
  0
VERTEX
  8
POLYLINE_011
 10
477191.9409942626953125
 20
6772451.029998779296875
 30
320.0
  0
VERTEX
  8
POLYLINE_011
 10
477184.7400054931640625
 20
6772451.938995361328125
 30
320.0
  0
VERTEX
  8
POLYLINE_011
 10
477178.3350067138671875
 20
6772453.7239990234375
 30
320.0
  0
VERTEX
  8
POLYLINE_011
 10
477155.0919952392578125
 20
6772462.037994384765625
 30
320.0
  0
VERTEX
  8
POLYLINE_011
 10
477147.5420074462890625
 20
6772463.843994140625
 30
320.0
  0
VERTEX
  8
POLYLINE_011
 10
477141.4149932861328125
 20
6772463.967987060546875
 30
320.0
  0
VERTEX
  8
POLYLINE_011
 10
477134.7729949951171875
 20
6772462.712005615234375
 30
320.0
  0
SEQEND
  0
POLYLINE
  8
POLYLINE_012
  6
BYLAYER
 66
1
 70
9
 10
0.0
 20
0.0
 30
0.0
  0
VERTEX
  8
POLYLINE_012
 10
477036.8339996337890625
 20
6772459.472991943359375
 30
290.0
  0
VERTEX
  8
POLYLINE_012
 10
476938.0620002746582031
 20
6772428.75201416015625
 30
290.0
  0
VERTEX
  8
POLYLINE_012
 10
476933.3560028076171875
 20
6772427.532989501953125
 30
290.0
  0
VERTEX
  8
POLYLINE_012
 10
476928.5469970703125
 20
6772426.82598876953125
 30
290.0
  0
VERTEX
  8
POLYLINE_012
 10
476923.44000244140625
 20
6772426.64801025390625
 30
290.0
  0
VERTEX
  8
POLYLINE_012
 10
476869.44500732421875
 20
6772427.743011474609375
 30
290.0
  0
VERTEX
  8
POLYLINE_012
 10
476865.1920013427734375
 20
6772428.3909912109375
 30
290.0
  0
VERTEX
  8
POLYLINE_012
 10
476861.535003662109375
 20
6772429.993011474609375
 30
290.0
  0
VERTEX
  8
POLYLINE_012
 10
476858.175994873046875
 20
6772432.680999755859375
 30
290.0
  0
VERTEX
  8
POLYLINE_012
 10
476838.35400390625
 20
6772453.322998046875
 30
290.0
  0
VERTEX
  8
POLYLINE_012
 10
476835.0420074462890625
 20
6772458.371002197265625
 30
290.0
  0
VERTEX
  8
POLYLINE_012
 10
476833.86700439453125
 20
6772463.843994140625
 30
290.0
  0
VERTEX
  8
POLYLINE_012
 10
476834.813995361328125
 20
6772469.8070068359375
 30
290.0
  0
VERTEX
  8
POLYLINE_012
 10
476864.720001220703125
 20
6772553.85302734375
 30
290.0
  0
VERTEX
  8
POLYLINE_012
 10
476867.0879974365234375
 20
6772559.16400146484375
 30
290.0
  0
VERTEX
  8
POLYLINE_012
 10
476870.048004150390625
 20
6772563.7440185546875
 30
290.0
  0
VERTEX
  8
POLYLINE_012
 10
476873.6689987182617188
 20
6772567.823974609375
 30
290.0
  0
VERTEX
  8
POLYLINE_012
 10
476895.8420028686523438
 20
6772589.135986328125
 30
290.0
  0
VERTEX
  8
POLYLINE_012
 10
476900.3349990844726562
 20
6772592.8270263671875
 30
290.0
  0
VERTEX
  8
POLYLINE_012
 10
476905.0309982299804688
 20
6772595.5999755859375
 30
290.0
  0
VERTEX
  8
POLYLINE_012
 10
476910.0940017700195312
 20
6772597.6300048828125
 30
290.0
  0
VERTEX
  8
POLYLINE_012
 10
476983.8199996948242188
 20
6772620.5560302734375
 30
290.0
  0
VERTEX
  8
POLYLINE_012
 10
476997.1050000190734863
 20
6772622.11700439453125
 30
290.0
  0
VERTEX
  8
POLYLINE_012
 10
477009.6339998245239258
 20
6772618.8900146484375
 30
290.0
  0
VERTEX
  8
POLYLINE_012
 10
477020.5119991302490234
 20
6772611.10498046875
 30
290.0
  0
VERTEX
  8
POLYLINE_012
 10
477029.3260002136230469
 20
6772601.926025390625
 30
290.0
  0
VERTEX
  8
POLYLINE_012
 10
477036.1599998474121094
 20
6772596.458984375
 30
290.0
  0
VERTEX
  8
POLYLINE_012
 10
477044.4580001831054688
 20
6772592.822998046875
 30
290.0
  0
VERTEX
  8
POLYLINE_012
 10
477053.1090011596679688
 20
6772591.5050048828125
 30
290.0
  0
VERTEX
  8
POLYLINE_012
 10
477099.5680007934570312
 20
6772590.56298828125
 30
290.0
  0
VERTEX
  8
POLYLINE_012
 10
477108.2659988403320312
 20
6772591.52899169921875
 30
290.0
  0
VERTEX
  8
POLYLINE_012
 10
477116.7040023803710938
 20
6772594.82598876953125
 30
290.0
  0
VERTEX
  8
POLYLINE_012
 10
477123.753997802734375
 20
6772600.010986328125
 30
290.0
  0
VERTEX
  8
POLYLINE_012
 10
477138.9040069580078125
 20
6772614.55999755859375
 30
290.0
  0
VERTEX
  8
POLYLINE_012
 10
477146.5749969482421875
 20
6772620.2030029296875
 30
290.0
  0
VERTEX
  8
POLYLINE_012
 10
477155.1580047607421875
 20
6772623.5560302734375
 30
290.0
  0
VERTEX
  8
POLYLINE_012
 10
477164.6219940185546875
 20
6772624.60699462890625
 30
290.0
  0
VERTEX
  8
POLYLINE_012
 10
477272.27301025390625
 20
6772622.42498779296875
 30
290.0
  0
VERTEX
  8
POLYLINE_012
 10
477281.68701171875
 20
6772620.99102783203125
 30
290.0
  0
VERTEX
  8
POLYLINE_012
 10
477290.12701416015625
 20
6772617.29302978515625
 30
290.0
  0
VERTEX
  8
POLYLINE_012
 10
477297.56201171875
 20
6772611.343994140625
 30
290.0
  0
VERTEX
  8
POLYLINE_012
 10
477308.819000244140625
 20
6772599.62200927734375
 30
290.0
  0
VERTEX
  8
POLYLINE_012
 10
477314.46099853515625
 20
6772591.95098876953125
 30
290.0
  0
VERTEX
  8
POLYLINE_012
 10
477317.813995361328125
 20
6772583.3690185546875
 30
290.0
  0
VERTEX
  8
POLYLINE_012
 10
477318.865997314453125
 20
6772573.90399169921875
 30
290.0
  0
VERTEX
  8
POLYLINE_012
 10
477318.115997314453125
 20
6772536.95001220703125
 30
290.0
  0
VERTEX
  8
POLYLINE_012
 10
477316.6820068359375
 20
6772527.5360107421875
 30
290.0
  0
VERTEX
  8
POLYLINE_012
 10
477312.9849853515625
 20
6772519.09600830078125
 30
290.0
  0
VERTEX
  8
POLYLINE_012
 10
477307.0360107421875
 20
6772511.660003662109375
 30
290.0
  0
VERTEX
  8
POLYLINE_012
 10
477270.75299072265625
 20
6772476.819000244140625
 30
290.0
  0
VERTEX
  8
POLYLINE_012
 10
477175.475006103515625
 20
6772519.041015625
 30
290.0
  0
VERTEX
  8
POLYLINE_012
 10
477158.876007080078125
 20
6772524.364013671875
 30
290.0
  0
VERTEX
  8
POLYLINE_012
 10
477139.031005859375
 20
6772526.27099609375
 30
290.0
  0
VERTEX
  8
POLYLINE_012
 10
477122.7289962768554688
 20
6772524.28900146484375
 30
290.0
  0
VERTEX
  8
POLYLINE_012
 10
477124.7190017700195312
 20
6772499.368988037109375
 30
290.0
  0
VERTEX
  8
POLYLINE_012
 10
477118.7180023193359375
 20
6772491.59100341796875
 30
290.0
  0
VERTEX
  8
POLYLINE_012
 10
477113.8109970092773438
 20
6772486.420013427734375
 30
290.0
  0
VERTEX
  8
POLYLINE_012
 10
477107.957000732421875
 20
6772482.350006103515625
 30
290.0
  0
VERTEX
  8
POLYLINE_012
 10
477101.4000015258789062
 20
6772479.550994873046875
 30
290.0
  0
SEQEND
  0
POLYLINE
  8
POLYLINE_013
  6
BYLAYER
 66
1
 70
9
 10
0.0
 20
0.0
 30
0.0
  0
VERTEX
  8
POLYLINE_013
 10
477041.3849983215332031
 20
6772444.8380126953125
 30
310.0
  0
VERTEX
  8
POLYLINE_013
 10
476941.9780006408691406
 20
6772413.933013916015625
 30
310.0
  0
VERTEX
  8
POLYLINE_013
 10
476935.822998046875
 20
6772412.40399169921875
 30
310.0
  0
VERTEX
  8
POLYLINE_013
 10
476929.3799972534179688
 20
6772411.519012451171875
 30
310.0
  0
VERTEX
  8
POLYLINE_013
 10
476923.2910003662109375
 20
6772411.321990966796875
 30
310.0
  0
VERTEX
  8
POLYLINE_013
 10
476868.1300048828125
 20
6772412.44000244140625
 30
310.0
  0
VERTEX
  8
POLYLINE_013
 10
476860.889007568359375
 20
6772413.542999267578125
 30
310.0
  0
VERTEX
  8
POLYLINE_013
 10
476853.5359954833984375
 20
6772416.7650146484375
 30
310.0
  0
VERTEX
  8
POLYLINE_013
 10
476847.8170013427734375
 20
6772421.34100341796875
 30
310.0
  0
VERTEX
  8
POLYLINE_013
 10
476826.3170013427734375
 20
6772443.730010986328125
 30
310.0
  0
VERTEX
  8
POLYLINE_013
 10
476820.65899658203125
 20
6772452.355987548828125
 30
310.0
  0
VERTEX
  8
POLYLINE_013
 10
476818.2819976806640625
 20
6772463.423004150390625
 30
310.0
  0
VERTEX
  8
POLYLINE_013
 10
476819.899993896484375
 20
6772473.610992431640625
 30
310.0
  0
VERTEX
  8
POLYLINE_013
 10
476850.6269989013671875
 20
6772559.8809814453125
 30
310.0
  0
VERTEX
  8
POLYLINE_013
 10
476853.5720062255859375
 20
6772566.48797607421875
 30
310.0
  0
VERTEX
  8
POLYLINE_013
 10
476857.8209991455078125
 20
6772573.06097412109375
 30
310.0
  0
VERTEX
  8
POLYLINE_013
 10
476862.8860015869140625
 20
6772578.718017578125
 30
310.0
  0
VERTEX
  8
POLYLINE_013
 10
476885.9329986572265625
 20
6772600.83001708984375
 30
310.0
  0
VERTEX
  8
POLYLINE_013
 10
476891.5210037231445312
 20
6772605.4219970703125
 30
310.0
  0
VERTEX
  8
POLYLINE_013
 10
476898.2620010375976562
 20
6772609.4010009765625
 30
310.0
  0
VERTEX
  8
POLYLINE_013
 10
476905.3219985961914062
 20
6772612.19598388671875
 30
310.0
  0
VERTEX
  8
POLYLINE_013
 10
476980.6229991912841797
 20
6772635.61199951171875
 30
310.0
  0
VERTEX
  8
POLYLINE_013
 10
476998.1579999923706055
 20
6772637.6719970703125
 30
310.0
  0
VERTEX
  8
POLYLINE_013
 10
477016.2269992828369141
 20
6772633.01800537109375
 30
310.0
  0
VERTEX
  8
POLYLINE_013
 10
477030.5839996337890625
 20
6772622.74298095703125
 30
310.0
  0
VERTEX
  8
POLYLINE_013
 10
477039.6850013732910156
 20
6772613.2650146484375
 30
310.0
  0
VERTEX
  8
POLYLINE_013
 10
477044.1590003967285156
 20
6772609.68701171875
 30
310.0
  0
VERTEX
  8
POLYLINE_013
 10
477048.7599983215332031
 20
6772607.66998291015625
 30
310.0
  0
VERTEX
  8
POLYLINE_013
 10
477054.4239997863769531
 20
6772606.8079833984375
 30
310.0
  0
VERTEX
  8
POLYLINE_013
 10
477098.875
 20
6772605.906982421875
 30
310.0
  0
VERTEX
  8
POLYLINE_013
 10
477104.569000244140625
 20
6772606.53900146484375
 30
310.0
  0
VERTEX
  8
POLYLINE_013
 10
477109.2480010986328125
 20
6772608.36700439453125
 30
310.0
  0
VERTEX
  8
POLYLINE_013
 10
477113.8629989624023438
 20
6772611.76202392578125
 30
310.0
  0
VERTEX
  8
POLYLINE_013
 10
477129.014007568359375
 20
6772626.31097412109375
 30
310.0
  0
VERTEX
  8
POLYLINE_013
 10
477139.1190032958984375
 20
6772633.7440185546875
 30
310.0
  0
VERTEX
  8
POLYLINE_013
 10
477151.4600067138671875
 20
6772638.56500244140625
 30
310.0
  0
VERTEX
  8
POLYLINE_013
 10
477163.9279937744140625
 20
6772639.95001220703125
 30
310.0
  0
VERTEX
  8
POLYLINE_013
 10
477273.5880126953125
 20
6772637.72802734375
 30
310.0
  0
VERTEX
  8
POLYLINE_013
 10
477285.989990234375
 20
6772635.8380126953125
 30
310.0
  0
VERTEX
  8
POLYLINE_013
 10
477298.125
 20
6772630.52099609375
 30
310.0
  0
VERTEX
  8
POLYLINE_013
 10
477307.920989990234375
 20
6772622.68402099609375
 30
310.0
  0
VERTEX
  8
POLYLINE_013
 10
477320.569000244140625
 20
6772609.51300048828125
 30
310.0
  0
VERTEX
  8
POLYLINE_013
 10
477328.00299072265625
 20
6772599.40802001953125
 30
310.0
  0
VERTEX
  8
POLYLINE_013
 10
477332.824005126953125
 20
6772587.06597900390625
 30
310.0
  0
VERTEX
  8
POLYLINE_013
 10
477334.209014892578125
 20
6772574.5980224609375
 30
310.0
  0
VERTEX
  8
POLYLINE_013
 10
477333.41900634765625
 20
6772535.635009765625
 30
310.0
  0
VERTEX
  8
POLYLINE_013
 10
477326.29901123046875
 20
6772442.56298828125
 30
310.0
  0
VERTEX
  8
POLYLINE_013
 10
477325.154998779296875
 20
6772439.842987060546875
 30
310.0
  0
VERTEX
  8
POLYLINE_013
 10
477311.740997314453125
 20
6772424.5570068359375
 30
310.0
  0
VERTEX
  8
POLYLINE_013
 10
477308.665008544921875
 20
6772421.052001953125
 30
310.0
  0
VERTEX
  8
POLYLINE_013
 10
477292.175994873046875
 20
6772402.260986328125
 30
310.0
  0
VERTEX
  8
POLYLINE_013
 10
477215.58099365234375
 20
6772463.4010009765625
 30
310.0
  0
VERTEX
  8
POLYLINE_013
 10
477198.061004638671875
 20
6772461.808013916015625
 30
310.0
  0
VERTEX
  8
POLYLINE_013
 10
477192.51300048828125
 20
6772461.704986572265625
 30
310.0
  0
VERTEX
  8
POLYLINE_013
 10
477186.84100341796875
 20
6772462.4219970703125
 30
310.0
  0
VERTEX
  8
POLYLINE_013
 10
477181.7100067138671875
 20
6772463.84100341796875
 30
310.0
  0
VERTEX
  8
POLYLINE_013
 10
477157.886993408203125
 20
6772472.3330078125
 30
310.0
  0
VERTEX
  8
POLYLINE_013
 10
477148.906005859375
 20
6772474.48199462890625
 30
310.0
  0
VERTEX
  8
POLYLINE_013
 10
477140.5
 20
6772474.652008056640625
 30
310.0
  0
VERTEX
  8
POLYLINE_013
 10
477131.923004150390625
 20
6772472.99200439453125
 30
310.0
  0
SEQEND
  0
POLYLINE
  8
POLYLINE_014
  6
BYLAYER
 66
1
 70
9
 10
0.0
 20
0.0
 30
0.0
  0
VERTEX
  8
POLYLINE_014
 10
477040.0009994506835938
 20
6772449.290985107421875
 30
300.0
  0
VERTEX
  8
POLYLINE_014
 10
476940.8339996337890625
 20
6772418.454010009765625
 30
300.0
  0
VERTEX
  8
POLYLINE_014
 10
476935.1699981689453125
 20
6772417.02099609375
 30
300.0
  0
VERTEX
  8
POLYLINE_014
 10
476929.2249984741210938
 20
6772416.178985595703125
 30
300.0
  0
VERTEX
  8
POLYLINE_014
 10
476923.3850021362304688
 20
6772415.9840087890625
 30
300.0
  0
VERTEX
  8
POLYLINE_014
 10
476868.529998779296875
 20
6772417.09600830078125
 30
300.0
  0
VERTEX
  8
POLYLINE_014
 10
476862.199005126953125
 20
6772418.061004638671875
 30
300.0
  0
VERTEX
  8
POLYLINE_014
 10
476855.968994140625
 20
6772420.790008544921875
 30
300.0
  0
VERTEX
  8
POLYLINE_014
 10
476850.968994140625
 20
6772424.790985107421875
 30
300.0
  0
VERTEX
  8
POLYLINE_014
 10
476829.9799957275390625
 20
6772446.64898681640625
 30
300.0
  0
VERTEX
  8
POLYLINE_014
 10
476825.035003662109375
 20
6772454.186004638671875
 30
300.0
  0
VERTEX
  8
POLYLINE_014
 10
476823.0240020751953125
 20
6772463.550994873046875
 30
300.0
  0
VERTEX
  8
POLYLINE_014
 10
476824.4369964599609375
 20
6772472.454010009765625
 30
300.0
  0
VERTEX
  8
POLYLINE_014
 10
476854.8860015869140625
 20
6772557.98199462890625
 30
300.0
  0
VERTEX
  8
POLYLINE_014
 10
476857.6840057373046875
 20
6772564.25897216796875
 30
300.0
  0
VERTEX
  8
POLYLINE_014
 10
476861.5410003662109375
 20
6772570.22601318359375
 30
300.0
  0
VERTEX
  8
POLYLINE_014
 10
476866.115997314453125
 20
6772575.35498046875
 30
300.0
  0
VERTEX
  8
POLYLINE_014
 10
476888.8929977416992188
 20
6772597.22698974609375
 30
300.0
  0
VERTEX
  8
POLYLINE_014
 10
476894.2030029296875
 20
6772601.59002685546875
 30
300.0
  0
VERTEX
  8
POLYLINE_014
 10
476900.3209991455078125
 20
6772605.2020263671875
 30
300.0
  0
VERTEX
  8
POLYLINE_014
 10
476906.7060012817382812
 20
6772607.74298095703125
 30
300.0
  0
VERTEX
  8
POLYLINE_014
 10
476981.5960006713867188
 20
6772631.031005859375
 30
300.0
  0
VERTEX
  8
POLYLINE_014
 10
476997.8369998931884766
 20
6772632.93902587890625
 30
300.0
  0
VERTEX
  8
POLYLINE_014
 10
477014.2209997177124023
 20
6772628.718994140625
 30
300.0
  0
VERTEX
  8
POLYLINE_014
 10
477027.5200004577636719
 20
6772619.2020263671875
 30
300.0
  0
VERTEX
  8
POLYLINE_014
 10
477036.5340003967285156
 20
6772609.81500244140625
 30
300.0
  0
VERTEX
  8
POLYLINE_014
 10
477041.7249984741210938
 20
6772605.6619873046875
 30
300.0
  0
VERTEX
  8
POLYLINE_014
 10
477047.4510002136230469
 20
6772603.15301513671875
 30
300.0
  0
VERTEX
  8
POLYLINE_014
 10
477054.0239982604980469
 20
6772602.1519775390625
 30
300.0
  0
VERTEX
  8
POLYLINE_014
 10
477099.08599853515625
 20
6772601.23797607421875
 30
300.0
  0
VERTEX
  8
POLYLINE_014
 10
477105.694000244140625
 20
6772601.97198486328125
 30
300.0
  0
VERTEX
  8
POLYLINE_014
 10
477111.516998291015625
 20
6772604.24700927734375
 30
300.0
  0
VERTEX
  8
POLYLINE_014
 10
477116.8720016479492188
 20
6772608.18701171875
 30
300.0
  0
VERTEX
  8
POLYLINE_014
 10
477132.0229949951171875
 20
6772622.7349853515625
 30
300.0
  0
VERTEX
  8
POLYLINE_014
 10
477141.386993408203125
 20
6772629.6240234375
 30
300.0
  0
VERTEX
  8
POLYLINE_014
 10
477152.5850067138671875
 20
6772633.9990234375
 30
300.0
  0
VERTEX
  8
POLYLINE_014
 10
477164.139007568359375
 20
6772635.281982421875
 30
300.0
  0
VERTEX
  8
POLYLINE_014
 10
477273.18798828125
 20
6772633.072021484375
 30
300.0
  0
VERTEX
  8
POLYLINE_014
 10
477284.67999267578125
 20
6772631.32098388671875
 30
300.0
  0
VERTEX
  8
POLYLINE_014
 10
477295.691986083984375
 20
6772626.4959716796875
 30
300.0
  0
VERTEX
  8
POLYLINE_014
 10
477304.769012451171875
 20
6772619.2340087890625
 30
300.0
  0
VERTEX
  8
POLYLINE_014
 10
477316.993988037109375
 20
6772606.50299072265625
 30
300.0
  0
VERTEX
  8
POLYLINE_014
 10
477323.88299560546875
 20
6772597.13897705078125
 30
300.0
  0
VERTEX
  8
POLYLINE_014
 10
477328.256988525390625
 20
6772585.94097900390625
 30
300.0
  0
VERTEX
  8
POLYLINE_014
 10
477329.540985107421875
 20
6772574.38702392578125
 30
300.0
  0
VERTEX
  8
POLYLINE_014
 10
477328.76300048828125
 20
6772536.03497314453125
 30
300.0
  0
VERTEX
  8
POLYLINE_014
 10
477321.649993896484375
 20
6772442.917999267578125
 30
300.0
  0
VERTEX
  8
POLYLINE_014
 10
477308.092010498046875
 20
6772427.468994140625
 30
300.0
  0
VERTEX
  8
POLYLINE_014
 10
477233.5070037841796875
 20
6772487.0050048828125
 30
300.0
  0
VERTEX
  8
POLYLINE_014
 10
477217.01800537109375
 20
6772468.2139892578125
 30
300.0
  0
VERTEX
  8
POLYLINE_014
 10
477197.805999755859375
 20
6772466.467010498046875
 30
300.0
  0
VERTEX
  8
POLYLINE_014
 10
477192.76300048828125
 20
6772466.373992919921875
 30
300.0
  0
VERTEX
  8
POLYLINE_014
 10
477187.759002685546875
 20
6772467.006011962890625
 30
300.0
  0
VERTEX
  8
POLYLINE_014
 10
477182.8979949951171875
 20
6772468.35101318359375
 30
300.0
  0
VERTEX
  8
POLYLINE_014
 10
477158.9720001220703125
 20
6772476.868988037109375
 30
300.0
  0
VERTEX
  8
POLYLINE_014
 10
477149.5030059814453125
 20
6772479.13299560546875
 30
300.0
  0
VERTEX
  8
POLYLINE_014
 10
477140.0919952392578125
 20
6772479.324005126953125
 30
300.0
  0
VERTEX
  8
POLYLINE_014
 10
477130.53900146484375
 20
6772477.44500732421875
 30
300.0
  0
SEQEND
  0
POLYLINE
  8
POLYLINE_015
  6
BYLAYER
 66
1
 70
9
 10
0.0
 20
0.0
 30
0.0
  0
VERTEX
  8
POLYLINE_015
 10
477038.2190017700195312
 20
6772455.019989013671875
 30
300.0
  0
VERTEX
  8
POLYLINE_015
 10
476939.2060012817382812
 20
6772424.230987548828125
 30
300.0
  0
VERTEX
  8
POLYLINE_015
 10
476934.0100021362304688
 20
6772422.915985107421875
 30
300.0
  0
VERTEX
  8
POLYLINE_015
 10
476928.7030029296875
 20
6772422.165008544921875
 30
300.0
  0
VERTEX
  8
POLYLINE_015
 10
476923.3460006713867188
 20
6772421.985992431640625
 30
300.0
  0
VERTEX
  8
POLYLINE_015
 10
476869.0449981689453125
 20
6772423.087005615234375
 30
300.0
  0
VERTEX
  8
POLYLINE_015
 10
476863.88299560546875
 20
6772423.87298583984375
 30
300.0
  0
VERTEX
  8
POLYLINE_015
 10
476859.1009979248046875
 20
6772425.968994140625
 30
300.0
  0
VERTEX
  8
POLYLINE_015
 10
476855.0240020751953125
 20
6772429.230010986328125
 30
300.0
  0
VERTEX
  8
POLYLINE_015
 10
476834.6920013427734375
 20
6772450.40399169921875
 30
300.0
  0
VERTEX
  8
POLYLINE_015
 10
476830.6660003662109375
 20
6772456.540008544921875
 30
300.0
  0
VERTEX
  8
POLYLINE_015
 10
476829.125
 20
6772463.71600341796875
 30
300.0
  0
VERTEX
  8
POLYLINE_015
 10
476830.2760009765625
 20
6772470.9639892578125
 30
300.0
  0
VERTEX
  8
POLYLINE_015
 10
476860.46099853515625
 20
6772555.7509765625
 30
300.0
  0
VERTEX
  8
POLYLINE_015
 10
476862.975006103515625
 20
6772561.39202880859375
 30
300.0
  0
VERTEX
  8
POLYLINE_015
 10
476866.3280029296875
 20
6772566.5789794921875
 30
300.0
  0
VERTEX
  8
POLYLINE_015
 10
476870.438995361328125
 20
6772571.18798828125
 30
300.0
  0
VERTEX
  8
POLYLINE_015
 10
476892.8820037841796875
 20
6772592.739013671875
 30
300.0
  0
VERTEX
  8
POLYLINE_015
 10
476897.6529998779296875
 20
6772596.65899658203125
 30
300.0
  0
VERTEX
  8
POLYLINE_015
 10
476902.9710006713867188
 20
6772599.79901123046875
 30
300.0
  0
VERTEX
  8
POLYLINE_015
 10
476908.7099990844726562
 20
6772602.0830078125
 30
300.0
  0
VERTEX
  8
POLYLINE_015
 10
476982.8470001220703125
 20
6772625.13702392578125
 30
300.0
  0
VERTEX
  8
POLYLINE_015
 10
476997.4249999523162842
 20
6772626.8489990234375
 30
300.0
  0
VERTEX
  8
POLYLINE_015
 10
477011.6400003433227539
 20
6772623.18798828125
 30
300.0
  0
VERTEX
  8
POLYLINE_015
 10
477023.5760002136230469
 20
6772614.64599609375
 30
300.0
  0
VERTEX
  8
POLYLINE_015
 10
477032.4780006408691406
 20
6772605.3759765625
 30
300.0
  0
VERTEX
  8
POLYLINE_015
 10
477038.5929985046386719
 20
6772600.48297119140625
 30
300.0
  0
VERTEX
  8
POLYLINE_015
 10
477045.766998291015625
 20
6772597.34002685546875
 30
300.0
  0
VERTEX
  8
POLYLINE_015
 10
477053.5089988708496094
 20
6772596.1610107421875
 30
300.0
  0
VERTEX
  8
POLYLINE_015
 10
477099.3570022583007812
 20
6772595.23101806640625
 30
300.0
  0
VERTEX
  8
POLYLINE_015
 10
477107.1409988403320312
 20
6772596.09600830078125
 30
300.0
  0
VERTEX
  8
POLYLINE_015
 10
477114.4359970092773438
 20
6772598.94598388671875
 30
300.0
  0
VERTEX
  8
POLYLINE_015
 10
477120.7440032958984375
 20
6772603.58697509765625
 30
300.0
  0
VERTEX
  8
POLYLINE_015
 10
477135.8950042724609375
 20
6772618.135009765625
 30
300.0
  0
VERTEX
  8
POLYLINE_015
 10
477144.305999755859375
 20
6772624.322998046875
 30
300.0
  0
VERTEX
  8
POLYLINE_015
 10
477154.0330047607421875
 20
6772628.12298583984375
 30
300.0
  0
VERTEX
  8
POLYLINE_015
 10
477164.4109954833984375
 20
6772629.2750244140625
 30
300.0
  0
VERTEX
  8
POLYLINE_015
 10
477272.673004150390625
 20
6772627.08099365234375
 30
300.0
  0
VERTEX
  8
POLYLINE_015
 10
477282.996002197265625
 20
6772625.50799560546875
 30
300.0
  0
VERTEX
  8
POLYLINE_015
 10
477292.55999755859375
 20
6772621.3179931640625
 30
300.0
  0
VERTEX
  8
POLYLINE_015
 10
477300.7139892578125
 20
6772614.79400634765625
 30
300.0
  0
VERTEX
  8
POLYLINE_015
 10
477312.394012451171875
 20
6772602.6309814453125
 30
300.0
  0
VERTEX
  8
POLYLINE_015
 10
477318.58099365234375
 20
6772594.219970703125
 30
300.0
  0
VERTEX
  8
POLYLINE_015
 10
477322.381011962890625
 20
6772584.4940185546875
 30
300.0
  0
VERTEX
  8
POLYLINE_015
 10
477323.53399658203125
 20
6772574.114990234375
 30
300.0
  0
VERTEX
  8
POLYLINE_015
 10
477322.772003173828125
 20
6772536.54901123046875
 30
300.0
  0
VERTEX
  8
POLYLINE_015
 10
477321.20001220703125
 20
6772526.22601318359375
 30
300.0
  0
VERTEX
  8
POLYLINE_015
 10
477317.009002685546875
 20
6772516.6619873046875
 30
300.0
  0
VERTEX
  8
POLYLINE_015
 10
477310.485992431640625
 20
6772508.50799560546875
 30
300.0
  0
VERTEX
  8
POLYLINE_015
 10
477271.725006103515625
 20
6772471.287994384765625
 30
300.0
  0
VERTEX
  8
POLYLINE_015
 10
477228.082000732421875
 20
6772490.63299560546875
 30
300.0
  0
VERTEX
  8
POLYLINE_015
 10
477217.01800537109375
 20
6772468.2139892578125
 30
300.0
  0
VERTEX
  8
POLYLINE_015
 10
477163.884002685546875
 20
6772491.407012939453125
 30
300.0
  0
VERTEX
  8
POLYLINE_015
 10
477151.8289947509765625
 20
6772495.197998046875
 30
300.0
  0
VERTEX
  8
POLYLINE_015
 10
477138.3910064697265625
 20
6772496.412994384765625
 30
300.0
  0
VERTEX
  8
POLYLINE_015
 10
477127.2259979248046875
 20
6772494.99200439453125
 30
300.0
  0
VERTEX
  8
POLYLINE_015
 10
477122.0999984741210938
 20
6772488.381988525390625
 30
300.0
  0
VERTEX
  8
POLYLINE_015
 10
477116.8639984130859375
 20
6772482.864013671875
 30
300.0
  0
VERTEX
  8
POLYLINE_015
 10
477110.2269973754882812
 20
6772478.248992919921875
 30
300.0
  0
VERTEX
  8
POLYLINE_015
 10
477103.2310028076171875
 20
6772475.261993408203125
 30
300.0
  0
SEQEND
  0
ENDSEC
  0
SECTION
  2
OBJECTS
  0
DICTIONARY
  5
C
100
AcDbDictionary
280
0
281
1
  3
ACAD_GROUP
350
D
  3
ACAD_LAYOUT
350
1A
  3
ACAD_MLINESTYLE
350
17
  3
ACAD_PLOTSETTINGS
350
19
  3
ACAD_PLOTSTYLENAME
350
E
  3
AcDbVariableDictionary
350
30
  0
DICTIONARY
  5
D
100
AcDbDictionary
280
0
281
1
  0
ACDBDICTIONARYWDFLT
  5
E
100
AcDbDictionary
281
1
  3
Normal
350
F
100
AcDbDictionaryWithDefault
340
F
  0
ACDBPLACEHOLDER
  5
F
  0
DICTIONARY
  5
17
100
AcDbDictionary
280
0
281
1
  3
Standard
350
18
  0
MLINESTYLE
  5
18
100
AcDbMlineStyle
  2
STANDARD
 70
0
  3

 62
256
 51
90.0
 52
90.0
 71
2
 49
0.5
 62
256
  6
BYLAYER
 49
-0.5
 62
256
  6
BYLAYER
  0
DICTIONARY
  5
19
100
AcDbDictionary
280
0
281
1
  0
DICTIONARY
  5
1A
100
AcDbDictionary
281
1
  3
Layout1
350
1E
  3
Layout2
350
26
  3
Model
350
22
  0
LAYOUT
  5
1E
100
AcDbPlotSettings
  1

  2
none_device
  4

  6

 40
0.0
 41
0.0
 42
0.0
 43
0.0
 44
0.0
 45
0.0
 46
0.0
 47
0.0
 48
0.0
 49
0.0
140
0.0
141
0.0
142
1.0
143
1.0
 70
688
 72
0
 73
0
 74
5
  7

 75
16
147
1.0
148
0.0
149
0.0
100
AcDbLayout
  1
Layout1
 70
1
 71
1
 10
0.0
 20
0.0
 11
420.0
 21
297.0
 12
0.0
 22
0.0
 32
0.0
 14
100000000000000000000.0
 24
100000000000000000000.0
 34
100000000000000000000.0
 15
-100000000000000000000.0
 25
-100000000000000000000.0
 35
-100000000000000000000.0
146
0.0
 13
0.0
 23
0.0
 33
0.0
 16
1.0
 26
0.0
 36
0.0
 17
0.0
 27
1.0
 37
0.0
 76
0
330
1B
  0
LAYOUT
  5
22
100
AcDbPlotSettings
  1

  2
none_device
  4

  6

 40
0.0
 41
0.0
 42
0.0
 43
0.0
 44
0.0
 45
0.0
 46
0.0
 47
0.0
 48
0.0
 49
0.0
140
0.0
141
0.0
142
1.0
143
1.0
 70
1712
 72
0
 73
0
 74
0
  7

 75
0
147
1.0
148
0.0
149
0.0
100
AcDbLayout
  1
Model
 70
1
 71
0
 10
0.0
 20
0.0
 11
12.0
 21
9.0
 12
0.0
 22
0.0
 32
0.0
 14
0.0
 24
0.0
 34
0.0
 15
0.0
 25
0.0
 35
0.0
146
0.0
 13
0.0
 23
0.0
 33
0.0
 16
1.0
 26
0.0
 36
0.0
 17
0.0
 27
1.0
 37
0.0
 76
0
330
1F
  0
LAYOUT
  5
26
100
AcDbPlotSettings
  1

  2
none_device
  4

  6

 40
0.0
 41
0.0
 42
0.0
 43
0.0
 44
0.0
 45
0.0
 46
0.0
 47
0.0
 48
0.0
 49
0.0
140
0.0
141
0.0
142
1.0
143
1.0
 70
688
 72
0
 73
0
 74
5
  7

 75
16
147
1.0
148
0.0
149
0.0
100
AcDbLayout
  1
Layout2
 70
1
 71
2
 10
0.0
 20
0.0
 11
12.0
 21
9.0
 12
0.0
 22
0.0
 32
0.0
 14
0.0
 24
0.0
 34
0.0
 15
0.0
 25
0.0
 35
0.0
146
0.0
 13
0.0
 23
0.0
 33
0.0
 16
1.0
 26
0.0
 36
0.0
 17
0.0
 27
1.0
 37
0.0
 76
0
330
23
  0
DICTIONARY
  5
30
100
AcDbDictionary
281
1
  3
DIMASSOC
350
32
  3
HIDETEXT
350
31
  0
DICTIONARYVAR
  5
31
100
DictionaryVariables
280
0
  1
2
  0
DICTIONARYVAR
  5
32
100
DictionaryVariables
280
0
  1
1
  0
ENDSEC
  0
EOF
