999
Created by CloudCompare v2.13.alpha
999
Created 2024-07-13T22:08:31
999
dxflib 3.17.0.0
  0
SECTION
  2
HEADER
  9
$ACADVER
  1
AC1009
  9
$INSBASE
 10
0.0
 20
0.0
 30
0.0
  9
$EXTMIN
 10
571.8143333435058366
 20
210.5384086608886776
 30
391.0142845153808366
  9
$EXTMAX
 10
721.1522804260254134
 20
416.3157020568847884
 30
415.3494544982910384
  9
$LIMMIN
 10
571.8143333435058366
 20
210.5384086608886776
  9
$LIMMAX
 10
721.1522804260254134
 20
416.3157020568847884
  0
ENDSEC
  0
SECTION
  2
TABLES
  0
TABLE
  2
VPORT
 70
1
  0
VPORT
  2
*Active
 70
0
 10
0.0
 20
0.0
 11
1.0
 21
1.0
 12
286.3055555555554861
 22
148.5
 13
0.0
 23
0.0
 14
10.0
 24
10.0
 15
10.0
 25
10.0
 16
0.0
 26
0.0
 36
1.0
 17
0.0
 27
0.0
 37
0.0
 40
297.0
 41
1.92798353909465
 42
50.0
 43
0.0
 44
0.0
 50
0.0
 51
0.0
 71
0
 72
100
 73
1
 74
3
 75
1
 76
1
 77
0
 78
0
  0
ENDTAB
  0
TABLE
  2
LTYPE
 70
3
  0
LTYPE
  2
CONTINUOUS
 70
0
  3
Solid line
 72
65
 73
0
 40
0.0
  0
ENDTAB
  0
TABLE
  2
LAYER
 70
2
  0
LAYER
  2
0
 70
0
 62
250
  6
CONTINUOUS
  0
LAYER
  2
POLYLINE_001
 70
0
 62
3
  6
CONTINUOUS
  0
ENDTAB
  0
TABLE
  2
STYLE
 70
1
  0
STYLE
  2
Standard
 70
0
 40
0.0
 41
0.75
 50
0.0
 71
0
 42
2.5
  3
txt
  4

  0
ENDTAB
  0
TABLE
  2
VIEW
 70
0
  0
ENDTAB
  0
TABLE
  2
UCS
 70
0
  0
ENDTAB
  0
TABLE
  2
APPID
 70
1
  0
APPID
  2
ACAD
 70
0
  0
ENDTAB
  0
TABLE
  2
DIMSTYLE
 70
1
  0
DIMSTYLE
  2
Standard
  3

  4

  5

  6

  7

 40
1.0
 41
1.0
 42
1.0
 43
3.75
 44
1.0
 45
0.0
 46
0.0
 47
0.0
 48
0.0
 70
0
 71
0
 72
0
 73
0
 74
0
 75
0
 76
0
 77
1
 78
8
140
1.0
141
2.5
142
0.0
143
0.03937007874016
144
1.0
145
0.0
146
1.0
147
1.0
170
0
171
3
172
1
173
0
174
0
175
0
176
0
177
0
178
0
  0
ENDTAB
  0
TABLE
  2
BLOCK_RECORD
 70
1
  0
BLOCK_RECORD
  2
*Model_Space
340
22
  0
BLOCK_RECORD
  2
*Paper_Space
340
1E
  0
BLOCK_RECORD
  2
*Paper_Space0
340
26
  0
ENDTAB
  0
ENDSEC
  0
SECTION
  2
BLOCKS
  0
BLOCK
  2
*Model_Space
 70
0
 10
0.0
 20
0.0
 30
0.0
  3
*Model_Space
  1

  0
ENDBLK
  0
BLOCK
  2
*Paper_Space
 70
0
 10
0.0
 20
0.0
 30
0.0
  3
*Paper_Space
  1

  0
ENDBLK
  0
BLOCK
  2
*Paper_Space0
 70
0
 10
0.0
 20
0.0
 30
0.0
  3
*Paper_Space0
  1

  0
ENDBLK
  0
ENDSEC
  0
SECTION
  2
ENTITIES
  0
POLYLINE
  8
POLYLINE_001
  6
BYLAYER
 66
1
 70
8
 10
0.0
 20
0.0
 30
0.0
  0
VERTEX
  8
POLYLINE_001
 10
621.15606689453125
 20
406.962188720703125
 30
405.744140625
  0
VERTEX
  8
POLYLINE_001
 10
617.44000244140625
 20
403.71173095703125
 30
405.61865234375
  0
VERTEX
  8
POLYLINE_001
 10
611.73992919921875
 20
399.672332763671875
 30
405.783294677734375
  0
VERTEX
  8
POLYLINE_001
 10
605.3404541015625
 20
393.968658447265625
 30
405.934326171875
  0
VERTEX
  8
POLYLINE_001
 10
599.32525634765625
 20
387.966888427734375
 30
405.995941162109375
  0
VERTEX
  8
POLYLINE_001
 10
593.5780029296875
 20
382.8692626953125
 30
405.7117919921875
  0
VERTEX
  8
POLYLINE_001
 10
591.793212890625
 20
377.773529052734375
 30
405.4449462890625
  0
VERTEX
  8
POLYLINE_001
 10
586.51385498046875
 20
374.15582275390625
 30
405.29302978515625
  0
VERTEX
  8
POLYLINE_001
 10
582.25921630859375
 20
370.193511962890625
 30
405.153472900390625
  0
VERTEX
  8
POLYLINE_001
 10
581.1678466796875
 20
368.249603271484375
 30
404.9688720703125
  0
VERTEX
  8
POLYLINE_001
 10
583.2451171875
 20
366.35064697265625
 30
405.12225341796875
  0
VERTEX
  8
POLYLINE_001
 10
587.43634033203125
 20
363.0927734375
 30
405.25433349609375
  0
VERTEX
  8
POLYLINE_001
 10
591.58740234375
 20
357.029632568359375
 30
405.310089111328125
  0
VERTEX
  8
POLYLINE_001
 10
595.01263427734375
 20
348.435791015625
 30
405.232574462890625
  0
VERTEX
  8
POLYLINE_001
 10
598.06256103515625
 20
342.888580322265625
 30
405.159332275390625
  0
VERTEX
  8
POLYLINE_001
 10
600.325439453125
 20
339.5736083984375
 30
405.103179931640625
  0
VERTEX
  8
POLYLINE_001
 10
607.29547119140625
 20
334.515167236328125
 30
405.186859130859375
  0
VERTEX
  8
POLYLINE_001
 10
611.03338623046875
 20
330.50091552734375
 30
405.247894287109375
  0
VERTEX
  8
POLYLINE_001
 10
614.1038818359375
 20
321.758880615234375
 30
405.40576171875
  0
VERTEX
  8
POLYLINE_001
 10
618.82904052734375
 20
316.5333251953125
 30
405.349945068359375
  0
VERTEX
  8
POLYLINE_001
 10
623.78741455078125
 20
308.0245361328125
 30
404.936920166015625
  0
VERTEX
  8
POLYLINE_001
 10
628.4796142578125
 20
300.15325927734375
 30
404.9254150390625
  0
VERTEX
  8
POLYLINE_001
 10
632.86138916015625
 20
293.8270263671875
 30
404.949493408203125
  0
VERTEX
  8
POLYLINE_001
 10
636.76904296875
 20
290.45782470703125
 30
404.92584228515625
  0
VERTEX
  8
POLYLINE_001
 10
641.107666015625
 20
284.161041259765625
 30
405.063446044921875
  0
VERTEX
  8
POLYLINE_001
 10
645.87506103515625
 20
278.572479248046875
 30
405.025115966796875
  0
VERTEX
  8
POLYLINE_001
 10
652.05419921875
 20
268.76446533203125
 30
405.32464599609375
  0
VERTEX
  8
POLYLINE_001
 10
655.86566162109375
 20
257.757598876953125
 30
405.460113525390625
  0
VERTEX
  8
POLYLINE_001
 10
658.350341796875
 20
247.2519378662109375
 30
405.88494873046875
  0
VERTEX
  8
POLYLINE_001
 10
661.248291015625
 20
239.296356201171875
 30
404.777557373046875
  0
VERTEX
  8
POLYLINE_001
 10
661.7724609375
 20
230.8902130126953125
 30
402.93896484375
  0
VERTEX
  8
POLYLINE_001
 10
660.48114013671875
 20
224.11773681640625
 30
401.599945068359375
  0
VERTEX
  8
POLYLINE_001
 10
659.719970703125
 20
219.8919219970703125
 30
400.67333984375
  0
VERTEX
  8
POLYLINE_001
 10
680.328369140625
 20
233.7361297607421875
 30
400.3677978515625
  0
VERTEX
  8
POLYLINE_001
 10
680.69439697265625
 20
237.500640869140625
 30
401.452301025390625
  0
VERTEX
  8
POLYLINE_001
 10
678.05780029296875
 20
239.841888427734375
 30
402.90435791015625
  0
VERTEX
  8
POLYLINE_001
 10
675.28814697265625
 20
242.3264617919921875
 30
404.010101318359375
  0
VERTEX
  8
POLYLINE_001
 10
674.302734375
 20
245.885772705078125
 30
405.159576416015625
  0
VERTEX
  8
POLYLINE_001
 10
676.8321533203125
 20
247.7073822021484375
 30
405.755401611328125
  0
VERTEX
  8
POLYLINE_001
 10
681.57080078125
 20
249.516448974609375
 30
405.530181884765625
  0
VERTEX
  8
POLYLINE_001
 10
688.94427490234375
 20
253.3707427978515625
 30
405.587432861328125
  0
VERTEX
  8
POLYLINE_001
 10
693.93212890625
 20
257.057861328125
 30
405.51190185546875
  0
VERTEX
  8
POLYLINE_001
 10
699.74957275390625
 20
260.88311767578125
 30
405.49298095703125
  0
VERTEX
  8
POLYLINE_001
 10
703.9132080078125
 20
263.417266845703125
 30
405.5743408203125
  0
VERTEX
  8
POLYLINE_001
 10
707.65704345703125
 20
268.825836181640625
 30
405.434600830078125
  0
VERTEX
  8
POLYLINE_001
 10
711.79876708984375
 20
273.181915283203125
 30
405.38330078125
  0
SEQEND
  0
ENDSEC
  0
SECTION
  2
OBJECTS
  0
DICTIONARY
  5
C
100
AcDbDictionary
280
0
281
1
  3
ACAD_GROUP
350
D
  3
ACAD_LAYOUT
350
1A
  3
ACAD_MLINESTYLE
350
17
  3
ACAD_PLOTSETTINGS
350
19
  3
ACAD_PLOTSTYLENAME
350
E
  3
AcDbVariableDictionary
350
30
  0
DICTIONARY
  5
D
100
AcDbDictionary
280
0
281
1
  0
ACDBDICTIONARYWDFLT
  5
E
100
AcDbDictionary
281
1
  3
Normal
350
F
100
AcDbDictionaryWithDefault
340
F
  0
ACDBPLACEHOLDER
  5
F
  0
DICTIONARY
  5
17
100
AcDbDictionary
280
0
281
1
  3
Standard
350
18
  0
MLINESTYLE
  5
18
100
AcDbMlineStyle
  2
STANDARD
 70
0
  3

 62
256
 51
90.0
 52
90.0
 71
2
 49
0.5
 62
256
  6
BYLAYER
 49
-0.5
 62
256
  6
BYLAYER
  0
DICTIONARY
  5
19
100
AcDbDictionary
280
0
281
1
  0
DICTIONARY
  5
1A
100
AcDbDictionary
281
1
  3
Layout1
350
1E
  3
Layout2
350
26
  3
Model
350
22
  0
LAYOUT
  5
1E
100
AcDbPlotSettings
  1

  2
none_device
  4

  6

 40
0.0
 41
0.0
 42
0.0
 43
0.0
 44
0.0
 45
0.0
 46
0.0
 47
0.0
 48
0.0
 49
0.0
140
0.0
141
0.0
142
1.0
143
1.0
 70
688
 72
0
 73
0
 74
5
  7

 75
16
147
1.0
148
0.0
149
0.0
100
AcDbLayout
  1
Layout1
 70
1
 71
1
 10
0.0
 20
0.0
 11
420.0
 21
297.0
 12
0.0
 22
0.0
 32
0.0
 14
100000000000000000000.0
 24
100000000000000000000.0
 34
100000000000000000000.0
 15
-100000000000000000000.0
 25
-100000000000000000000.0
 35
-100000000000000000000.0
146
0.0
 13
0.0
 23
0.0
 33
0.0
 16
1.0
 26
0.0
 36
0.0
 17
0.0
 27
1.0
 37
0.0
 76
0
330
1B
  0
LAYOUT
  5
22
100
AcDbPlotSettings
  1

  2
none_device
  4

  6

 40
0.0
 41
0.0
 42
0.0
 43
0.0
 44
0.0
 45
0.0
 46
0.0
 47
0.0
 48
0.0
 49
0.0
140
0.0
141
0.0
142
1.0
143
1.0
 70
1712
 72
0
 73
0
 74
0
  7

 75
0
147
1.0
148
0.0
149
0.0
100
AcDbLayout
  1
Model
 70
1
 71
0
 10
0.0
 20
0.0
 11
12.0
 21
9.0
 12
0.0
 22
0.0
 32
0.0
 14
0.0
 24
0.0
 34
0.0
 15
0.0
 25
0.0
 35
0.0
146
0.0
 13
0.0
 23
0.0
 33
0.0
 16
1.0
 26
0.0
 36
0.0
 17
0.0
 27
1.0
 37
0.0
 76
0
330
1F
  0
LAYOUT
  5
26
100
AcDbPlotSettings
  1

  2
none_device
  4

  6

 40
0.0
 41
0.0
 42
0.0
 43
0.0
 44
0.0
 45
0.0
 46
0.0
 47
0.0
 48
0.0
 49
0.0
140
0.0
141
0.0
142
1.0
143
1.0
 70
688
 72
0
 73
0
 74
5
  7

 75
16
147
1.0
148
0.0
149
0.0
100
AcDbLayout
  1
Layout2
 70
1
 71
2
 10
0.0
 20
0.0
 11
12.0
 21
9.0
 12
0.0
 22
0.0
 32
0.0
 14
0.0
 24
0.0
 34
0.0
 15
0.0
 25
0.0
 35
0.0
146
0.0
 13
0.0
 23
0.0
 33
0.0
 16
1.0
 26
0.0
 36
0.0
 17
0.0
 27
1.0
 37
0.0
 76
0
330
23
  0
DICTIONARY
  5
30
100
AcDbDictionary
281
1
  3
DIMASSOC
350
32
  3
HIDETEXT
350
31
  0
DICTIONARYVAR
  5
31
100
DictionaryVariables
280
0
  1
2
  0
DICTIONARYVAR
  5
32
100
DictionaryVariables
280
0
  1
1
  0
ENDSEC
  0
EOF
